<?xml version="1.0" standalone="no"?>
<!DOCTYPE svg PUBLIC "-//W3C//DTD SVG 1.1//EN" "http://www.w3.org/Graphics/SVG/1.1/DTD/svg11.dtd" >
<svg xmlns="http://www.w3.org/2000/svg" xmlns:xlink="http://www.w3.org/1999/xlink" version="1.1">
<metadata>
Created by FontForge 20190801 at Sat Aug  8 01:53:05 2015
 By Jimmy Wärting
(c) 2014 Apple Inc. All rights reserved.
</metadata>
<defs>
<font id="SFCompactDisplay-Medium" horiz-adv-x="1800" >
  <font-face 
    font-family="SF Compact Display"
    font-weight="500"
    font-stretch="normal"
    units-per-em="2048"
    panose-1="2 11 5 4 3 2 2 6 2 4"
    ascent="1638"
    descent="-410"
    x-height="1054"
    cap-height="1365"
    bbox="-450 -504 2097 1950"
    underline-thickness="50"
    underline-position="-100"
    stemh="170"
    stemv="204"
    unicode-range="U+0020-1F189"
  />
<missing-glyph horiz-adv-x="2048" 
d="M100 -494v266h1848v-266h-1848zM100 -58v265h1848v-265h-1848zM100 377v266h1848v-266h-1848zM100 813v266h1848v-266h-1848zM100 1249v265h1848v-265h-1848zM100 1684v266h1848v-266h-1848z" />
    <glyph glyph-name=".notdef" horiz-adv-x="2048" 
d="M100 -494v266h1848v-266h-1848zM100 -58v265h1848v-265h-1848zM100 377v266h1848v-266h-1848zM100 813v266h1848v-266h-1848zM100 1249v265h1848v-265h-1848zM100 1684v266h1848v-266h-1848z" />
    <glyph glyph-name=".null" horiz-adv-x="0" 
 />
    <glyph glyph-name="nonmarkingreturn" horiz-adv-x="0" 
 />
    <glyph glyph-name="space" unicode=" " horiz-adv-x="408" 
 />
    <glyph glyph-name="A" unicode="A" horiz-adv-x="1220" 
d="M234 0h-212l476 1365h224l476 -1365h-218l-128 391h-490zM611 1141h-7l-193 -590h392z" />
    <glyph glyph-name="Agrave" unicode="&#xc0;" horiz-adv-x="1220" 
d="M234 0h-212l476 1365h224l476 -1365h-218l-128 391h-490zM611 1141h-7l-193 -590h392zM695 1510h-149l-235 279h193z" />
    <glyph glyph-name="Aacute" unicode="&#xc1;" horiz-adv-x="1220" 
d="M234 0h-212l476 1365h224l476 -1365h-218l-128 391h-490zM611 1141h-7l-193 -590h392zM674 1510h-149l191 279h193z" />
    <glyph glyph-name="Adieresis" unicode="&#xc4;" horiz-adv-x="1220" 
d="M234 0h-212l476 1365h224l476 -1365h-218l-128 391h-490zM611 1141h-7l-193 -590h392zM449 1489c-52 0 -92 41 -92 95c0 56 40 97 92 97c54 0 95 -41 95 -97c0 -54 -41 -95 -95 -95zM769 1489c-52 0 -93 41 -93 95c0 56 41 97 93 97c54 0 94 -41 94 -97
c0 -54 -40 -95 -94 -95z" />
    <glyph glyph-name="Adieresismacron" unicode="&#x1de;" horiz-adv-x="1220" 
d="M234 0h-212l476 1365h224l476 -1365h-218l-128 391h-490zM611 1141h-7l-193 -590h392zM449 1489c-52 0 -92 41 -92 95c0 56 40 97 92 97c54 0 95 -41 95 -97c0 -54 -41 -95 -95 -95zM769 1489c-52 0 -93 41 -93 95c0 56 41 97 93 97c54 0 94 -41 94 -97
c0 -54 -40 -95 -94 -95zM886 1791h-552v116h552v-116z" />
    <glyph glyph-name="Aring" unicode="&#xc5;" horiz-adv-x="1220" 
d="M234 0h-212l476 1365h224l476 -1365h-218l-128 391h-490zM611 1141h-7l-193 -590h392zM610 1485c-110 0 -198 82 -198 193c0 110 88 192 198 192c111 0 198 -82 198 -192c0 -111 -87 -193 -198 -193zM511 1678c0 -57 43 -101 99 -101s99 44 99 101c0 56 -43 100 -99 100
s-99 -44 -99 -100z" />
    <glyph glyph-name="Aringacute" unicode="&#x1fa;" horiz-adv-x="1220" 
d="M234 0h-212l476 1365h224l476 -1365h-218l-128 391h-490zM611 1141h-7l-193 -590h392zM528 1811l100 133h205l-142 -133h-163zM610 1424c-98 0 -176 74 -176 172s78 171 176 171s177 -73 177 -171s-79 -172 -177 -172zM525 1596c0 -48 37 -87 86 -87s85 39 85 87
c0 49 -36 87 -85 87s-86 -38 -86 -87z" />
    <glyph glyph-name="Atilde" unicode="&#xc3;" horiz-adv-x="1220" 
d="M234 0h-212l476 1365h224l476 -1365h-218l-128 391h-490zM611 1141h-7l-193 -590h392zM718 1480c-122 0 -155 113 -217 113c-46 0 -57 -57 -58 -94h-115c0 102 54 202 170 202c122 0 159 -113 219 -113c42 0 59 53 62 96h115c0 -97 -59 -204 -176 -204z" />
    <glyph glyph-name="Abrevegrave" unicode="&#x1eb0;" horiz-adv-x="1220" 
d="M234 0h-212l476 1365h224l476 -1365h-218l-128 391h-490zM611 1141h-7l-193 -590h392zM925 1726c0 -119 -112 -235 -315 -235s-316 116 -316 235h130c0 -58 55 -123 186 -123s185 65 185 123h130zM699 1750h-143l-172 195h178z" />
    <glyph glyph-name="Adotmacron" unicode="&#x1e0;" horiz-adv-x="1220" 
d="M234 0h-212l476 1365h224l476 -1365h-218l-128 391h-490zM611 1141h-7l-193 -590h392zM499 1577c0 61 50 110 111 110s111 -49 111 -110c0 -60 -50 -109 -111 -109s-111 49 -111 109zM886 1791h-552v116h552v-116z" />
    <glyph glyph-name="Aringbelow" unicode="&#x1e00;" horiz-adv-x="1220" 
d="M234 0h-212l476 1365h224l476 -1365h-218l-128 391h-490zM611 1141h-7l-193 -590h392zM610 -504c-110 0 -198 82 -198 193c0 110 88 192 198 192c111 0 198 -82 198 -192c0 -111 -87 -193 -198 -193zM511 -311c0 -57 43 -101 99 -101s99 44 99 101c0 56 -43 100 -99 100
s-99 -44 -99 -100z" />
    <glyph glyph-name="Acircumflex" unicode="&#xc2;" horiz-adv-x="1220" 
d="M234 0h-212l476 1365h224l476 -1365h-218l-128 391h-490zM611 1141h-7l-193 -590h392zM331 1510l217 291h124l217 -291h-160l-117 172h-4l-117 -172h-160z" />
    <glyph glyph-name="Acircumflexdotbelow" unicode="&#x1eac;" horiz-adv-x="1220" 
d="M234 0h-212l476 1365h224l476 -1365h-218l-128 391h-490zM611 1141h-7l-193 -590h392zM511 -268c0 59 45 103 100 103c56 0 100 -44 100 -103c0 -57 -44 -101 -100 -101c-55 0 -100 44 -100 101zM331 1510l217 291h124l217 -291h-160l-117 172h-4l-117 -172h-160z" />
    <glyph glyph-name="Acircumflexacute" unicode="&#x1ea4;" horiz-adv-x="1220" 
d="M234 0h-212l476 1365h224l476 -1365h-218l-128 391h-490zM611 1141h-7l-193 -590h392zM274 1510l277 213h118l277 -213h-185l-148 113h-6l-148 -113h-185zM809 1709l197 230h184l-245 -230h-136z" />
    <glyph glyph-name="Acircumflextilde" unicode="&#x1eaa;" horiz-adv-x="1220" 
d="M234 0h-212l476 1365h224l476 -1365h-218l-128 391h-490zM611 1141h-7l-193 -590h392zM283 1510l271 202h112l271 -202h-180l-145 110h-4l-145 -110h-180zM461 1783h-113c0 89 63 161 156 161s130 -81 187 -81c36 0 58 25 61 62h114c0 -84 -72 -169 -172 -169
c-89 0 -122 84 -179 84c-33 0 -53 -25 -54 -57z" />
    <glyph glyph-name="Acircumflexgrave" unicode="&#x1ea6;" horiz-adv-x="1220" 
d="M234 0h-212l476 1365h224l476 -1365h-218l-128 391h-490zM611 1141h-7l-193 -590h392zM274 1510l277 213h118l277 -213h-185l-148 113h-6l-148 -113h-185zM1065 1709h-136l-262 230h184z" />
    <glyph glyph-name="Acircumflexhookabove" unicode="&#x1ea8;" horiz-adv-x="1220" 
d="M234 0h-212l476 1365h224l476 -1365h-218l-128 391h-490zM611 1141h-7l-193 -590h392zM274 1510l277 213h118l277 -213h-185l-148 113h-6l-148 -113h-185zM745 1845v84c24 8 50 12 80 12c94 0 165 -49 165 -137c0 -71 -52 -119 -113 -139l-60 78c42 11 63 28 63 55
c0 35 -42 55 -74 55c-26 0 -42 -3 -61 -8z" />
    <glyph glyph-name="Abreve" unicode="&#x102;" horiz-adv-x="1220" 
d="M234 0h-212l476 1365h224l476 -1365h-218l-128 391h-490zM611 1141h-7l-193 -590h392zM319 1762h127c0 -83 50 -155 164 -155s164 72 164 155h126c0 -129 -87 -271 -290 -271s-292 142 -291 271z" />
    <glyph glyph-name="Abreveacute" unicode="&#x1eae;" horiz-adv-x="1220" 
d="M234 0h-212l476 1365h224l476 -1365h-218l-128 391h-490zM611 1141h-7l-193 -590h392zM925 1726c0 -119 -112 -235 -315 -235s-316 116 -316 235h130c0 -58 55 -123 186 -123s185 65 185 123h130zM515 1750l138 195h177l-171 -195h-144z" />
    <glyph glyph-name="Abrevetilde" unicode="&#x1eb4;" horiz-adv-x="1220" 
d="M234 0h-212l476 1365h224l476 -1365h-218l-128 391h-490zM611 1141h-7l-193 -590h392zM923 1711c0 -113 -118 -224 -313 -224s-312 111 -312 224h128c0 -54 57 -119 184 -119s184 65 184 119h129zM460 1782h-115c0 90 63 163 158 163c94 0 131 -82 189 -82
c36 0 58 25 61 63h116c0 -85 -73 -171 -174 -171c-90 0 -123 85 -181 85c-33 0 -53 -26 -54 -58z" />
    <glyph glyph-name="Abrevehookabove" unicode="&#x1eb2;" horiz-adv-x="1220" 
d="M234 0h-212l476 1365h224l476 -1365h-218l-128 391h-490zM611 1141h-7l-193 -590h392zM923 1711c0 -113 -118 -224 -313 -224s-312 111 -312 224h128c0 -54 57 -119 184 -119s184 65 184 119h129zM482 1840v86c24 7 49 12 79 12c94 0 163 -53 163 -133
c0 -69 -50 -117 -110 -133l-61 77c38 8 61 24 61 50c0 33 -41 50 -72 50c-24 0 -42 -3 -60 -9z" />
    <glyph glyph-name="Abrevedotbelow" unicode="&#x1eb6;" horiz-adv-x="1220" 
d="M234 0h-212l476 1365h224l476 -1365h-218l-128 391h-490zM611 1141h-7l-193 -590h392zM512 -268c0 59 45 103 100 103c56 0 100 -44 100 -103c0 -57 -44 -101 -100 -101c-55 0 -100 44 -100 101zM319 1762h127c0 -83 50 -155 164 -155s164 72 164 155h126
c0 -129 -87 -271 -290 -271s-292 142 -291 271z" />
    <glyph glyph-name="Ainvertedbreve" unicode="&#x202;" horiz-adv-x="1220" 
d="M234 0h-212l476 1365h224l476 -1365h-218l-128 391h-490zM611 1141h-7l-193 -590h392zM610 1665c-114 0 -164 -72 -164 -155h-127c-1 130 88 272 291 272s290 -142 290 -272h-126c0 83 -50 155 -164 155z" />
    <glyph glyph-name="Acaron" unicode="&#x1cd;" horiz-adv-x="1220" 
d="M234 0h-212l476 1365h224l476 -1365h-218l-128 391h-490zM611 1141h-7l-193 -590h392zM331 1801h160l117 -172h4l117 172h160l-217 -291h-124z" />
    <glyph glyph-name="Adotaccent" unicode="&#x226;" horiz-adv-x="1220" 
d="M234 0h-212l476 1365h224l476 -1365h-218l-128 391h-490zM611 1141h-7l-193 -590h392zM494 1642c0 63 52 114 116 114s116 -51 116 -114c0 -64 -52 -115 -116 -115s-116 51 -116 115z" />
    <glyph glyph-name="Adotbelow" unicode="&#x1ea0;" horiz-adv-x="1220" 
d="M234 0h-212l476 1365h224l476 -1365h-218l-128 391h-490zM611 1141h-7l-193 -590h392zM511 -268c0 59 45 103 100 103c56 0 100 -44 100 -103c0 -57 -44 -101 -100 -101c-55 0 -100 44 -100 101z" />
    <glyph glyph-name="Ahookabove" unicode="&#x1ea2;" horiz-adv-x="1220" 
d="M234 0h-212l476 1365h224l476 -1365h-218l-128 391h-490zM611 1141h-7l-193 -590h392zM477 1656v98c17 6 57 16 103 16c116 0 204 -54 204 -155s-96 -144 -145 -163l-69 83c39 10 88 35 88 73c0 46 -47 58 -90 58c-41 0 -70 -5 -91 -10z" />
    <glyph glyph-name="Adblgrave" unicode="&#x200;" horiz-adv-x="1220" 
d="M234 0h-212l476 1365h224l476 -1365h-218l-128 391h-490zM611 1141h-7l-193 -590h392zM553 1510h-148l-245 266h191zM861 1510h-147l-246 266h192z" />
    <glyph glyph-name="Amacron" unicode="&#x100;" horiz-adv-x="1220" 
d="M234 0h-212l476 1365h224l476 -1365h-218l-128 391h-490zM611 1141h-7l-193 -590h392zM886 1518h-552v116h552v-116z" />
    <glyph glyph-name="Aogonek" unicode="&#x104;" horiz-adv-x="1220" 
d="M234 0h-212l476 1365h224l469 -1344c-114 -30 -181 -97 -181 -172c0 -59 43 -99 117 -99c24 0 49 2 79 8v-125c-26 -12 -78 -20 -131 -20c-137 0 -233 79 -233 202c0 92 54 168 146 219v4h-21l-115 353h-490zM611 1141h-7l-193 -590h392z" />
    <glyph glyph-name="B" unicode="B" horiz-adv-x="1234" 
d="M158 0v1365h531c235 0 387 -129 387 -336c0 -158 -86 -261 -224 -301v-9c177 -22 299 -140 299 -336c0 -240 -188 -383 -476 -383h-517zM363 1196v-412h199c213 0 308 69 308 210c0 127 -81 202 -221 202h-286zM363 621v-452h225c251 0 353 68 353 219
c0 147 -99 233 -273 233h-305z" />
    <glyph glyph-name="Blinebelow" unicode="&#x1e06;" horiz-adv-x="1234" 
d="M158 0v1365h531c235 0 387 -129 387 -336c0 -158 -86 -261 -224 -301v-9c177 -22 299 -140 299 -336c0 -240 -188 -383 -476 -383h-517zM363 1196v-412h199c213 0 308 69 308 210c0 127 -81 202 -221 202h-286zM363 621v-452h225c251 0 353 68 353 219
c0 147 -99 233 -273 233h-305zM859 -340h-558v128h558v-128z" />
    <glyph glyph-name="Bdotbelow" unicode="&#x1e04;" horiz-adv-x="1234" 
d="M482 -268c0 59 45 103 100 103c56 0 100 -44 100 -103c0 -57 -44 -101 -100 -101c-55 0 -100 44 -100 101zM158 0v1365h531c235 0 387 -129 387 -336c0 -158 -86 -261 -224 -301v-9c177 -22 299 -140 299 -336c0 -240 -188 -383 -476 -383h-517zM363 1196v-412h199
c213 0 308 69 308 210c0 127 -81 202 -221 202h-286zM363 621v-452h225c251 0 353 68 353 219c0 147 -99 233 -273 233h-305z" />
    <glyph glyph-name="Bdotaccent" unicode="&#x1e02;" horiz-adv-x="1234" 
d="M464 1642c0 63 52 114 116 114s116 -51 116 -114c0 -64 -52 -115 -116 -115s-116 51 -116 115zM158 0v1365h531c235 0 387 -129 387 -336c0 -158 -86 -261 -224 -301v-9c177 -22 299 -140 299 -336c0 -240 -188 -383 -476 -383h-517zM363 1196v-412h199
c213 0 308 69 308 210c0 127 -81 202 -221 202h-286zM363 621v-452h225c251 0 353 68 353 219c0 147 -99 233 -273 233h-305z" />
    <glyph glyph-name="C" unicode="C" horiz-adv-x="1258" 
d="M310 765v-172c0 -283 123 -441 342 -441c184 0 307 113 311 277h201v-11c0 -259 -217 -446 -513 -446c-346 0 -548 233 -548 621v172c0 392 202 628 548 628c297 0 513 -194 513 -467v-10h-201c-4 175 -127 297 -311 297c-219 0 -342 -161 -342 -448z" />
    <glyph glyph-name="Cacute" unicode="&#x106;" horiz-adv-x="1258" 
d="M710 1510h-149l191 279h193zM310 765v-172c0 -283 123 -441 342 -441c184 0 307 113 311 277h201v-11c0 -259 -217 -446 -513 -446c-346 0 -548 233 -548 621v172c0 392 202 628 548 628c297 0 513 -194 513 -467v-10h-201c-4 175 -127 297 -311 297
c-219 0 -342 -161 -342 -448z" />
    <glyph glyph-name="Ccaron" unicode="&#x10c;" horiz-adv-x="1258" 
d="M310 765v-172c0 -283 123 -441 342 -441c184 0 307 113 311 277h201v-11c0 -259 -217 -446 -513 -446c-346 0 -548 233 -548 621v172c0 392 202 628 548 628c297 0 513 -194 513 -467v-10h-201c-4 175 -127 297 -311 297c-219 0 -342 -161 -342 -448zM367 1801h160
l117 -172h4l117 172h160l-217 -291h-124z" />
    <glyph glyph-name="Ccircumflex" unicode="&#x108;" horiz-adv-x="1258" 
d="M310 765v-172c0 -283 123 -441 342 -441c184 0 307 113 311 277h201v-11c0 -259 -217 -446 -513 -446c-346 0 -548 233 -548 621v172c0 392 202 628 548 628c297 0 513 -194 513 -467v-10h-201c-4 175 -127 297 -311 297c-219 0 -342 -161 -342 -448zM367 1510l217 291
h124l217 -291h-160l-117 172h-4l-117 -172h-160z" />
    <glyph glyph-name="Cdotaccent" unicode="&#x10a;" horiz-adv-x="1258" 
d="M530 1642c0 63 52 114 116 114s116 -51 116 -114c0 -64 -52 -115 -116 -115s-116 51 -116 115zM310 765v-172c0 -283 123 -441 342 -441c184 0 307 113 311 277h201v-11c0 -259 -217 -446 -513 -446c-346 0 -548 233 -548 621v172c0 392 202 628 548 628
c297 0 513 -194 513 -467v-10h-201c-4 175 -127 297 -311 297c-219 0 -342 -161 -342 -448z" />
    <glyph glyph-name="Ccedilla" unicode="&#xc7;" horiz-adv-x="1258" 
d="M624 -485c-52 0 -103 6 -133 15v110c28 -7 82 -13 115 -13c69 0 116 25 116 71c0 48 -35 67 -143 67h-53v86l47 125c-300 34 -470 260 -470 617v172c0 392 202 628 548 628c297 0 513 -194 513 -467v-10h-201c-4 176 -128 297 -311 297c-219 0 -342 -161 -342 -448v-172
c0 -283 123 -441 342 -441c184 0 307 113 311 277h201v-11c0 -243 -192 -424 -461 -443l-40 -107c132 0 207 -61 207 -163c0 -122 -92 -190 -246 -190z" />
    <glyph glyph-name="Ccedillaacute" unicode="&#x1e08;" horiz-adv-x="1258" 
d="M710 1510h-149l191 279h193zM624 -485c-52 0 -103 6 -133 15v110c28 -7 82 -13 115 -13c69 0 116 25 116 71c0 48 -35 67 -143 67h-53v86l47 125c-300 34 -470 260 -470 617v172c0 392 202 628 548 628c297 0 513 -194 513 -467v-10h-201c-4 176 -128 297 -311 297
c-219 0 -342 -161 -342 -448v-172c0 -283 123 -441 342 -441c184 0 307 113 311 277h201v-11c0 -243 -192 -424 -461 -443l-40 -107c132 0 207 -61 207 -163c0 -122 -92 -190 -246 -190z" />
    <glyph glyph-name="D" unicode="D" horiz-adv-x="1303" 
d="M158 1365h457c403 0 604 -238 604 -681s-202 -684 -604 -684h-457v1365zM364 1188v-1011h233c265 0 409 152 409 505c0 327 -126 506 -409 506h-233z" />
    <glyph glyph-name="Ddotaccent" unicode="&#x1e0a;" horiz-adv-x="1303" 
d="M482 1642c0 63 52 114 116 114s116 -51 116 -114c0 -64 -52 -115 -116 -115s-116 51 -116 115zM158 1365h457c403 0 604 -238 604 -681s-202 -684 -604 -684h-457v1365zM364 1188v-1011h233c265 0 409 152 409 505c0 327 -126 506 -409 506h-233z" />
    <glyph glyph-name="Dcircumflexbelow" unicode="&#x1e12;" horiz-adv-x="1303" 
d="M158 1365h457c403 0 604 -238 604 -681s-202 -684 -604 -684h-457v1365zM364 1188v-1011h233c265 0 409 152 409 505c0 327 -126 506 -409 506h-233zM321 -400l212 287h130l212 -287h-159l-116 178h-4l-116 -178h-159z" />
    <glyph glyph-name="Dcommaaccent" unicode="&#x1e10;" horiz-adv-x="1303" 
d="M584 -489h-149l85 335h178zM158 1365h457c403 0 604 -238 604 -681s-202 -684 -604 -684h-457v1365zM364 1188v-1011h233c265 0 409 152 409 505c0 327 -126 506 -409 506h-233z" />
    <glyph glyph-name="Dlinebelow" unicode="&#x1e0e;" horiz-adv-x="1303" 
d="M877 -340h-558v128h558v-128zM158 1365h457c403 0 604 -238 604 -681s-202 -684 -604 -684h-457v1365zM364 1188v-1011h233c265 0 409 152 409 505c0 327 -126 506 -409 506h-233z" />
    <glyph glyph-name="Dcaron" unicode="&#x10e;" horiz-adv-x="1303" 
d="M319 1801h160l117 -172h4l117 172h160l-217 -291h-124zM158 1365h457c403 0 604 -238 604 -681s-202 -684 -604 -684h-457v1365zM364 1188v-1011h233c265 0 409 152 409 505c0 327 -126 506 -409 506h-233z" />
    <glyph glyph-name="Ddotbelow" unicode="&#x1e0c;" horiz-adv-x="1303" 
d="M500 -268c0 59 45 103 100 103c56 0 100 -44 100 -103c0 -57 -44 -101 -100 -101c-55 0 -100 44 -100 101zM158 1365h457c403 0 604 -238 604 -681s-202 -684 -604 -684h-457v1365zM364 1188v-1011h233c265 0 409 152 409 505c0 327 -126 506 -409 506h-233z" />
    <glyph glyph-name="Dcroat" unicode="&#x110;" horiz-adv-x="1384" 
d="M634 0h-458v607h-99v179h99v579h458c403 0 603 -238 603 -681s-201 -684 -603 -684zM382 179h233c265 0 409 152 409 505c0 327 -126 506 -409 506h-233v-404h350v-179h-350v-428z" />
    <glyph glyph-name="E" unicode="E" horiz-adv-x="1107" 
d="M996 177v-177h-838v1365h838v-177h-633v-408h597v-170h-597v-433h633z" />
    <glyph glyph-name="Egrave" unicode="&#xc8;" horiz-adv-x="1107" 
d="M656 1510h-149l-235 279h193zM996 177v-177h-838v1365h838v-177h-633v-408h597v-170h-597v-433h633z" />
    <glyph glyph-name="Edblgrave" unicode="&#x204;" horiz-adv-x="1107" 
d="M514 1510h-148l-245 266h191zM822 1510h-147l-246 266h192zM996 177v-177h-838v1365h838v-177h-633v-408h597v-170h-597v-433h633z" />
    <glyph glyph-name="Eacute" unicode="&#xc9;" horiz-adv-x="1107" 
d="M635 1510h-149l191 279h193zM996 177v-177h-838v1365h838v-177h-633v-408h597v-170h-597v-433h633z" />
    <glyph glyph-name="Ecircumflex" unicode="&#xca;" horiz-adv-x="1107" 
d="M292 1510l217 291h124l217 -291h-160l-117 172h-4l-117 -172h-160zM996 177v-177h-838v1365h838v-177h-633v-408h597v-170h-597v-433h633z" />
    <glyph glyph-name="Ecircumflexhookabove" unicode="&#x1ec2;" horiz-adv-x="1107" 
d="M996 177v-177h-838v1365h838v-177h-633v-408h597v-170h-597v-433h633zM235 1510l277 213h118l277 -213h-185l-148 113h-6l-148 -113h-185zM706 1845v84c24 8 50 12 80 12c94 0 165 -49 165 -137c0 -71 -52 -119 -113 -139l-60 78c42 11 63 28 63 55c0 35 -42 55 -74 55
c-26 0 -42 -3 -61 -8z" />
    <glyph glyph-name="Ecircumflexgrave" unicode="&#x1ec0;" horiz-adv-x="1107" 
d="M996 177v-177h-838v1365h838v-177h-633v-408h597v-170h-597v-433h633zM235 1510l277 213h118l277 -213h-185l-148 113h-6l-148 -113h-185zM1026 1709h-136l-262 230h184z" />
    <glyph glyph-name="Ecircumflextilde" unicode="&#x1ec4;" horiz-adv-x="1107" 
d="M244 1510l271 202h112l271 -202h-180l-145 110h-4l-145 -110h-180zM422 1783h-113c0 89 63 161 156 161s130 -81 187 -81c36 0 58 25 61 62h114c0 -84 -72 -169 -172 -169c-89 0 -122 84 -179 84c-33 0 -53 -25 -54 -57zM996 177v-177h-838v1365h838v-177h-633v-408h597
v-170h-597v-433h633z" />
    <glyph glyph-name="Ecircumflexdotbelow" unicode="&#x1ec6;" horiz-adv-x="1107" 
d="M473 -268c0 59 45 103 100 103c56 0 100 -44 100 -103c0 -57 -44 -101 -100 -101c-55 0 -100 44 -100 101zM292 1510l217 291h124l217 -291h-160l-117 172h-4l-117 -172h-160zM996 177v-177h-838v1365h838v-177h-633v-408h597v-170h-597v-433h633z" />
    <glyph glyph-name="Ecircumflexacute" unicode="&#x1ebe;" horiz-adv-x="1107" 
d="M996 177v-177h-838v1365h838v-177h-633v-408h597v-170h-597v-433h633zM235 1510l277 213h118l277 -213h-185l-148 113h-6l-148 -113h-185zM770 1709l197 230h184l-245 -230h-136z" />
    <glyph glyph-name="Edieresis" unicode="&#xcb;" horiz-adv-x="1107" 
d="M410 1489c-52 0 -92 41 -92 95c0 56 40 97 92 97c54 0 95 -41 95 -97c0 -54 -41 -95 -95 -95zM730 1489c-52 0 -93 41 -93 95c0 56 41 97 93 97c54 0 94 -41 94 -97c0 -54 -40 -95 -94 -95zM996 177v-177h-838v1365h838v-177h-633v-408h597v-170h-597v-433h633z" />
    <glyph glyph-name="Edotbelow" unicode="&#x1eb8;" horiz-adv-x="1107" 
d="M473 -268c0 59 45 103 100 103c56 0 100 -44 100 -103c0 -57 -44 -101 -100 -101c-55 0 -100 44 -100 101zM996 177v-177h-838v1365h838v-177h-633v-408h597v-170h-597v-433h633z" />
    <glyph glyph-name="Einvertedbreve" unicode="&#x206;" horiz-adv-x="1107" 
d="M996 177v-177h-838v1365h838v-177h-633v-408h597v-170h-597v-433h633zM571 1665c-114 0 -164 -72 -164 -155h-127c-1 130 88 272 291 272s290 -142 290 -272h-126c0 83 -50 155 -164 155z" />
    <glyph glyph-name="Ehookabove" unicode="&#x1eba;" horiz-adv-x="1107" 
d="M996 177v-177h-838v1365h838v-177h-633v-408h597v-170h-597v-433h633zM438 1656v98c17 6 57 16 103 16c116 0 204 -54 204 -155s-96 -144 -145 -163l-69 83c39 10 88 35 88 73c0 46 -47 58 -90 58c-41 0 -70 -5 -91 -10z" />
    <glyph glyph-name="Ecaron" unicode="&#x11a;" horiz-adv-x="1107" 
d="M292 1801h160l117 -172h4l117 172h160l-217 -291h-124zM996 177v-177h-838v1365h838v-177h-633v-408h597v-170h-597v-433h633z" />
    <glyph glyph-name="Emacron" unicode="&#x112;" horiz-adv-x="1107" 
d="M996 177v-177h-838v1365h838v-177h-633v-408h597v-170h-597v-433h633zM847 1518h-552v116h552v-116z" />
    <glyph glyph-name="Emacrongrave" unicode="&#x1e14;" horiz-adv-x="1107" 
d="M665 1738h-166l-275 195h208zM847 1518h-552v116h552v-116zM996 177v-177h-838v1365h838v-177h-633v-408h597v-170h-597v-433h633z" />
    <glyph glyph-name="Emacronacute" unicode="&#x1e16;" horiz-adv-x="1107" 
d="M477 1738l233 195h208l-275 -195h-166zM847 1518h-552v116h552v-116zM996 177v-177h-838v1365h838v-177h-633v-408h597v-170h-597v-433h633z" />
    <glyph glyph-name="Etilde" unicode="&#x1ebc;" horiz-adv-x="1107" 
d="M996 177v-177h-838v1365h838v-177h-633v-408h597v-170h-597v-433h633zM679 1480c-122 0 -155 113 -217 113c-46 0 -57 -57 -58 -94h-115c0 102 54 202 170 202c122 0 159 -113 219 -113c42 0 59 53 62 96h115c0 -97 -59 -204 -176 -204z" />
    <glyph glyph-name="Ecircumflexbelow" unicode="&#x1e18;" horiz-adv-x="1107" 
d="M996 177v-177h-838v1365h838v-177h-633v-408h597v-170h-597v-433h633zM294 -400l212 287h130l212 -287h-159l-116 178h-4l-116 -178h-159z" />
    <glyph glyph-name="Ebreve" unicode="&#x114;" horiz-adv-x="1107" 
d="M996 177v-177h-838v1365h838v-177h-633v-408h597v-170h-597v-433h633zM280 1762h127c0 -83 50 -155 164 -155s164 72 164 155h126c0 -129 -87 -271 -290 -271s-292 142 -291 271z" />
    <glyph glyph-name="Etildebelow" unicode="&#x1e1a;" horiz-adv-x="1107" 
d="M682 -375c-127 0 -164 122 -230 122c-50 0 -59 -67 -60 -102h-123c0 112 59 217 178 217c127 0 166 -122 232 -122c44 0 64 57 67 104h123c0 -102 -63 -219 -187 -219zM996 177v-177h-838v1365h838v-177h-633v-408h597v-170h-597v-433h633z" />
    <glyph glyph-name="Edotaccent" unicode="&#x116;" horiz-adv-x="1107" 
d="M455 1642c0 63 52 114 116 114s116 -51 116 -114c0 -64 -52 -115 -116 -115s-116 51 -116 115zM996 177v-177h-838v1365h838v-177h-633v-408h597v-170h-597v-433h633z" />
    <glyph glyph-name="Ecedilla" unicode="&#x228;" horiz-adv-x="1107" 
d="M573 -469c-63 -2 -122 8 -149 15v111c27 -8 81 -14 114 -14c54 0 116 15 116 73c0 64 -67 66 -143 66h-53v85l50 133h-350v1365h838v-177h-633v-408h597v-170h-597v-433h633v-177h-357l-44 -115c124 0 207 -55 207 -163c0 -130 -101 -186 -229 -191z" />
    <glyph glyph-name="Ecedillabreve" unicode="&#x1e1c;" horiz-adv-x="1107" 
d="M573 -469c-63 -2 -122 8 -149 15v111c27 -8 81 -14 114 -14c54 0 116 15 116 73c0 64 -67 66 -143 66h-53v85l50 133h-350v1365h838v-177h-633v-408h597v-170h-597v-433h633v-177h-357l-44 -115c124 0 207 -55 207 -163c0 -130 -101 -186 -229 -191zM280 1762h127
c0 -83 50 -155 164 -155s164 72 164 155h126c0 -129 -87 -271 -290 -271s-292 142 -291 271z" />
    <glyph glyph-name="Eogonek" unicode="&#x118;" horiz-adv-x="1108" 
d="M997 -368c-27 -9 -76 -19 -123 -19c-123 0 -230 59 -230 195c0 84 48 147 117 189v3h-603v1365h838v-177h-634v-408h598v-170h-597v-433h633v-151c-83 -19 -193 -75 -193 -177c0 -65 47 -99 119 -99c24 0 57 3 75 8v-126z" />
    <glyph glyph-name="F" unicode="F" horiz-adv-x="1042" 
d="M364 0h-206v1365h827v-178h-621v-437h569v-176h-569v-574z" />
    <glyph glyph-name="Fdotaccent" unicode="&#x1e1e;" horiz-adv-x="1042" 
d="M451 1642c0 63 52 114 116 114s116 -51 116 -114c0 -64 -52 -115 -116 -115s-116 51 -116 115zM364 0h-206v1365h827v-178h-621v-437h569v-176h-569v-574z" />
    <glyph glyph-name="G" unicode="G" horiz-adv-x="1283" 
d="M1177 942h-203c-20 167 -136 271 -317 271c-220 0 -348 -156 -348 -424v-194c0 -278 119 -444 355 -444c191 0 317 118 317 283v117h-329v168h528v-278c0 -262 -205 -469 -519 -469c-369 0 -558 235 -558 623v195c0 370 206 603 555 603c306 0 503 -189 519 -451z" />
    <glyph glyph-name="Gacute" unicode="&#x1f4;" horiz-adv-x="1283" 
d="M721 1510h-149l191 279h193zM1177 942h-203c-20 167 -136 271 -317 271c-220 0 -348 -156 -348 -424v-194c0 -278 119 -444 355 -444c191 0 317 118 317 283v117h-329v168h528v-278c0 -262 -205 -469 -519 -469c-369 0 -558 235 -558 623v195c0 370 206 603 555 603
c306 0 503 -189 519 -451z" />
    <glyph glyph-name="Gcaron" unicode="&#x1e6;" horiz-adv-x="1283" 
d="M378 1801h160l117 -172h4l117 172h160l-217 -291h-124zM1177 942h-203c-20 167 -136 271 -317 271c-220 0 -348 -156 -348 -424v-194c0 -278 119 -444 355 -444c191 0 317 118 317 283v117h-329v168h528v-278c0 -262 -205 -469 -519 -469c-369 0 -558 235 -558 623v195
c0 370 206 603 555 603c306 0 503 -189 519 -451z" />
    <glyph glyph-name="Gcircumflex" unicode="&#x11c;" horiz-adv-x="1283" 
d="M378 1510l217 291h124l217 -291h-160l-117 172h-4l-117 -172h-160zM1177 942h-203c-20 167 -136 271 -317 271c-220 0 -348 -156 -348 -424v-194c0 -278 119 -444 355 -444c191 0 317 118 317 283v117h-329v168h528v-278c0 -262 -205 -469 -519 -469
c-369 0 -558 235 -558 623v195c0 370 206 603 555 603c306 0 503 -189 519 -451z" />
    <glyph glyph-name="Gbreve" unicode="&#x11e;" horiz-adv-x="1283" 
d="M1177 942h-203c-20 167 -136 271 -317 271c-220 0 -348 -156 -348 -424v-194c0 -278 119 -444 355 -444c191 0 317 118 317 283v117h-329v168h528v-278c0 -262 -205 -469 -519 -469c-369 0 -558 235 -558 623v195c0 370 206 603 555 603c306 0 503 -189 519 -451z
M366 1762h127c0 -83 50 -155 164 -155s164 72 164 155h126c0 -129 -87 -271 -290 -271s-292 142 -291 271z" />
    <glyph glyph-name="Gmacron" unicode="&#x1e20;" horiz-adv-x="1283" 
d="M1177 942h-203c-20 167 -136 271 -317 271c-220 0 -348 -156 -348 -424v-194c0 -278 119 -444 355 -444c191 0 317 118 317 283v117h-329v168h528v-278c0 -262 -205 -469 -519 -469c-369 0 -558 235 -558 623v195c0 370 206 603 555 603c306 0 503 -189 519 -451z
M933 1518h-552v116h552v-116z" />
    <glyph glyph-name="Gdotaccent" unicode="&#x120;" horiz-adv-x="1283" 
d="M541 1642c0 63 52 114 116 114s116 -51 116 -114c0 -64 -52 -115 -116 -115s-116 51 -116 115zM1177 942h-203c-20 167 -136 271 -317 271c-220 0 -348 -156 -348 -424v-194c0 -278 119 -444 355 -444c191 0 317 118 317 283v117h-329v168h528v-278
c0 -262 -205 -469 -519 -469c-369 0 -558 235 -558 623v195c0 370 206 603 555 603c306 0 503 -189 519 -451z" />
    <glyph glyph-name="Gcommaaccent" unicode="&#x122;" horiz-adv-x="1283" 
d="M643 -489h-149l85 335h178zM1177 942h-203c-20 167 -136 271 -317 271c-220 0 -348 -156 -348 -424v-194c0 -278 119 -444 355 -444c191 0 317 118 317 283v117h-329v168h528v-278c0 -262 -205 -469 -519 -469c-369 0 -558 235 -558 623v195c0 370 206 603 555 603
c306 0 503 -189 519 -451z" />
    <glyph glyph-name="H" unicode="H" horiz-adv-x="1377" 
d="M1220 0h-206v615h-650v-615h-206v1365h206v-572h650v572h206v-1365z" />
    <glyph glyph-name="Hdieresis" unicode="&#x1e26;" horiz-adv-x="1377" 
d="M1220 0h-206v615h-650v-615h-206v1365h206v-572h650v572h206v-1365zM526 1489c-52 0 -92 41 -92 95c0 56 40 97 92 97c54 0 95 -41 95 -97c0 -54 -41 -95 -95 -95zM846 1489c-52 0 -93 41 -93 95c0 56 41 97 93 97c54 0 94 -41 94 -97c0 -54 -40 -95 -94 -95z" />
    <glyph glyph-name="Hcaron" unicode="&#x21e;" horiz-adv-x="1377" 
d="M1220 0h-206v615h-650v-615h-206v1365h206v-572h650v572h206v-1365zM408 1801h160l117 -172h4l117 172h160l-217 -291h-124z" />
    <glyph glyph-name="Hcircumflex" unicode="&#x124;" horiz-adv-x="1377" 
d="M1220 0h-206v615h-650v-615h-206v1365h206v-572h650v572h206v-1365zM409 1510l217 291h124l217 -291h-160l-117 172h-4l-117 -172h-160z" />
    <glyph glyph-name="Hdotbelow" unicode="&#x1e24;" horiz-adv-x="1377" 
d="M1220 0h-206v615h-650v-615h-206v1365h206v-572h650v572h206v-1365zM588 -268c0 59 45 103 100 103c56 0 100 -44 100 -103c0 -57 -44 -101 -100 -101c-55 0 -100 44 -100 101z" />
    <glyph glyph-name="Hdotaccent" unicode="&#x1e22;" horiz-adv-x="1377" 
d="M1220 0h-206v615h-650v-615h-206v1365h206v-572h650v572h206v-1365zM572 1642c0 63 52 114 116 114s116 -51 116 -114c0 -64 -52 -115 -116 -115s-116 51 -116 115z" />
    <glyph glyph-name="Hbrevebelow" unicode="&#x1e2a;" horiz-adv-x="1377" 
d="M1220 0h-206v615h-650v-615h-206v1365h206v-572h650v572h206v-1365zM862 -137h131c0 -134 -87 -284 -305 -284s-313 146 -313 284h139c0 -84 55 -164 174 -164s174 80 174 164z" />
    <glyph glyph-name="Hcedilla" unicode="&#x1e28;" horiz-adv-x="1377" 
d="M283 -469c-54 0 -101 6 -133 15v111c25 -7 79 -14 115 -14c73 0 115 23 115 71s-35 68 -143 68h-53v85l50 133h-76v1365h206v-572h650v572h206v-1365h-206v615h-650v-615l-42 -115c131 0 207 -61 207 -163c0 -122 -93 -191 -246 -191z" />
    <glyph glyph-name="Hbar" unicode="&#x126;" horiz-adv-x="1378" 
d="M364 768h650v231h-650v-231zM364 590v-590h-206v999h-105v145h105v221h206v-221h650v221h206v-221h105v-145h-105v-999h-206v590h-650z" />
    <glyph glyph-name="I" unicode="I" horiz-adv-x="521" 
d="M364 0h-206v1365h206v-1365z" />
    <glyph glyph-name="Idotaccent" unicode="&#x130;" horiz-adv-x="521" 
d="M364 0h-206v1365h206v-1365zM144 1642c0 63 52 114 116 114s116 -51 116 -114c0 -64 -52 -115 -116 -115s-116 51 -116 115z" />
    <glyph glyph-name="Igrave" unicode="&#xcc;" horiz-adv-x="521" 
d="M364 0h-206v1365h206v-1365zM345 1510h-149l-235 279h193z" />
    <glyph glyph-name="Idblgrave" unicode="&#x208;" horiz-adv-x="521" 
d="M364 0h-206v1365h206v-1365zM203 1510h-148l-245 266h191zM511 1510h-147l-246 266h192z" />
    <glyph glyph-name="Iacute" unicode="&#xcd;" horiz-adv-x="521" 
d="M364 0h-206v1365h206v-1365zM324 1510h-149l191 279h193z" />
    <glyph glyph-name="Icircumflex" unicode="&#xce;" horiz-adv-x="521" 
d="M364 0h-206v1365h206v-1365zM-19 1510l217 291h124l217 -291h-160l-117 172h-4l-117 -172h-160z" />
    <glyph glyph-name="Icaron" unicode="&#x1cf;" horiz-adv-x="520" 
d="M364 0h-206v1365h206v-1365zM-20 1801h160l117 -172h4l117 172h160l-217 -291h-124z" />
    <glyph glyph-name="Idieresis" unicode="&#xcf;" horiz-adv-x="521" 
d="M364 0h-206v1365h206v-1365zM99 1489c-52 0 -92 41 -92 95c0 56 40 97 92 97c54 0 95 -41 95 -97c0 -54 -41 -95 -95 -95zM419 1489c-52 0 -93 41 -93 95c0 56 41 97 93 97c54 0 94 -41 94 -97c0 -54 -40 -95 -94 -95z" />
    <glyph glyph-name="Idieresisacute" unicode="&#x1e2e;" horiz-adv-x="521" 
d="M364 0h-206v1365h206v-1365zM166 1738l233 195h208l-275 -195h-166zM99 1489c-52 0 -92 41 -92 95c0 56 40 97 92 97c54 0 95 -41 95 -97c0 -54 -41 -95 -95 -95zM419 1489c-52 0 -93 41 -93 95c0 56 41 97 93 97c54 0 94 -41 94 -97c0 -54 -40 -95 -94 -95z" />
    <glyph glyph-name="Ibreve" unicode="&#x12c;" horiz-adv-x="521" 
d="M364 0h-206v1365h206v-1365zM-31 1762h127c0 -83 50 -155 164 -155s164 72 164 155h126c0 -129 -87 -271 -290 -271s-292 142 -291 271z" />
    <glyph glyph-name="Idotbelow" unicode="&#x1eca;" horiz-adv-x="521" 
d="M364 0h-206v1365h206v-1365zM162 -268c0 59 45 103 100 103c56 0 100 -44 100 -103c0 -57 -44 -101 -100 -101c-55 0 -100 44 -100 101z" />
    <glyph glyph-name="Iinvertedbreve" unicode="&#x20a;" horiz-adv-x="521" 
d="M364 0h-206v1365h206v-1365zM260 1665c-114 0 -164 -72 -164 -155h-127c-1 130 88 272 291 272s290 -142 290 -272h-126c0 83 -50 155 -164 155z" />
    <glyph glyph-name="Imacron" unicode="&#x12a;" horiz-adv-x="521" 
d="M364 0h-206v1365h206v-1365zM536 1518h-552v116h552v-116z" />
    <glyph glyph-name="Itildebelow" unicode="&#x1e2c;" horiz-adv-x="521" 
d="M364 0h-206v1365h206v-1365zM371 -375c-127 0 -164 122 -230 122c-50 0 -59 -67 -60 -102h-123c0 112 59 217 178 217c127 0 166 -122 232 -122c44 0 64 57 67 104h123c0 -102 -63 -219 -187 -219z" />
    <glyph glyph-name="Ihookabove" unicode="&#x1ec8;" horiz-adv-x="521" 
d="M364 0h-206v1365h206v-1365zM127 1656v98c17 6 57 16 103 16c116 0 204 -54 204 -155s-96 -144 -145 -163l-69 83c39 10 88 35 88 73c0 46 -47 58 -90 58c-41 0 -70 -5 -91 -10z" />
    <glyph glyph-name="Itilde" unicode="&#x128;" horiz-adv-x="521" 
d="M364 0h-206v1365h206v-1365zM368 1480c-122 0 -155 113 -217 113c-46 0 -57 -57 -58 -94h-115c0 102 54 202 170 202c122 0 159 -113 219 -113c42 0 59 53 62 96h115c0 -97 -59 -204 -176 -204z" />
    <glyph glyph-name="Iogonek" unicode="&#x12e;" horiz-adv-x="521" 
d="M388 -366c-18 -9 -68 -21 -126 -21c-139 0 -230 70 -230 197c0 118 78 183 140 216v3h-14v1336h206v-1350c-91 -31 -170 -82 -170 -167c0 -66 47 -99 115 -99c22 0 57 3 79 9v-124z" />
    <glyph glyph-name="J" unicode="J" horiz-adv-x="997" 
d="M25 338h200c4 -106 73 -181 202 -181c145 0 212 87 212 262v946h207v-948c0 -288 -153 -445 -418 -445c-252 0 -403 158 -403 366z" />
    <glyph glyph-name="Jcircumflex" unicode="&#x134;" horiz-adv-x="997" 
d="M25 338h200c4 -106 73 -181 202 -181c145 0 212 87 212 262v946h207v-948c0 -288 -153 -445 -418 -445c-252 0 -403 158 -403 366zM462 1510l217 291h124l217 -291h-160l-117 172h-4l-117 -172h-160z" />
    <glyph glyph-name="K" unicode="K" horiz-adv-x="1209" 
d="M1177 1365l-502 -583l527 -782h-256l-423 641l-159 -175v-466h-206v1365h206v-644h9l568 644h236z" />
    <glyph glyph-name="Kacute" unicode="&#x1e30;" horiz-adv-x="1209" 
d="M648 1510h-149l191 279h193zM1177 1365l-502 -583l527 -782h-256l-423 641l-159 -175v-466h-206v1365h206v-644h9l568 644h236z" />
    <glyph glyph-name="Kcaron" unicode="&#x1e8;" horiz-adv-x="1209" 
d="M1177 1365l-502 -583l527 -782h-256l-423 641l-159 -175v-466h-206v1365h206v-644h9l568 644h236zM305 1801h160l117 -172h4l117 172h160l-217 -291h-124z" />
    <glyph glyph-name="Kdotbelow" unicode="&#x1e32;" horiz-adv-x="1209" 
d="M506 -268c0 59 45 103 100 103c56 0 100 -44 100 -103c0 -57 -44 -101 -100 -101c-55 0 -100 44 -100 101zM1177 1365l-502 -583l527 -782h-256l-423 641l-159 -175v-466h-206v1365h206v-644h9l568 644h236z" />
    <glyph glyph-name="Klinebelow" unicode="&#x1e34;" horiz-adv-x="1209" 
d="M1177 1365l-502 -583l527 -782h-256l-423 641l-159 -175v-466h-206v1365h206v-644h9l568 644h236zM883 -340h-558v128h558v-128z" />
    <glyph glyph-name="Kcommaaccent" unicode="&#x136;" horiz-adv-x="1209" 
d="M1177 1365l-502 -583l527 -782h-256l-423 641l-159 -175v-466h-206v1365h206v-644h9l568 644h236zM590 -489h-149l85 335h178z" />
    <glyph glyph-name="L" unicode="L" horiz-adv-x="999" 
d="M976 181v-181h-818v1365h206v-1184h612z" />
    <glyph glyph-name="Lacute" unicode="&#x139;" horiz-adv-x="999" 
d="M323 1510h-149l191 279h193zM976 181v-181h-818v1365h206v-1184h612z" />
    <glyph glyph-name="Lcircumflexbelow" unicode="&#x1e3c;" horiz-adv-x="999" 
d="M976 181v-181h-818v1365h206v-1184h612zM230 -400l212 287h130l212 -287h-159l-116 178h-4l-116 -178h-159z" />
    <glyph glyph-name="Ldotbelow" unicode="&#x1e36;" horiz-adv-x="999" 
d="M409 -268c0 59 45 103 100 103c56 0 100 -44 100 -103c0 -57 -44 -101 -100 -101c-55 0 -100 44 -100 101zM976 181v-181h-818v1365h206v-1184h612z" />
    <glyph glyph-name="Ldotbelowmacron" unicode="&#x1e38;" horiz-adv-x="999" 
d="M409 -268c0 59 45 103 100 103c56 0 100 -44 100 -103c0 -57 -44 -101 -100 -101c-55 0 -100 44 -100 101zM976 181v-181h-818v1365h206v-1184h612zM535 1518h-552v116h552v-116z" />
    <glyph glyph-name="Llinebelow" unicode="&#x1e3a;" horiz-adv-x="999" 
d="M786 -340h-558v128h558v-128zM976 181v-181h-818v1365h206v-1184h612z" />
    <glyph glyph-name="Lcommaaccent" unicode="&#x13b;" horiz-adv-x="999" 
d="M493 -489h-149l85 335h178zM976 181v-181h-818v1365h206v-1184h612z" />
    <glyph glyph-name="Lcaron" unicode="&#x13d;" horiz-adv-x="999" 
d="M588 1437h183l-50 -488h-133v488zM976 181v-181h-818v1365h206v-1184h612z" />
    <glyph glyph-name="Lslash" unicode="&#x141;" horiz-adv-x="1007" 
d="M984 0h-818v531l-127 -74v189l127 74v645h206v-528l358 210v-192l-358 -208v-466h612v-181z" />
    <glyph glyph-name="M" unicode="M" horiz-adv-x="1600" 
d="M347 0h-185v1365h204l432 -998h5l431 998h204v-1365h-186v963h-8l-366 -830h-157l-367 830h-7v-963z" />
    <glyph glyph-name="Macute" unicode="&#x1e3e;" horiz-adv-x="1600" 
d="M863 1510h-149l191 279h193zM347 0h-185v1365h204l432 -998h5l431 998h204v-1365h-186v963h-8l-366 -830h-157l-367 830h-7v-963z" />
    <glyph glyph-name="Mdotaccent" unicode="&#x1e40;" horiz-adv-x="1600" 
d="M683 1642c0 63 52 114 116 114s116 -51 116 -114c0 -64 -52 -115 -116 -115s-116 51 -116 115zM347 0h-185v1365h204l432 -998h5l431 998h204v-1365h-186v963h-8l-366 -830h-157l-367 830h-7v-963z" />
    <glyph glyph-name="Mdotbelow" unicode="&#x1e42;" horiz-adv-x="1600" 
d="M699 -268c0 59 45 103 100 103c56 0 100 -44 100 -103c0 -57 -44 -101 -100 -101c-55 0 -100 44 -100 101zM347 0h-185v1365h204l432 -998h5l431 998h204v-1365h-186v963h-8l-366 -830h-157l-367 830h-7v-963z" />
    <glyph glyph-name="N" unicode="N" horiz-adv-x="1368" 
d="M352 0h-194v1365h187l664 -1014h6v1014h195v-1365h-187l-665 1016h-6v-1016z" />
    <glyph glyph-name="Ngrave" unicode="&#x1f8;" horiz-adv-x="1368" 
d="M768 1510h-149l-235 279h193zM352 0h-194v1365h187l664 -1014h6v1014h195v-1365h-187l-665 1016h-6v-1016z" />
    <glyph glyph-name="Nacute" unicode="&#x143;" horiz-adv-x="1368" 
d="M747 1510h-149l191 279h193zM352 0h-194v1365h187l664 -1014h6v1014h195v-1365h-187l-665 1016h-6v-1016z" />
    <glyph glyph-name="Ntilde" unicode="&#xd1;" horiz-adv-x="1368" 
d="M791 1480c-122 0 -155 113 -217 113c-46 0 -57 -57 -58 -94h-115c0 102 54 202 170 202c122 0 159 -113 219 -113c42 0 59 53 62 96h115c0 -97 -59 -204 -176 -204zM352 0h-194v1365h187l664 -1014h6v1014h195v-1365h-187l-665 1016h-6v-1016z" />
    <glyph glyph-name="Ndotbelow" unicode="&#x1e46;" horiz-adv-x="1368" 
d="M585 -268c0 59 45 103 100 103c56 0 100 -44 100 -103c0 -57 -44 -101 -100 -101c-55 0 -100 44 -100 101zM352 0h-194v1365h187l664 -1014h6v1014h195v-1365h-187l-665 1016h-6v-1016z" />
    <glyph glyph-name="Ndotaccent" unicode="&#x1e44;" horiz-adv-x="1368" 
d="M567 1642c0 63 52 114 116 114s116 -51 116 -114c0 -64 -52 -115 -116 -115s-116 51 -116 115zM352 0h-194v1365h187l664 -1014h6v1014h195v-1365h-187l-665 1016h-6v-1016z" />
    <glyph glyph-name="Ncaron" unicode="&#x147;" horiz-adv-x="1368" 
d="M404 1801h160l117 -172h4l117 172h160l-217 -291h-124zM352 0h-194v1365h187l664 -1014h6v1014h195v-1365h-187l-665 1016h-6v-1016z" />
    <glyph glyph-name="Ncircumflexbelow" unicode="&#x1e4a;" horiz-adv-x="1368" 
d="M352 0h-194v1365h187l664 -1014h6v1014h195v-1365h-187l-665 1016h-6v-1016zM406 -400l212 287h130l212 -287h-159l-116 178h-4l-116 -178h-159z" />
    <glyph glyph-name="Nlinebelow" unicode="&#x1e48;" horiz-adv-x="1368" 
d="M962 -340h-558v128h558v-128zM352 0h-194v1365h187l664 -1014h6v1014h195v-1365h-187l-665 1016h-6v-1016z" />
    <glyph glyph-name="Ncommaaccent" unicode="&#x145;" horiz-adv-x="1368" 
d="M669 -489h-149l85 335h178zM352 0h-194v1365h187l664 -1014h6v1014h195v-1365h-187l-665 1016h-6v-1016z" />
    <glyph glyph-name="O" unicode="O" horiz-adv-x="1326" 
d="M311 774v-194c0 -292 152 -429 352 -429c201 0 352 137 352 429v194c0 291 -151 440 -352 440c-200 0 -352 -149 -352 -440zM103 580v192c0 388 220 621 562 621s558 -233 558 -621v-192c0 -386 -219 -608 -562 -608c-342 0 -558 222 -558 608z" />
    <glyph glyph-name="Odieresis" unicode="&#xd6;" horiz-adv-x="1326" 
d="M501 1489c-52 0 -92 41 -92 95c0 56 40 97 92 97c54 0 95 -41 95 -97c0 -54 -41 -95 -95 -95zM821 1489c-52 0 -93 41 -93 95c0 56 41 97 93 97c54 0 94 -41 94 -97c0 -54 -40 -95 -94 -95zM311 774v-194c0 -292 152 -429 352 -429c201 0 352 137 352 429v194
c0 291 -151 440 -352 440c-200 0 -352 -149 -352 -440zM103 580v192c0 388 220 621 562 621s558 -233 558 -621v-192c0 -386 -219 -608 -562 -608c-342 0 -558 222 -558 608z" />
    <glyph glyph-name="Oslash" unicode="&#xd8;" horiz-adv-x="1324" 
d="M660 -28c-156 0 -286 47 -380 136l-100 -124l-105 86l116 145c-57 96 -88 219 -88 365v192c0 388 218 621 560 621c151 0 279 -47 373 -133l95 118l109 -79l-116 -144c63 -100 97 -229 97 -383v-192c0 -386 -219 -608 -561 -608zM308 579c0 -72 10 -135 28 -186l576 714
c-63 72 -151 109 -251 109c-202 0 -353 -149 -353 -442v-195zM661 148c203 0 354 137 354 431v195c0 79 -12 148 -34 204l-578 -718c63 -75 154 -112 258 -112z" />
    <glyph glyph-name="Otilde" unicode="&#xd5;" horiz-adv-x="1326" 
d="M311 774v-194c0 -292 152 -429 352 -429c201 0 352 137 352 429v194c0 291 -151 440 -352 440c-200 0 -352 -149 -352 -440zM103 580v192c0 388 220 621 562 621s558 -233 558 -621v-192c0 -386 -219 -608 -562 -608c-342 0 -558 222 -558 608zM769 1480
c-122 0 -155 113 -217 113c-46 0 -57 -57 -58 -94h-115c0 102 54 202 170 202c122 0 159 -113 219 -113c42 0 59 53 62 96h115c0 -97 -59 -204 -176 -204z" />
    <glyph glyph-name="Oacute" unicode="&#xd3;" horiz-adv-x="1326" 
d="M725 1510h-149l191 279h193zM311 774v-194c0 -292 152 -429 352 -429c201 0 352 137 352 429v194c0 291 -151 440 -352 440c-200 0 -352 -149 -352 -440zM103 580v192c0 388 220 621 562 621s558 -233 558 -621v-192c0 -386 -219 -608 -562 -608
c-342 0 -558 222 -558 608z" />
    <glyph glyph-name="Ocircumflex" unicode="&#xd4;" horiz-adv-x="1326" 
d="M382 1510l217 291h124l217 -291h-160l-117 172h-4l-117 -172h-160zM311 774v-194c0 -292 152 -429 352 -429c201 0 352 137 352 429v194c0 291 -151 440 -352 440c-200 0 -352 -149 -352 -440zM103 580v192c0 388 220 621 562 621s558 -233 558 -621v-192
c0 -386 -219 -608 -562 -608c-342 0 -558 222 -558 608z" />
    <glyph glyph-name="Ograve" unicode="&#xd2;" horiz-adv-x="1326" 
d="M746 1510h-149l-235 279h193zM311 774v-194c0 -292 152 -429 352 -429c201 0 352 137 352 429v194c0 291 -151 440 -352 440c-200 0 -352 -149 -352 -440zM103 580v192c0 388 220 621 562 621s558 -233 558 -621v-192c0 -386 -219 -608 -562 -608
c-342 0 -558 222 -558 608z" />
    <glyph glyph-name="Ocircumflexhookabove" unicode="&#x1ed4;" horiz-adv-x="1326" 
d="M325 1510l277 213h118l277 -213h-185l-148 113h-6l-148 -113h-185zM796 1845v84c24 8 50 12 80 12c94 0 165 -49 165 -137c0 -71 -52 -119 -113 -139l-60 78c42 11 63 28 63 55c0 35 -42 55 -74 55c-26 0 -42 -3 -61 -8zM311 774v-194c0 -292 152 -429 352 -429
c201 0 352 137 352 429v194c0 291 -151 440 -352 440c-200 0 -352 -149 -352 -440zM103 580v192c0 388 220 621 562 621s558 -233 558 -621v-192c0 -386 -219 -608 -562 -608c-342 0 -558 222 -558 608z" />
    <glyph glyph-name="Ocircumflexgrave" unicode="&#x1ed2;" horiz-adv-x="1326" 
d="M325 1510l277 213h118l277 -213h-185l-148 113h-6l-148 -113h-185zM1116 1709h-136l-262 230h184zM311 774v-194c0 -292 152 -429 352 -429c201 0 352 137 352 429v194c0 291 -151 440 -352 440c-200 0 -352 -149 -352 -440zM103 580v192c0 388 220 621 562 621
s558 -233 558 -621v-192c0 -386 -219 -608 -562 -608c-342 0 -558 222 -558 608z" />
    <glyph glyph-name="Odotbelow" unicode="&#x1ecc;" horiz-adv-x="1326" 
d="M562 -268c0 59 45 103 100 103c56 0 100 -44 100 -103c0 -57 -44 -101 -100 -101c-55 0 -100 44 -100 101zM311 774v-194c0 -292 152 -429 352 -429c201 0 352 137 352 429v194c0 291 -151 440 -352 440c-200 0 -352 -149 -352 -440zM103 580v192c0 388 220 621 562 621
s558 -233 558 -621v-192c0 -386 -219 -608 -562 -608c-342 0 -558 222 -558 608z" />
    <glyph glyph-name="Odblgrave" unicode="&#x20c;" horiz-adv-x="1326" 
d="M604 1510h-148l-245 266h191zM912 1510h-147l-246 266h192zM311 774v-194c0 -292 152 -429 352 -429c201 0 352 137 352 429v194c0 291 -151 440 -352 440c-200 0 -352 -149 -352 -440zM103 580v192c0 388 220 621 562 621s558 -233 558 -621v-192
c0 -386 -219 -608 -562 -608c-342 0 -558 222 -558 608z" />
    <glyph glyph-name="Otildeacute" unicode="&#x1e4c;" horiz-adv-x="1326" 
d="M311 774v-194c0 -292 152 -429 352 -429c201 0 352 137 352 429v194c0 291 -151 440 -352 440c-200 0 -352 -149 -352 -440zM103 580v192c0 388 220 621 562 621s558 -233 558 -621v-192c0 -386 -219 -608 -562 -608c-342 0 -558 222 -558 608zM560 1738l234 195h204
l-274 -195h-164zM769 1480c-122 0 -155 113 -217 113c-46 0 -57 -57 -58 -94h-115c0 102 54 202 170 202c122 0 159 -113 219 -113c42 0 59 53 62 96h115c0 -97 -59 -204 -176 -204z" />
    <glyph glyph-name="Omacronacute" unicode="&#x1e52;" horiz-adv-x="1326" 
d="M567 1738l233 195h208l-275 -195h-166zM937 1518h-552v116h552v-116zM311 774v-194c0 -292 152 -429 352 -429c201 0 352 137 352 429v194c0 291 -151 440 -352 440c-200 0 -352 -149 -352 -440zM103 580v192c0 388 220 621 562 621s558 -233 558 -621v-192
c0 -386 -219 -608 -562 -608c-342 0 -558 222 -558 608z" />
    <glyph glyph-name="Ocircumflextilde" unicode="&#x1ed6;" horiz-adv-x="1326" 
d="M334 1510l271 202h112l271 -202h-180l-145 110h-4l-145 -110h-180zM512 1783h-113c0 89 63 161 156 161s130 -81 187 -81c36 0 58 25 61 62h114c0 -84 -72 -169 -172 -169c-89 0 -122 84 -179 84c-33 0 -53 -25 -54 -57zM311 774v-194c0 -292 152 -429 352 -429
c201 0 352 137 352 429v194c0 291 -151 440 -352 440c-200 0 -352 -149 -352 -440zM103 580v192c0 388 220 621 562 621s558 -233 558 -621v-192c0 -386 -219 -608 -562 -608c-342 0 -558 222 -558 608z" />
    <glyph glyph-name="Odotaccentmacron" unicode="&#x230;" horiz-adv-x="1326" 
d="M550 1577c0 61 50 110 111 110s111 -49 111 -110c0 -60 -50 -109 -111 -109s-111 49 -111 109zM937 1791h-552v116h552v-116zM311 774v-194c0 -292 152 -429 352 -429c201 0 352 137 352 429v194c0 291 -151 440 -352 440c-200 0 -352 -149 -352 -440zM103 580v192
c0 388 220 621 562 621s558 -233 558 -621v-192c0 -386 -219 -608 -562 -608c-342 0 -558 222 -558 608z" />
    <glyph glyph-name="Omacrongrave" unicode="&#x1e50;" horiz-adv-x="1326" 
d="M755 1738h-166l-275 195h208zM937 1518h-552v116h552v-116zM311 774v-194c0 -292 152 -429 352 -429c201 0 352 137 352 429v194c0 291 -151 440 -352 440c-200 0 -352 -149 -352 -440zM103 580v192c0 388 220 621 562 621s558 -233 558 -621v-192
c0 -386 -219 -608 -562 -608c-342 0 -558 222 -558 608z" />
    <glyph glyph-name="Ocaron" unicode="&#x1d1;" horiz-adv-x="1326" 
d="M382 1801h160l117 -172h4l117 172h160l-217 -291h-124zM311 774v-194c0 -292 152 -429 352 -429c201 0 352 137 352 429v194c0 291 -151 440 -352 440c-200 0 -352 -149 -352 -440zM103 580v192c0 388 220 621 562 621s558 -233 558 -621v-192
c0 -386 -219 -608 -562 -608c-342 0 -558 222 -558 608z" />
    <glyph glyph-name="Oslashacute" unicode="&#x1fe;" horiz-adv-x="1324" 
d="M660 -28c-156 0 -286 47 -380 136l-100 -124l-105 86l116 145c-57 96 -88 219 -88 365v192c0 388 218 621 560 621c151 0 279 -47 373 -133l95 118l109 -79l-116 -144c63 -100 97 -229 97 -383v-192c0 -386 -219 -608 -561 -608zM308 579c0 -72 10 -135 28 -186l576 714
c-63 72 -151 109 -251 109c-202 0 -353 -149 -353 -442v-195zM661 148c203 0 354 137 354 431v195c0 79 -12 148 -34 204l-578 -718c63 -75 154 -112 258 -112zM725 1510h-149l191 279h193z" />
    <glyph glyph-name="Ohungarumlaut" unicode="&#x150;" horiz-adv-x="1326" 
d="M411 1510l201 266h191l-245 -266h-147zM719 1510l201 266h192l-245 -266h-148zM311 774v-194c0 -292 152 -429 352 -429c201 0 352 137 352 429v194c0 291 -151 440 -352 440c-200 0 -352 -149 -352 -440zM103 580v192c0 388 220 621 562 621s558 -233 558 -621v-192
c0 -386 -219 -608 -562 -608c-342 0 -558 222 -558 608z" />
    <glyph glyph-name="Obreve" unicode="&#x14e;" horiz-adv-x="1326" 
d="M311 774v-194c0 -292 152 -429 352 -429c201 0 352 137 352 429v194c0 291 -151 440 -352 440c-200 0 -352 -149 -352 -440zM103 580v192c0 388 220 621 562 621s558 -233 558 -621v-192c0 -386 -219 -608 -562 -608c-342 0 -558 222 -558 608zM370 1762h127
c0 -83 50 -155 164 -155s164 72 164 155h126c0 -129 -87 -271 -290 -271s-292 142 -291 271z" />
    <glyph glyph-name="Oinvertedbreve" unicode="&#x20e;" horiz-adv-x="1326" 
d="M661 1665c-114 0 -164 -72 -164 -155h-127c-1 130 88 272 291 272s290 -142 290 -272h-126c0 83 -50 155 -164 155zM311 774v-194c0 -292 152 -429 352 -429c201 0 352 137 352 429v194c0 291 -151 440 -352 440c-200 0 -352 -149 -352 -440zM103 580v192
c0 388 220 621 562 621s558 -233 558 -621v-192c0 -386 -219 -608 -562 -608c-342 0 -558 222 -558 608z" />
    <glyph glyph-name="Ohookabove" unicode="&#x1ece;" horiz-adv-x="1326" 
d="M528 1656v98c17 6 57 16 103 16c116 0 204 -54 204 -155s-96 -144 -145 -163l-69 83c39 10 88 35 88 73c0 46 -47 58 -90 58c-41 0 -70 -5 -91 -10zM311 774v-194c0 -292 152 -429 352 -429c201 0 352 137 352 429v194c0 291 -151 440 -352 440
c-200 0 -352 -149 -352 -440zM103 580v192c0 388 220 621 562 621s558 -233 558 -621v-192c0 -386 -219 -608 -562 -608c-342 0 -558 222 -558 608z" />
    <glyph glyph-name="Odieresismacron" unicode="&#x22a;" horiz-adv-x="1326" 
d="M311 774v-194c0 -292 152 -429 352 -429c201 0 352 137 352 429v194c0 291 -151 440 -352 440c-200 0 -352 -149 -352 -440zM103 580v192c0 388 220 621 562 621s558 -233 558 -621v-192c0 -386 -219 -608 -562 -608c-342 0 -558 222 -558 608zM500 1489
c-52 0 -92 41 -92 95c0 56 40 97 92 97c54 0 95 -41 95 -97c0 -54 -41 -95 -95 -95zM820 1489c-52 0 -93 41 -93 95c0 56 41 97 93 97c54 0 94 -41 94 -97c0 -54 -40 -95 -94 -95zM937 1791h-552v116h552v-116z" />
    <glyph glyph-name="Otildemacron" unicode="&#x22c;" horiz-adv-x="1326" 
d="M769 1480c-122 0 -155 113 -217 113c-46 0 -57 -57 -58 -94h-115c0 102 54 202 170 202c122 0 159 -113 219 -113c42 0 59 53 62 96h115c0 -97 -59 -204 -176 -204zM937 1791h-552v116h552v-116zM311 774v-194c0 -292 152 -429 352 -429c201 0 352 137 352 429v194
c0 291 -151 440 -352 440c-200 0 -352 -149 -352 -440zM103 580v192c0 388 220 621 562 621s558 -233 558 -621v-192c0 -386 -219 -608 -562 -608c-342 0 -558 222 -558 608z" />
    <glyph glyph-name="Odotaccent" unicode="&#x22e;" horiz-adv-x="1326" 
d="M545 1642c0 63 52 114 116 114s116 -51 116 -114c0 -64 -52 -115 -116 -115s-116 51 -116 115zM311 774v-194c0 -292 152 -429 352 -429c201 0 352 137 352 429v194c0 291 -151 440 -352 440c-200 0 -352 -149 -352 -440zM103 580v192c0 388 220 621 562 621
s558 -233 558 -621v-192c0 -386 -219 -608 -562 -608c-342 0 -558 222 -558 608z" />
    <glyph glyph-name="Ocircumflexdotbelow" unicode="&#x1ed8;" horiz-adv-x="1326" 
d="M563 -268c0 59 45 103 100 103c56 0 100 -44 100 -103c0 -57 -44 -101 -100 -101c-55 0 -100 44 -100 101zM382 1510l217 291h124l217 -291h-160l-117 172h-4l-117 -172h-160zM311 774v-194c0 -292 152 -429 352 -429c201 0 352 137 352 429v194c0 291 -151 440 -352 440
c-200 0 -352 -149 -352 -440zM103 580v192c0 388 220 621 562 621s558 -233 558 -621v-192c0 -386 -219 -608 -562 -608c-342 0 -558 222 -558 608z" />
    <glyph glyph-name="Ocircumflexacute" unicode="&#x1ed0;" horiz-adv-x="1326" 
d="M325 1510l277 213h118l277 -213h-185l-148 113h-6l-148 -113h-185zM860 1709l197 230h184l-245 -230h-136zM311 774v-194c0 -292 152 -429 352 -429c201 0 352 137 352 429v194c0 291 -151 440 -352 440c-200 0 -352 -149 -352 -440zM103 580v192c0 388 220 621 562 621
s558 -233 558 -621v-192c0 -386 -219 -608 -562 -608c-342 0 -558 222 -558 608z" />
    <glyph glyph-name="Otildedieresis" unicode="&#x1e4e;" horiz-adv-x="1326" 
d="M500 1728c-52 0 -92 41 -92 95c0 56 40 97 92 97c54 0 95 -41 95 -97c0 -54 -41 -95 -95 -95zM820 1728c-52 0 -93 41 -93 95c0 56 41 97 93 97c54 0 94 -41 94 -97c0 -54 -40 -95 -94 -95zM769 1467c-122 0 -155 113 -217 113c-46 0 -57 -57 -58 -94h-115
c0 102 54 202 170 202c122 0 159 -113 219 -113c42 0 59 53 62 96h115c0 -97 -59 -204 -176 -204zM311 774v-194c0 -292 152 -429 352 -429c201 0 352 137 352 429v194c0 291 -151 440 -352 440c-200 0 -352 -149 -352 -440zM103 580v192c0 388 220 621 562 621
s558 -233 558 -621v-192c0 -386 -219 -608 -562 -608c-342 0 -558 222 -558 608z" />
    <glyph glyph-name="Omacron" unicode="&#x14c;" horiz-adv-x="1326" 
d="M311 774v-194c0 -292 152 -429 352 -429c201 0 352 137 352 429v194c0 291 -151 440 -352 440c-200 0 -352 -149 -352 -440zM103 580v192c0 388 220 621 562 621s558 -233 558 -621v-192c0 -386 -219 -608 -562 -608c-342 0 -558 222 -558 608zM939 1518h-552v116h552
v-116z" />
    <glyph glyph-name="Oogonek" unicode="&#x1ea;" horiz-adv-x="1326" 
d="M311 774v-194c0 -292 151 -429 351 -429c201 0 353 137 353 429v194c0 291 -152 440 -353 440c-200 0 -351 -149 -351 -440zM640 -27c-314 0 -537 226 -537 607v192c0 388 219 621 561 621s559 -233 559 -621v-192c0 -256 -91 -391 -177 -488
c-80 -91 -160 -146 -160 -236c0 -71 50 -100 119 -100c22 0 51 3 74 9l-1 -133c-18 -5 -55 -19 -121 -19c-125 1 -231 66 -231 197c0 76 35 145 102 198l-5 10c-61 -35 -120 -45 -183 -45z" />
    <glyph glyph-name="Oogonekmacron" unicode="&#x1ec;" horiz-adv-x="1324" 
d="M311 774v-194c0 -292 151 -429 351 -429c201 0 353 137 353 429v194c0 291 -152 440 -353 440c-200 0 -351 -149 -351 -440zM640 -27c-314 0 -537 226 -537 607v192c0 388 219 621 561 621s559 -233 559 -621v-192c0 -256 -91 -391 -177 -488
c-80 -91 -160 -146 -160 -236c0 -71 50 -100 119 -100c22 0 51 3 74 9l-1 -133c-18 -5 -55 -19 -121 -19c-125 1 -231 66 -231 197c0 76 35 145 102 198l-5 10c-61 -35 -120 -45 -183 -45zM937 1518h-552v116h552v-116z" />
    <glyph glyph-name="Ohorn" unicode="&#x1a0;" horiz-adv-x="1335" 
d="M1221 580c0 -386 -219 -608 -561 -608c-343 0 -557 222 -557 608v192c0 388 218 621 560 621c194 0 282 -87 405 -87c111 0 136 65 136 153v99h172v-109c0 -180 -92 -281 -258 -281l-3 -6c53 -77 106 -230 106 -390v-192zM310 774v-195c0 -292 151 -429 351 -429
c201 0 352 137 352 429v195c0 291 -151 440 -352 440c-200 0 -351 -149 -351 -440z" />
    <glyph glyph-name="Ohorndotbelow" unicode="&#x1ee2;" horiz-adv-x="1335" 
d="M563 -268c0 59 45 103 100 103c56 0 100 -44 100 -103c0 -57 -44 -101 -100 -101c-55 0 -100 44 -100 101zM1221 580c0 -386 -219 -608 -561 -608c-343 0 -557 222 -557 608v192c0 388 218 621 560 621c194 0 282 -87 405 -87c111 0 136 65 136 153v99h172v-109
c0 -180 -92 -281 -258 -281l-3 -6c53 -77 106 -230 106 -390v-192zM310 774v-195c0 -292 151 -429 351 -429c201 0 352 137 352 429v195c0 291 -151 440 -352 440c-200 0 -351 -149 -351 -440z" />
    <glyph glyph-name="Ohornhookabove" unicode="&#x1ede;" horiz-adv-x="1335" 
d="M528 1656v98c17 6 57 16 103 16c116 0 204 -54 204 -155s-96 -144 -145 -163l-69 83c39 10 88 35 88 73c0 46 -47 58 -90 58c-41 0 -70 -5 -91 -10zM1221 580c0 -386 -219 -608 -561 -608c-343 0 -557 222 -557 608v192c0 388 218 621 560 621c194 0 282 -87 405 -87
c111 0 136 65 136 153v99h172v-109c0 -180 -92 -281 -258 -281l-3 -6c53 -77 106 -230 106 -390v-192zM310 774v-195c0 -292 151 -429 351 -429c201 0 352 137 352 429v195c0 291 -151 440 -352 440c-200 0 -351 -149 -351 -440z" />
    <glyph glyph-name="Ohorntilde" unicode="&#x1ee0;" horiz-adv-x="1335" 
d="M1221 580c0 -386 -219 -608 -561 -608c-343 0 -557 222 -557 608v192c0 388 218 621 560 621c194 0 282 -87 405 -87c111 0 136 65 136 153v99h172v-109c0 -180 -92 -281 -258 -281l-3 -6c53 -77 106 -230 106 -390v-192zM310 774v-195c0 -292 151 -429 351 -429
c201 0 352 137 352 429v195c0 291 -151 440 -352 440c-200 0 -351 -149 -351 -440zM769 1480c-122 0 -155 113 -217 113c-46 0 -57 -57 -58 -94h-115c0 102 54 202 170 202c122 0 159 -113 219 -113c42 0 59 53 62 96h115c0 -97 -59 -204 -176 -204z" />
    <glyph glyph-name="Ohorngrave" unicode="&#x1edc;" horiz-adv-x="1335" 
d="M746 1510h-149l-235 279h193zM1221 580c0 -386 -219 -608 -561 -608c-343 0 -557 222 -557 608v192c0 388 218 621 560 621c194 0 282 -87 405 -87c111 0 136 65 136 153v99h172v-109c0 -180 -92 -281 -258 -281l-3 -6c53 -77 106 -230 106 -390v-192zM310 774v-195
c0 -292 151 -429 351 -429c201 0 352 137 352 429v195c0 291 -151 440 -352 440c-200 0 -351 -149 -351 -440z" />
    <glyph glyph-name="Ohornacute" unicode="&#x1eda;" horiz-adv-x="1335" 
d="M725 1510h-149l191 279h193zM1221 580c0 -386 -219 -608 -561 -608c-343 0 -557 222 -557 608v192c0 388 218 621 560 621c194 0 282 -87 405 -87c111 0 136 65 136 153v99h172v-109c0 -180 -92 -281 -258 -281l-3 -6c53 -77 106 -230 106 -390v-192zM310 774v-195
c0 -292 151 -429 351 -429c201 0 352 137 352 429v195c0 291 -151 440 -352 440c-200 0 -351 -149 -351 -440z" />
    <glyph glyph-name="P" unicode="P" horiz-adv-x="1165" 
d="M158 1365h513c271 0 443 -180 443 -435c0 -257 -173 -433 -444 -433h-307v-497h-205v1365zM363 1190v-520h192c219 0 348 49 348 260c0 166 -95 260 -258 260h-282z" />
    <glyph glyph-name="Pdotaccent" unicode="&#x1e56;" horiz-adv-x="1165" 
d="M158 1365h513c271 0 443 -180 443 -435c0 -257 -173 -433 -444 -433h-307v-497h-205v1365zM363 1190v-520h192c219 0 348 49 348 260c0 166 -95 260 -258 260h-282zM441 1642c0 63 52 114 116 114s116 -51 116 -114c0 -64 -52 -115 -116 -115s-116 51 -116 115z" />
    <glyph glyph-name="Pacute" unicode="&#x1e54;" horiz-adv-x="1165" 
d="M621 1510h-149l191 279h193zM158 1365h513c271 0 443 -180 443 -435c0 -257 -173 -433 -444 -433h-307v-497h-205v1365zM363 1190v-520h192c219 0 348 49 348 260c0 166 -95 260 -258 260h-282z" />
    <glyph glyph-name="Q" unicode="Q" horiz-adv-x="1327" 
d="M104 587v190c0 387 219 616 558 616c340 0 560 -230 560 -616v-190c0 -210 -65 -372 -178 -477l183 -258h-220l-118 164c-66 -28 -143 -44 -227 -44c-339 0 -558 228 -558 615zM308 777v-191c0 -296 152 -440 352 -442c45 0 86 8 123 24l-175 243h214l104 -139
c57 71 92 175 92 314v191c0 293 -153 437 -356 437c-201 0 -354 -144 -354 -437z" />
    <glyph glyph-name="R" unicode="R" horiz-adv-x="1228" 
d="M668 1365c310 0 452 -192 452 -415c0 -224 -138 -339 -252 -381l277 -569h-233l-248 532h-302v-532h-204v1365h510zM362 701h272c178 0 273 86 273 240c0 166 -107 251 -267 251h-278v-491z" />
    <glyph glyph-name="Rcaron" unicode="&#x158;" horiz-adv-x="1228" 
d="M668 1365c310 0 452 -192 452 -415c0 -224 -138 -339 -252 -381l277 -569h-233l-248 532h-302v-532h-204v1365h510zM362 701h272c178 0 273 86 273 240c0 166 -107 251 -267 251h-278v-491zM302 1801h160l117 -172h4l117 172h160l-217 -291h-124z" />
    <glyph glyph-name="Rlinebelow" unicode="&#x1e5e;" horiz-adv-x="1228" 
d="M668 1365c310 0 452 -192 452 -415c0 -224 -138 -339 -252 -381l277 -569h-233l-248 532h-302v-532h-204v1365h510zM362 701h272c178 0 273 86 273 240c0 166 -107 251 -267 251h-278v-491zM860 -340h-558v128h558v-128z" />
    <glyph glyph-name="Rdotbelowmacron" unicode="&#x1e5c;" horiz-adv-x="1228" 
d="M483 -268c0 59 45 103 100 103c56 0 100 -44 100 -103c0 -57 -44 -101 -100 -101c-55 0 -100 44 -100 101zM668 1365c310 0 452 -192 452 -415c0 -224 -138 -339 -252 -381l277 -569h-233l-248 532h-302v-532h-204v1365h510zM362 701h272c178 0 273 86 273 240
c0 166 -107 251 -267 251h-278v-491zM857 1518h-552v116h552v-116z" />
    <glyph glyph-name="Rdblgrave" unicode="&#x210;" horiz-adv-x="1228" 
d="M524 1510h-148l-245 266h191zM832 1510h-147l-246 266h192zM668 1365c310 0 452 -192 452 -415c0 -224 -138 -339 -252 -381l277 -569h-233l-248 532h-302v-532h-204v1365h510zM362 701h272c178 0 273 86 273 240c0 166 -107 251 -267 251h-278v-491z" />
    <glyph glyph-name="Rinvertedbreve" unicode="&#x212;" horiz-adv-x="1228" 
d="M668 1365c310 0 452 -192 452 -415c0 -224 -138 -339 -252 -381l277 -569h-233l-248 532h-302v-532h-204v1365h510zM362 701h272c178 0 273 86 273 240c0 166 -107 251 -267 251h-278v-491zM581 1665c-114 0 -164 -72 -164 -155h-127c-1 130 88 272 291 272
s290 -142 290 -272h-126c0 83 -50 155 -164 155z" />
    <glyph glyph-name="Racute" unicode="&#x154;" horiz-adv-x="1228" 
d="M645 1510h-149l191 279h193zM668 1365c310 0 452 -192 452 -415c0 -224 -138 -339 -252 -381l277 -569h-233l-248 532h-302v-532h-204v1365h510zM362 701h272c178 0 273 86 273 240c0 166 -107 251 -267 251h-278v-491z" />
    <glyph glyph-name="Rdotbelow" unicode="&#x1e5a;" horiz-adv-x="1228" 
d="M483 -268c0 59 45 103 100 103c56 0 100 -44 100 -103c0 -57 -44 -101 -100 -101c-55 0 -100 44 -100 101zM668 1365c310 0 452 -192 452 -415c0 -224 -138 -339 -252 -381l277 -569h-233l-248 532h-302v-532h-204v1365h510zM362 701h272c178 0 273 86 273 240
c0 166 -107 251 -267 251h-278v-491z" />
    <glyph glyph-name="Rdotaccent" unicode="&#x1e58;" horiz-adv-x="1228" 
d="M465 1642c0 63 52 114 116 114s116 -51 116 -114c0 -64 -52 -115 -116 -115s-116 51 -116 115zM668 1365c310 0 452 -192 452 -415c0 -224 -138 -339 -252 -381l277 -569h-233l-248 532h-302v-532h-204v1365h510zM362 701h272c178 0 273 86 273 240
c0 166 -107 251 -267 251h-278v-491z" />
    <glyph glyph-name="Rcommaaccent" unicode="&#x156;" horiz-adv-x="1228" 
d="M668 1365c310 0 452 -192 452 -415c0 -224 -138 -339 -252 -381l277 -569h-233l-248 532h-302v-532h-204v1365h510zM362 701h272c178 0 273 86 273 240c0 166 -107 251 -267 251h-278v-491zM567 -489h-149l85 335h178z" />
    <glyph glyph-name="S" unicode="S" horiz-adv-x="1172" 
d="M60 375h203c12 -124 119 -229 319 -229c182 0 294 87 294 224c0 108 -70 167 -219 204l-230 58c-170 42 -328 146 -328 364c0 259 228 400 485 400c252 0 478 -135 483 -394h-199c-11 122 -105 221 -287 221c-162 0 -275 -77 -275 -212c0 -92 62 -159 191 -190l228 -58
c207 -52 359 -149 359 -376c0 -268 -221 -415 -520 -415c-372 0 -499 221 -504 403z" />
    <glyph glyph-name="Scaron" unicode="&#x160;" horiz-adv-x="1172" 
d="M60 375h203c12 -124 119 -229 319 -229c182 0 294 87 294 224c0 108 -70 167 -219 204l-230 58c-170 42 -328 146 -328 364c0 259 228 400 485 400c252 0 478 -135 483 -394h-199c-11 122 -105 221 -287 221c-162 0 -275 -77 -275 -212c0 -92 62 -159 191 -190l228 -58
c207 -52 359 -149 359 -376c0 -268 -221 -415 -520 -415c-372 0 -499 221 -504 403zM304 1801h160l117 -172h4l117 172h160l-217 -291h-124z" />
    <glyph glyph-name="Scedilla" unicode="&#x15e;" horiz-adv-x="1172" 
d="M584 -468c-63 -2 -122 7 -149 15v111c27 -8 81 -14 114 -14c54 0 116 15 116 73c0 64 -60 66 -136 66h-53v85l44 105c-338 17 -455 228 -460 402h203c12 -124 119 -229 319 -229c182 0 294 87 294 224c0 108 -70 167 -219 204l-230 58c-170 42 -328 146 -328 364
c0 259 228 400 485 400c252 0 478 -135 483 -394h-199c-11 122 -105 221 -287 221c-162 0 -275 -77 -275 -212c0 -92 62 -159 191 -190l228 -58c207 -52 359 -149 359 -376c0 -242 -180 -384 -432 -410l-38 -92c124 0 199 -55 199 -163c0 -129 -101 -185 -229 -190z" />
    <glyph glyph-name="Sdotaccent" unicode="&#x1e60;" horiz-adv-x="1172" 
d="M467 1642c0 63 52 114 116 114s116 -51 116 -114c0 -64 -52 -115 -116 -115s-116 51 -116 115zM60 375h203c12 -124 119 -229 319 -229c182 0 294 87 294 224c0 108 -70 167 -219 204l-230 58c-170 42 -328 146 -328 364c0 259 228 400 485 400c252 0 478 -135 483 -394
h-199c-11 122 -105 221 -287 221c-162 0 -275 -77 -275 -212c0 -92 62 -159 191 -190l228 -58c207 -52 359 -149 359 -376c0 -268 -221 -415 -520 -415c-372 0 -499 221 -504 403z" />
    <glyph glyph-name="Sdotbelow" unicode="&#x1e62;" horiz-adv-x="1172" 
d="M466 -268c0 59 45 103 100 103c56 0 100 -44 100 -103c0 -57 -44 -101 -100 -101c-55 0 -100 44 -100 101zM60 375h203c12 -124 119 -229 319 -229c182 0 294 87 294 224c0 108 -70 167 -219 204l-230 58c-170 42 -328 146 -328 364c0 259 228 400 485 400
c252 0 478 -135 483 -394h-199c-11 122 -105 221 -287 221c-162 0 -275 -77 -275 -212c0 -92 62 -159 191 -190l228 -58c207 -52 359 -149 359 -376c0 -268 -221 -415 -520 -415c-372 0 -499 221 -504 403z" />
    <glyph glyph-name="Scommaaccent" unicode="&#x218;" horiz-adv-x="1172" 
d="M60 375h203c12 -124 119 -229 319 -229c182 0 294 87 294 224c0 108 -70 167 -219 204l-230 58c-170 42 -328 146 -328 364c0 259 228 400 485 400c252 0 478 -135 483 -394h-199c-11 122 -105 221 -287 221c-162 0 -275 -77 -275 -212c0 -92 62 -159 191 -190l228 -58
c207 -52 359 -149 359 -376c0 -268 -221 -415 -520 -415c-372 0 -499 221 -504 403zM550 -489h-149l85 335h178z" />
    <glyph glyph-name="Sdotbelowdotaccent" unicode="&#x1e68;" horiz-adv-x="1172" 
d="M466 -268c0 59 45 103 100 103c56 0 100 -44 100 -103c0 -57 -44 -101 -100 -101c-55 0 -100 44 -100 101zM60 375h203c12 -124 119 -229 319 -229c182 0 294 87 294 224c0 108 -70 167 -219 204l-230 58c-170 42 -328 146 -328 364c0 259 228 400 485 400
c252 0 478 -135 483 -394h-199c-11 122 -105 221 -287 221c-162 0 -275 -77 -275 -212c0 -92 62 -159 191 -190l228 -58c207 -52 359 -149 359 -376c0 -268 -221 -415 -520 -415c-372 0 -499 221 -504 403zM467 1642c0 63 52 114 116 114s116 -51 116 -114
c0 -64 -52 -115 -116 -115s-116 51 -116 115z" />
    <glyph glyph-name="Scarondotaccent" unicode="&#x1e66;" horiz-adv-x="1172" 
d="M248 1712h186l147 -109h4l147 109h186l-279 -202h-112zM489 1839c0 51 43 94 94 94s94 -43 94 -94s-43 -95 -94 -95s-94 44 -94 95zM60 375h203c12 -124 119 -229 319 -229c182 0 294 87 294 224c0 108 -70 167 -219 204l-230 58c-170 42 -328 146 -328 364
c0 259 228 400 485 400c252 0 478 -135 483 -394h-199c-11 122 -105 221 -287 221c-162 0 -275 -77 -275 -212c0 -92 62 -159 191 -190l228 -58c207 -52 359 -149 359 -376c0 -268 -221 -415 -520 -415c-372 0 -499 221 -504 403z" />
    <glyph glyph-name="Scircumflex" unicode="&#x15c;" horiz-adv-x="1172" 
d="M60 375h203c12 -124 119 -229 319 -229c182 0 294 87 294 224c0 108 -70 167 -219 204l-230 58c-170 42 -328 146 -328 364c0 259 228 400 485 400c252 0 478 -135 483 -394h-199c-11 122 -105 221 -287 221c-162 0 -275 -77 -275 -212c0 -92 62 -159 191 -190l228 -58
c207 -52 359 -149 359 -376c0 -268 -221 -415 -520 -415c-372 0 -499 221 -504 403zM304 1510l217 291h124l217 -291h-160l-117 172h-4l-117 -172h-160z" />
    <glyph glyph-name="Sacutedotaccent" unicode="&#x1e64;" horiz-adv-x="1172" 
d="M738 1510h-149l191 279h193zM274 1687c0 63 52 114 116 114s116 -51 116 -114c0 -64 -52 -115 -116 -115s-116 51 -116 115zM60 375h203c12 -124 119 -229 319 -229c182 0 294 87 294 224c0 108 -70 167 -219 204l-230 58c-170 42 -328 146 -328 364
c0 259 228 400 485 400c252 0 478 -135 483 -394h-199c-11 122 -105 221 -287 221c-162 0 -275 -77 -275 -212c0 -92 62 -159 191 -190l228 -58c207 -52 359 -149 359 -376c0 -268 -221 -415 -520 -415c-372 0 -499 221 -504 403z" />
    <glyph glyph-name="Sacute" unicode="&#x15a;" horiz-adv-x="1172" 
d="M647 1510h-149l191 279h193zM60 375h203c12 -124 119 -229 319 -229c182 0 294 87 294 224c0 108 -70 167 -219 204l-230 58c-170 42 -328 146 -328 364c0 259 228 400 485 400c252 0 478 -135 483 -394h-199c-11 122 -105 221 -287 221c-162 0 -275 -77 -275 -212
c0 -92 62 -159 191 -190l228 -58c207 -52 359 -149 359 -376c0 -268 -221 -415 -520 -415c-372 0 -499 221 -504 403z" />
    <glyph glyph-name="T" unicode="T" horiz-adv-x="1054" 
d="M629 0h-204v1186h-407v179h1018v-179h-407v-1186z" />
    <glyph glyph-name="Tcircumflexbelow" unicode="&#x1e70;" horiz-adv-x="1054" 
d="M629 0h-204v1186h-407v179h1018v-179h-407v-1186zM250 -400l212 287h130l212 -287h-159l-116 178h-4l-116 -178h-159z" />
    <glyph glyph-name="Tdotbelow" unicode="&#x1e6c;" horiz-adv-x="1054" 
d="M427 -268c0 59 45 103 100 103c56 0 100 -44 100 -103c0 -57 -44 -101 -100 -101c-55 0 -100 44 -100 101zM629 0h-204v1186h-407v179h1018v-179h-407v-1186z" />
    <glyph glyph-name="Tcommaaccent" unicode="&#x21a;" horiz-adv-x="1054" 
d="M512 -489h-149l85 335h178zM629 0h-204v1186h-407v179h1018v-179h-407v-1186z" />
    <glyph glyph-name="Tdotaccent" unicode="&#x1e6a;" horiz-adv-x="1054" 
d="M410 1642c0 63 52 114 116 114s116 -51 116 -114c0 -64 -52 -115 -116 -115s-116 51 -116 115zM629 0h-204v1186h-407v179h1018v-179h-407v-1186z" />
    <glyph glyph-name="Tcedilla" unicode="&#x162;" horiz-adv-x="1054" 
d="M539 -485c-63 -3 -122 7 -150 15v110c27 -8 82 -13 115 -13c54 0 116 15 116 73c0 63 -67 65 -143 65h-53v86l55 149h-54v1186h-407v179h1018v-179h-407v-1186h-19l-49 -132c124 0 207 -55 207 -163c0 -129 -101 -185 -229 -190z" />
    <glyph glyph-name="Tlinebelow" unicode="&#x1e6e;" horiz-adv-x="1054" 
d="M806 -340h-558v128h558v-128zM629 0h-204v1186h-407v179h1018v-179h-407v-1186z" />
    <glyph glyph-name="Tcaron" unicode="&#x164;" horiz-adv-x="1054" 
d="M247 1801h160l117 -172h4l117 172h160l-217 -291h-124zM629 0h-204v1186h-407v179h1018v-179h-407v-1186z" />
    <glyph glyph-name="Tbar" unicode="&#x166;" horiz-adv-x="1055" 
d="M861 631h-232v-631h-204v631h-231v144h231v411h-406v179h1017v-179h-407v-411h232v-144z" />
    <glyph glyph-name="U" unicode="U" horiz-adv-x="1341" 
d="M346 1365v-881c0 -205 128 -331 324 -331s325 127 325 331v881h204v-909c0 -284 -198 -484 -529 -484c-330 0 -528 200 -528 484v909h204z" />
    <glyph glyph-name="Ugrave" unicode="&#xd9;" horiz-adv-x="1341" 
d="M755 1510h-149l-235 279h193zM346 1365v-881c0 -205 128 -331 324 -331s325 127 325 331v881h204v-909c0 -284 -198 -484 -529 -484c-330 0 -528 200 -528 484v909h204z" />
    <glyph glyph-name="Udblgrave" unicode="&#x214;" horiz-adv-x="1341" 
d="M613 1510h-148l-245 266h191zM921 1510h-147l-246 266h192zM346 1365v-881c0 -205 128 -331 324 -331s325 127 325 331v881h204v-909c0 -284 -198 -484 -529 -484c-330 0 -528 200 -528 484v909h204z" />
    <glyph glyph-name="Uacute" unicode="&#xda;" horiz-adv-x="1341" 
d="M734 1510h-149l191 279h193zM346 1365v-881c0 -205 128 -331 324 -331s325 127 325 331v881h204v-909c0 -284 -198 -484 -529 -484c-330 0 -528 200 -528 484v909h204z" />
    <glyph glyph-name="Uhungarumlaut" unicode="&#x170;" horiz-adv-x="1341" 
d="M346 1365v-881c0 -205 128 -331 324 -331s325 127 325 331v881h204v-909c0 -284 -198 -484 -529 -484c-330 0 -528 200 -528 484v909h204zM420 1510l201 266h191l-245 -266h-147zM728 1510l201 266h192l-245 -266h-148z" />
    <glyph glyph-name="Ucircumflex" unicode="&#xdb;" horiz-adv-x="1341" 
d="M391 1510l217 291h124l217 -291h-160l-117 172h-4l-117 -172h-160zM346 1365v-881c0 -205 128 -331 324 -331s325 127 325 331v881h204v-909c0 -284 -198 -484 -529 -484c-330 0 -528 200 -528 484v909h204z" />
    <glyph glyph-name="Ucaron" unicode="&#x1d3;" horiz-adv-x="1341" 
d="M391 1801h160l117 -172h4l117 172h160l-217 -291h-124zM346 1365v-881c0 -205 128 -331 324 -331s325 127 325 331v881h204v-909c0 -284 -198 -484 -529 -484c-330 0 -528 200 -528 484v909h204z" />
    <glyph glyph-name="Ucircumflexbelow" unicode="&#x1e76;" horiz-adv-x="1341" 
d="M346 1365v-881c0 -205 128 -331 324 -331s325 127 325 331v881h204v-909c0 -284 -198 -484 -529 -484c-330 0 -528 200 -528 484v909h204zM393 -400l212 287h130l212 -287h-159l-116 178h-4l-116 -178h-159z" />
    <glyph glyph-name="Udieresis" unicode="&#xdc;" horiz-adv-x="1341" 
d="M509 1489c-52 0 -92 41 -92 95c0 56 40 97 92 97c54 0 95 -41 95 -97c0 -54 -41 -95 -95 -95zM829 1489c-52 0 -93 41 -93 95c0 56 41 97 93 97c54 0 94 -41 94 -97c0 -54 -40 -95 -94 -95zM346 1365v-881c0 -205 128 -331 324 -331s325 127 325 331v881h204v-909
c0 -284 -198 -484 -529 -484c-330 0 -528 200 -528 484v909h204z" />
    <glyph glyph-name="Udieresisgrave" unicode="&#x1db;" horiz-adv-x="1341" 
d="M764 1738h-166l-275 195h208zM509 1489c-52 0 -92 41 -92 95c0 56 40 97 92 97c54 0 95 -41 95 -97c0 -54 -41 -95 -95 -95zM829 1489c-52 0 -93 41 -93 95c0 56 41 97 93 97c54 0 94 -41 94 -97c0 -54 -40 -95 -94 -95zM346 1365v-881c0 -205 128 -331 324 -331
s325 127 325 331v881h204v-909c0 -284 -198 -484 -529 -484c-330 0 -528 200 -528 484v909h204z" />
    <glyph glyph-name="Udieresisacute" unicode="&#x1d7;" horiz-adv-x="1341" 
d="M576 1738l233 195h208l-275 -195h-166zM509 1489c-52 0 -92 41 -92 95c0 56 40 97 92 97c54 0 95 -41 95 -97c0 -54 -41 -95 -95 -95zM829 1489c-52 0 -93 41 -93 95c0 56 41 97 93 97c54 0 94 -41 94 -97c0 -54 -40 -95 -94 -95zM346 1365v-881
c0 -205 128 -331 324 -331s325 127 325 331v881h204v-909c0 -284 -198 -484 -529 -484c-330 0 -528 200 -528 484v909h204z" />
    <glyph glyph-name="Udieresismacron" unicode="&#x1d5;" horiz-adv-x="1341" 
d="M346 1365v-881c0 -205 128 -331 324 -331s325 127 325 331v881h204v-909c0 -284 -198 -484 -529 -484c-330 0 -528 200 -528 484v909h204zM509 1489c-52 0 -92 41 -92 95c0 56 40 97 92 97c54 0 95 -41 95 -97c0 -54 -41 -95 -95 -95zM829 1489c-52 0 -93 41 -93 95
c0 56 41 97 93 97c54 0 94 -41 94 -97c0 -54 -40 -95 -94 -95zM946 1791h-552v116h552v-116z" />
    <glyph glyph-name="Udieresiscaron" unicode="&#x1d9;" horiz-adv-x="1341" 
d="M419 1584c0 56 40 97 92 97c54 0 94 -41 94 -97c0 -54 -40 -95 -94 -95c-52 0 -92 41 -92 95zM738 1584c0 56 41 97 92 97c54 0 95 -41 95 -97c0 -54 -41 -95 -95 -95c-51 0 -92 41 -92 95zM335 1925h186l147 -110h4l147 110h186l-279 -203h-112zM346 1365v-881
c0 -205 128 -331 324 -331s325 127 325 331v881h204v-909c0 -284 -198 -484 -529 -484c-330 0 -528 200 -528 484v909h204z" />
    <glyph glyph-name="Udieresisbelow" unicode="&#x1e72;" horiz-adv-x="1341" 
d="M346 1365v-881c0 -205 128 -331 324 -331s325 127 325 331v881h204v-909c0 -284 -198 -484 -529 -484c-330 0 -528 200 -528 484v909h204zM490 -379c-55 0 -98 44 -98 100c0 60 43 103 98 103c57 0 99 -43 99 -103c0 -56 -42 -100 -99 -100zM846 -379
c-55 0 -97 44 -97 100c0 60 42 103 97 103c58 0 101 -43 101 -103c0 -56 -43 -100 -101 -100z" />
    <glyph glyph-name="Utildebelow" unicode="&#x1e74;" horiz-adv-x="1341" 
d="M781 -375c-127 0 -164 122 -230 122c-50 0 -59 -67 -60 -102h-123c0 112 59 217 178 217c127 0 166 -122 232 -122c44 0 64 57 67 104h123c0 -102 -63 -219 -187 -219zM346 1365v-881c0 -205 128 -331 324 -331s325 127 325 331v881h204v-909c0 -284 -198 -484 -529 -484
c-330 0 -528 200 -528 484v909h204z" />
    <glyph glyph-name="Uhookabove" unicode="&#x1ee6;" horiz-adv-x="1341" 
d="M346 1365v-881c0 -205 128 -331 324 -331s325 127 325 331v881h204v-909c0 -284 -198 -484 -529 -484c-330 0 -528 200 -528 484v909h204zM537 1656v98c17 6 57 16 103 16c116 0 204 -54 204 -155s-96 -144 -145 -163l-69 83c39 10 88 35 88 73c0 46 -47 58 -90 58
c-41 0 -70 -5 -91 -10z" />
    <glyph glyph-name="Ubreve" unicode="&#x16c;" horiz-adv-x="1341" 
d="M346 1365v-881c0 -205 128 -331 324 -331s325 127 325 331v881h204v-909c0 -284 -198 -484 -529 -484c-330 0 -528 200 -528 484v909h204zM379 1762h127c0 -83 50 -155 164 -155s164 72 164 155h126c0 -129 -87 -271 -290 -271s-292 142 -291 271z" />
    <glyph glyph-name="Uinvertedbreve" unicode="&#x216;" horiz-adv-x="1341" 
d="M346 1365v-881c0 -205 128 -331 324 -331s325 127 325 331v881h204v-909c0 -284 -198 -484 -529 -484c-330 0 -528 200 -528 484v909h204zM670 1665c-114 0 -164 -72 -164 -155h-127c-1 130 88 272 291 272s290 -142 290 -272h-126c0 83 -50 155 -164 155z" />
    <glyph glyph-name="Utildeacute" unicode="&#x1e78;" horiz-adv-x="1341" 
d="M346 1365v-881c0 -205 128 -331 324 -331s325 127 325 331v881h204v-909c0 -284 -198 -484 -529 -484c-330 0 -528 200 -528 484v909h204zM569 1738l234 195h204l-274 -195h-164zM778 1480c-122 0 -155 113 -217 113c-46 0 -57 -57 -58 -94h-115c0 102 54 202 170 202
c122 0 159 -113 219 -113c42 0 59 53 62 96h115c0 -97 -59 -204 -176 -204z" />
    <glyph glyph-name="Udotbelow" unicode="&#x1ee4;" horiz-adv-x="1341" 
d="M572 -268c0 59 45 103 100 103c56 0 100 -44 100 -103c0 -57 -44 -101 -100 -101c-55 0 -100 44 -100 101zM346 1365v-881c0 -205 128 -331 324 -331s325 127 325 331v881h204v-909c0 -284 -198 -484 -529 -484c-330 0 -528 200 -528 484v909h204z" />
    <glyph glyph-name="Utilde" unicode="&#x168;" horiz-adv-x="1341" 
d="M346 1365v-881c0 -205 128 -331 324 -331s325 127 325 331v881h204v-909c0 -284 -198 -484 -529 -484c-330 0 -528 200 -528 484v909h204zM778 1480c-122 0 -155 113 -217 113c-46 0 -57 -57 -58 -94h-115c0 102 54 202 170 202c122 0 159 -113 219 -113
c42 0 59 53 62 96h115c0 -97 -59 -204 -176 -204z" />
    <glyph glyph-name="Umacron" unicode="&#x16a;" horiz-adv-x="1341" 
d="M346 1365v-881c0 -205 128 -331 324 -331s325 127 325 331v881h204v-909c0 -284 -198 -484 -529 -484c-330 0 -528 200 -528 484v909h204zM946 1518h-552v116h552v-116z" />
    <glyph glyph-name="Umacrondieresis" unicode="&#x1e7a;" horiz-adv-x="1341" 
d="M509 1728c-52 0 -92 41 -92 95c0 56 40 97 92 97c54 0 95 -41 95 -97c0 -54 -41 -95 -95 -95zM829 1728c-52 0 -93 41 -93 95c0 56 41 97 93 97c54 0 94 -41 94 -97c0 -54 -40 -95 -94 -95zM946 1511h-552v116h552v-116zM346 1365v-881c0 -205 128 -331 324 -331
s325 127 325 331v881h204v-909c0 -284 -198 -484 -529 -484c-330 0 -528 200 -528 484v909h204z" />
    <glyph glyph-name="Uring" unicode="&#x16e;" horiz-adv-x="1341" 
d="M670 1485c-110 0 -198 82 -198 193c0 110 88 192 198 192c111 0 198 -82 198 -192c0 -111 -87 -193 -198 -193zM571 1678c0 -57 43 -101 99 -101s99 44 99 101c0 56 -43 100 -99 100s-99 -44 -99 -100zM346 1365v-881c0 -205 128 -331 324 -331s325 127 325 331v881h204
v-909c0 -284 -198 -484 -529 -484c-330 0 -528 200 -528 484v909h204z" />
    <glyph glyph-name="Uogonek" unicode="&#x172;" horiz-adv-x="1341" 
d="M968 -387c-122 0 -231 64 -231 198c0 63 23 136 97 195l-4 8c-38 -20 -82 -42 -172 -42c-298 0 -516 203 -516 505v888h206v-881c0 -205 125 -331 322 -331c196 0 324 127 324 331v881h205v-891c0 -192 -71 -306 -151 -391c-74 -82 -152 -137 -152 -228
c0 -72 52 -101 117 -101c20 0 49 3 76 10v-131c-18 -6 -66 -20 -121 -20z" />
    <glyph glyph-name="Uhorn" unicode="&#x1af;" horiz-adv-x="1411" 
d="M670 -27c-316 0 -528 203 -528 504v888h206v-880c0 -205 125 -332 322 -332c196 0 324 127 324 332v880h207c100 0 127 59 127 147v107h170v-117c0 -159 -78 -281 -252 -281h-47v-747c0 -302 -212 -501 -529 -501z" />
    <glyph glyph-name="Uhorngrave" unicode="&#x1eea;" horiz-adv-x="1411" 
d="M755 1510h-149l-235 279h193zM670 -27c-316 0 -528 203 -528 504v888h206v-880c0 -205 125 -332 322 -332c196 0 324 127 324 332v880h207c100 0 127 59 127 147v107h170v-117c0 -159 -78 -281 -252 -281h-47v-747c0 -302 -212 -501 -529 -501z" />
    <glyph glyph-name="Uhornacute" unicode="&#x1ee8;" horiz-adv-x="1411" 
d="M734 1510h-149l191 279h193zM670 -27c-316 0 -528 203 -528 504v888h206v-880c0 -205 125 -332 322 -332c196 0 324 127 324 332v880h207c100 0 127 59 127 147v107h170v-117c0 -159 -78 -281 -252 -281h-47v-747c0 -302 -212 -501 -529 -501z" />
    <glyph glyph-name="Uhorndotbelow" unicode="&#x1ef0;" horiz-adv-x="1411" 
d="M572 -268c0 59 45 103 100 103c56 0 100 -44 100 -103c0 -57 -44 -101 -100 -101c-55 0 -100 44 -100 101zM670 -27c-316 0 -528 203 -528 504v888h206v-880c0 -205 125 -332 322 -332c196 0 324 127 324 332v880h207c100 0 127 59 127 147v107h170v-117
c0 -159 -78 -281 -252 -281h-47v-747c0 -302 -212 -501 -529 -501z" />
    <glyph glyph-name="Uhornhookabove" unicode="&#x1eec;" horiz-adv-x="1411" 
d="M537 1656v98c17 6 57 16 103 16c116 0 204 -54 204 -155s-96 -144 -145 -163l-69 83c39 10 88 35 88 73c0 46 -47 58 -90 58c-41 0 -70 -5 -91 -10zM670 -27c-316 0 -528 203 -528 504v888h206v-880c0 -205 125 -332 322 -332c196 0 324 127 324 332v880h207
c100 0 127 59 127 147v107h170v-117c0 -159 -78 -281 -252 -281h-47v-747c0 -302 -212 -501 -529 -501z" />
    <glyph glyph-name="Uhorntilde" unicode="&#x1eee;" horiz-adv-x="1411" 
d="M778 1480c-122 0 -155 113 -217 113c-46 0 -57 -57 -58 -94h-115c0 102 54 202 170 202c122 0 159 -113 219 -113c42 0 59 53 62 96h115c0 -97 -59 -204 -176 -204zM670 -27c-316 0 -528 203 -528 504v888h206v-880c0 -205 125 -332 322 -332c196 0 324 127 324 332v880
h207c100 0 127 59 127 147v107h170v-117c0 -159 -78 -281 -252 -281h-47v-747c0 -302 -212 -501 -529 -501z" />
    <glyph glyph-name="V" unicode="V" horiz-adv-x="1214" 
d="M721 0h-227l-480 1365h236l357 -1114h8l354 1114h231z" />
    <glyph glyph-name="Vtilde" unicode="&#x1e7c;" horiz-adv-x="1214" 
d="M714 1480c-122 0 -155 113 -217 113c-46 0 -57 -57 -58 -94h-115c0 102 54 202 170 202c122 0 159 -113 219 -113c42 0 59 53 62 96h115c0 -97 -59 -204 -176 -204zM721 0h-227l-480 1365h236l357 -1114h8l354 1114h231z" />
    <glyph glyph-name="Vdotbelow" unicode="&#x1e7e;" horiz-adv-x="1214" 
d="M507 -268c0 59 45 103 100 103c56 0 100 -44 100 -103c0 -57 -44 -101 -100 -101c-55 0 -100 44 -100 101zM721 0h-227l-480 1365h236l357 -1114h8l354 1114h231z" />
    <glyph glyph-name="W" unicode="W" horiz-adv-x="1696" 
d="M569 0h-187l-371 1365h224l247 -1037h7l261 1037h197l260 -1037h7l247 1037h224l-371 -1365h-186l-276 1030h-7z" />
    <glyph glyph-name="Wgrave" unicode="&#x1e80;" horiz-adv-x="1696" 
d="M933 1510h-149l-235 279h193zM569 0h-187l-371 1365h224l247 -1037h7l261 1037h197l260 -1037h7l247 1037h224l-371 -1365h-186l-276 1030h-7z" />
    <glyph glyph-name="Wacute" unicode="&#x1e82;" horiz-adv-x="1696" 
d="M912 1510h-149l191 279h193zM569 0h-187l-371 1365h224l247 -1037h7l261 1037h197l260 -1037h7l247 1037h224l-371 -1365h-186l-276 1030h-7z" />
    <glyph glyph-name="Wdotaccent" unicode="&#x1e86;" horiz-adv-x="1696" 
d="M732 1642c0 63 52 114 116 114s116 -51 116 -114c0 -64 -52 -115 -116 -115s-116 51 -116 115zM569 0h-187l-371 1365h224l247 -1037h7l261 1037h197l260 -1037h7l247 1037h224l-371 -1365h-186l-276 1030h-7z" />
    <glyph glyph-name="Wdotbelow" unicode="&#x1e88;" horiz-adv-x="1696" 
d="M747 -268c0 59 45 103 100 103c56 0 100 -44 100 -103c0 -57 -44 -101 -100 -101c-55 0 -100 44 -100 101zM569 0h-187l-371 1365h224l247 -1037h7l261 1037h197l260 -1037h7l247 1037h224l-371 -1365h-186l-276 1030h-7z" />
    <glyph glyph-name="Wdieresis" unicode="&#x1e84;" horiz-adv-x="1696" 
d="M685 1489c-52 0 -92 41 -92 95c0 56 40 97 92 97c54 0 95 -41 95 -97c0 -54 -41 -95 -95 -95zM1005 1489c-52 0 -93 41 -93 95c0 56 41 97 93 97c54 0 94 -41 94 -97c0 -54 -40 -95 -94 -95zM569 0h-187l-371 1365h224l247 -1037h7l261 1037h197l260 -1037h7l247 1037
h224l-371 -1365h-186l-276 1030h-7z" />
    <glyph glyph-name="Wcircumflex" unicode="&#x174;" horiz-adv-x="1696" 
d="M570 1510l217 291h124l217 -291h-160l-117 172h-4l-117 -172h-160zM569 0h-187l-371 1365h224l247 -1037h7l261 1037h197l260 -1037h7l247 1037h224l-371 -1365h-186l-276 1030h-7z" />
    <glyph glyph-name="X" unicode="X" horiz-adv-x="1144" 
d="M1143 1365l-447 -688l438 -677h-243l-324 521h-10l-327 -521h-229l439 688l-433 677h245l324 -525h11l321 525h235z" />
    <glyph glyph-name="Xdotaccent" unicode="&#x1e8a;" horiz-adv-x="1144" 
d="M1143 1365l-447 -688l438 -677h-243l-324 521h-10l-327 -521h-229l439 688l-433 677h245l324 -525h11l321 525h235zM454 1642c0 63 52 114 116 114s116 -51 116 -114c0 -64 -52 -115 -116 -115s-116 51 -116 115z" />
    <glyph glyph-name="Xdieresis" unicode="&#x1e8c;" horiz-adv-x="1144" 
d="M1143 1365l-447 -688l438 -677h-243l-324 521h-10l-327 -521h-229l439 688l-433 677h245l324 -525h11l321 525h235zM411 1489c-52 0 -92 41 -92 95c0 56 40 97 92 97c54 0 95 -41 95 -97c0 -54 -41 -95 -95 -95zM731 1489c-52 0 -93 41 -93 95c0 56 41 97 93 97
c54 0 94 -41 94 -97c0 -54 -40 -95 -94 -95z" />
    <glyph glyph-name="Y" unicode="Y" horiz-adv-x="1109" 
d="M656 0h-204v565l-457 800h232l325 -597h7l326 597h228l-457 -797v-568z" />
    <glyph glyph-name="Ygrave" unicode="&#x1ef2;" horiz-adv-x="1108" 
d="M656 0h-204v565l-457 800h232l325 -597h7l326 597h228l-457 -797v-568zM639 1510h-149l-235 279h193z" />
    <glyph glyph-name="Yacute" unicode="&#xdd;" horiz-adv-x="1108" 
d="M656 0h-204v565l-457 800h232l325 -597h7l326 597h228l-457 -797v-568zM618 1510h-149l191 279h193z" />
    <glyph glyph-name="Ydotaccent" unicode="&#x1e8e;" horiz-adv-x="1109" 
d="M656 0h-204v565l-457 800h232l325 -597h7l326 597h228l-457 -797v-568zM438 1642c0 63 52 114 116 114s116 -51 116 -114c0 -64 -52 -115 -116 -115s-116 51 -116 115z" />
    <glyph glyph-name="Ydotbelow" unicode="&#x1ef4;" horiz-adv-x="1109" 
d="M656 0h-204v565l-457 800h232l325 -597h7l326 597h228l-457 -797v-568zM454 -268c0 59 45 103 100 103c56 0 100 -44 100 -103c0 -57 -44 -101 -100 -101c-55 0 -100 44 -100 101z" />
    <glyph glyph-name="Ydieresis" unicode="&#x178;" horiz-adv-x="1109" 
d="M656 0h-204v565l-457 800h232l325 -597h7l326 597h228l-457 -797v-568zM392 1489c-52 0 -92 41 -92 95c0 56 40 97 92 97c54 0 95 -41 95 -97c0 -54 -41 -95 -95 -95zM712 1489c-52 0 -93 41 -93 95c0 56 41 97 93 97c54 0 94 -41 94 -97c0 -54 -40 -95 -94 -95z" />
    <glyph glyph-name="Ytilde" unicode="&#x1ef8;" horiz-adv-x="1108" 
d="M656 0h-204v565l-457 800h232l325 -597h7l326 597h228l-457 -797v-568zM662 1480c-122 0 -155 113 -217 113c-46 0 -57 -57 -58 -94h-115c0 102 54 202 170 202c122 0 159 -113 219 -113c42 0 59 53 62 96h115c0 -97 -59 -204 -176 -204z" />
    <glyph glyph-name="Ycircumflex" unicode="&#x176;" horiz-adv-x="1108" 
d="M656 0h-204v565l-457 800h232l325 -597h7l326 597h228l-457 -797v-568zM275 1510l217 291h124l217 -291h-160l-117 172h-4l-117 -172h-160z" />
    <glyph glyph-name="Ymacron" unicode="&#x232;" horiz-adv-x="1109" 
d="M656 0h-204v565l-457 800h232l325 -597h7l326 597h228l-457 -797v-568zM830 1518h-552v116h552v-116z" />
    <glyph glyph-name="Yhookabove" unicode="&#x1ef6;" horiz-adv-x="1108" 
d="M656 0h-204v565l-457 800h232l325 -597h7l326 597h228l-457 -797v-568zM421 1656v98c17 6 57 16 103 16c116 0 204 -54 204 -155s-96 -144 -145 -163l-69 83c39 10 88 35 88 73c0 46 -47 58 -90 58c-41 0 -70 -5 -91 -10z" />
    <glyph glyph-name="Z" unicode="Z" horiz-adv-x="1156" 
d="M83 0v141l708 1041v6h-685v177h937v-139l-703 -1042v-7h721v-177h-978z" />
    <glyph glyph-name="Zacute" unicode="&#x179;" horiz-adv-x="1156" 
d="M642 1510h-149l191 279h193zM83 0v141l708 1041v6h-685v177h937v-139l-703 -1042v-7h721v-177h-978z" />
    <glyph glyph-name="Zcaron" unicode="&#x17d;" horiz-adv-x="1156" 
d="M83 0v141l708 1041v6h-685v177h937v-139l-703 -1042v-7h721v-177h-978zM299 1801h160l117 -172h4l117 172h160l-217 -291h-124z" />
    <glyph glyph-name="Zcircumflex" unicode="&#x1e90;" horiz-adv-x="1156" 
d="M83 0v141l708 1041v6h-685v177h937v-139l-703 -1042v-7h721v-177h-978zM299 1510l217 291h124l217 -291h-160l-117 172h-4l-117 -172h-160z" />
    <glyph glyph-name="Zlinebelow" unicode="&#x1e94;" horiz-adv-x="1156" 
d="M83 0v141l708 1041v6h-685v177h937v-139l-703 -1042v-7h721v-177h-978zM856 -340h-558v128h558v-128z" />
    <glyph glyph-name="Zdotbelow" unicode="&#x1e92;" horiz-adv-x="1156" 
d="M479 -268c0 59 45 103 100 103c56 0 100 -44 100 -103c0 -57 -44 -101 -100 -101c-55 0 -100 44 -100 101zM83 0v141l708 1041v6h-685v177h937v-139l-703 -1042v-7h721v-177h-978z" />
    <glyph glyph-name="Zdotaccent" unicode="&#x17b;" horiz-adv-x="1156" 
d="M462 1642c0 63 52 114 116 114s116 -51 116 -114c0 -64 -52 -115 -116 -115s-116 51 -116 115zM83 0v141l708 1041v6h-685v177h937v-139l-703 -1042v-7h721v-177h-978z" />
    <glyph glyph-name="AE" unicode="&#xc6;" horiz-adv-x="1864" 
d="M851 1188l-316 -618h387v618h-71zM922 405h-468l-212 -405h-230l719 1365h1021v-177h-626v-408h590v-170h-590v-433h626v-177h-830v405z" />
    <glyph glyph-name="AEmacron" unicode="&#x1e2;" horiz-adv-x="1864" 
d="M851 1188l-316 -618h387v618h-71zM922 405h-468l-212 -405h-230l719 1365h1021v-177h-626v-408h590v-170h-590v-433h626v-177h-830v405zM1617 1518h-552v116h552v-116z" />
    <glyph glyph-name="AEacute" unicode="&#x1fc;" horiz-adv-x="1864" 
d="M1405 1510h-149l191 279h193zM851 1188l-316 -618h387v618h-71zM922 405h-468l-212 -405h-230l719 1365h1021v-177h-626v-408h590v-170h-590v-433h626v-177h-830v405z" />
    <glyph glyph-name="OE" unicode="&#x152;" horiz-adv-x="1958" 
d="M314 774v-195c0 -292 151 -429 351 -429c201 0 355 126 355 418v224c0 291 -154 422 -355 422c-200 0 -351 -149 -351 -440zM644 -28c-330 0 -541 224 -541 609v191c0 395 220 621 545 621c153 0 296 -54 368 -167h15v139h815v-177h-625v-408h589v-170h-589v-433h625
v-177h-815v144h-14c-74 -110 -214 -172 -373 -172z" />
    <glyph glyph-name="Eth" unicode="&#xd0;" horiz-adv-x="1384" 
d="M634 0h-458v607h-99v179h99v579h458c403 0 603 -238 603 -681s-201 -684 -603 -684zM382 179h233c265 0 409 152 409 505c0 327 -126 506 -409 506h-233v-404h350v-179h-350v-428z" />
    <glyph glyph-name="Thorn" unicode="&#xde;" horiz-adv-x="1161" 
d="M158 1365h204v-252h292c272 0 444 -147 444 -401c0 -257 -173 -401 -445 -401h-290v-311h-205v1365zM363 939v-456h230c165 0 294 28 294 229c0 158 -95 227 -258 227h-266z" />
    <glyph glyph-name="Alphagreek" unicode="&#x391;" horiz-adv-x="1220" 
d="M234 0h-212l476 1365h224l476 -1365h-218l-128 391h-490zM611 1141h-7l-193 -590h392z" />
    <glyph glyph-name="Betagreek" unicode="&#x392;" horiz-adv-x="1234" 
d="M158 0v1365h531c235 0 387 -129 387 -336c0 -158 -86 -261 -224 -301v-9c177 -22 299 -140 299 -336c0 -240 -188 -383 -476 -383h-517zM363 1196v-412h199c213 0 308 69 308 210c0 127 -81 202 -221 202h-286zM363 621v-452h225c251 0 353 68 353 219
c0 147 -99 233 -273 233h-305z" />
    <glyph glyph-name="Gammagreek" unicode="&#x393;" horiz-adv-x="1022" 
d="M364 0h-206v1365h807v-178h-601v-1187z" />
    <glyph glyph-name="Deltagreek" unicode="&#x394;" horiz-adv-x="1227" 
d="M48 0v122l456 1243h222l454 -1243v-122h-1132zM609 1131l-343 -970h690l-340 970h-7z" />
    <glyph glyph-name="Epsilongreek" unicode="&#x395;" horiz-adv-x="1107" 
d="M996 175v-177h-838v1365h838v-177h-633v-408h597v-170h-597v-433h633z" />
    <glyph glyph-name="Zetagreek" unicode="&#x396;" horiz-adv-x="1156" 
d="M83 0v141l708 1041v6h-685v177h937v-139l-703 -1042v-7h721v-177h-978z" />
    <glyph glyph-name="Etagreek" unicode="&#x397;" horiz-adv-x="1377" 
d="M1220 0h-206v615h-650v-615h-206v1365h206v-572h650v572h206v-1365z" />
    <glyph glyph-name="Thetagreek" unicode="&#x398;" horiz-adv-x="1360" 
d="M927 598h-495v174h495v-174zM309 775v-197c0 -281 149 -425 370 -425s372 140 372 425v197c0 290 -151 437 -372 437c-222 0 -370 -155 -370 -437zM103 580v192c0 384 219 621 577 621c359 0 577 -232 577 -621v-192c0 -384 -221 -608 -580 -608s-574 227 -574 608z" />
    <glyph glyph-name="Iotagreek" unicode="&#x399;" horiz-adv-x="521" 
d="M364 0h-206v1365h206v-1365z" />
    <glyph glyph-name="Kappagreek" unicode="&#x39a;" horiz-adv-x="1209" 
d="M1177 1365l-502 -583l527 -782h-256l-423 641l-159 -175v-466h-206v1365h206v-644h9l568 644h236z" />
    <glyph glyph-name="Lambdagreek" unicode="&#x39b;" horiz-adv-x="1185" 
d="M587 1122l-352 -1122h-212l458 1365h224l457 -1365h-218l-350 1122h-7z" />
    <glyph glyph-name="Mugreek" unicode="&#x39c;" horiz-adv-x="1600" 
d="M347 0h-185v1365h204l432 -998h5l431 998h204v-1365h-186v963h-8l-366 -830h-157l-367 830h-7v-963z" />
    <glyph glyph-name="Nugreek" unicode="&#x39d;" horiz-adv-x="1368" 
d="M352 0h-194v1365h187l664 -1014h6v1014h195v-1365h-187l-665 1016h-6v-1016z" />
    <glyph glyph-name="Xigreek" unicode="&#x39e;" horiz-adv-x="1154" 
d="M111 1183v182h932v-182h-932zM197 605v176h760v-176h-760zM111 0v182h932v-182h-932z" />
    <glyph glyph-name="Omicrongreek" unicode="&#x39f;" horiz-adv-x="1326" 
d="M311 774v-194c0 -292 152 -429 352 -429c201 0 352 137 352 429v194c0 291 -151 440 -352 440c-200 0 -352 -149 -352 -440zM103 580v192c0 388 220 621 562 621s558 -233 558 -621v-192c0 -386 -219 -608 -562 -608c-342 0 -558 222 -558 608z" />
    <glyph glyph-name="Pigreek" unicode="&#x3a0;" horiz-adv-x="1357" 
d="M1200 0h-206v1187h-630v-1187h-206v1365h1042v-1365z" />
    <glyph glyph-name="Rhogreek" unicode="&#x3a1;" horiz-adv-x="1165" 
d="M158 1365h513c271 0 443 -180 443 -435c0 -257 -173 -433 -444 -433h-307v-497h-205v1365zM363 1190v-520h192c219 0 348 49 348 260c0 166 -95 260 -258 260h-282z" />
    <glyph glyph-name="Sigmagreek" unicode="&#x3a3;" horiz-adv-x="1123" 
d="M83 133l391 553l-384 539v140h931v-177h-666v-6l339 -476v-27l-351 -495v-7h686v-177h-946v133z" />
    <glyph glyph-name="Taugreek" unicode="&#x3a4;" horiz-adv-x="1054" 
d="M629 0h-204v1186h-407v179h1018v-179h-407v-1186z" />
    <glyph glyph-name="Upsilongreek" unicode="&#x3a5;" horiz-adv-x="1109" 
d="M656 0h-204v565l-457 800h232l325 -597h7l326 597h228l-457 -797v-568z" />
    <glyph glyph-name="Phigreek" unicode="&#x3a6;" horiz-adv-x="1563" 
d="M878 -55h-193v107c-369 8 -582 245 -582 587v77c0 340 209 578 582 587v111h193v-111c373 -9 582 -248 582 -587v-76c0 -343 -213 -580 -582 -588v-107zM687 221v913c-239 -9 -382 -161 -382 -425v-64c0 -271 150 -415 382 -424zM876 221c232 9 382 153 382 424v64
c0 264 -143 416 -382 425v-913z" />
    <glyph glyph-name="Chigreek" unicode="&#x3a7;" horiz-adv-x="1144" 
d="M1143 1365l-447 -688l438 -677h-243l-324 521h-10l-327 -521h-229l439 688l-433 677h245l324 -525h11l321 525h235z" />
    <glyph glyph-name="Psigreek" unicode="&#x3a8;" horiz-adv-x="1472" 
d="M636 0v307c-313 12 -502 154 -502 483v575h200v-573c0 -223 98 -303 302 -309v882h200v-882c203 7 302 84 302 309v573h200v-575c0 -331 -190 -470 -502 -483v-307h-200z" />
    <glyph glyph-name="Omegagreek" unicode="&#x3a9;" horiz-adv-x="1371" 
d="M784 0v204c139 44 257 246 257 481v94c0 299 -156 435 -355 435c-204 0 -356 -141 -356 -435v-94c0 -229 114 -434 257 -481v-204h-483v181h240v12c-124 76 -222 264 -222 493v95c0 401 230 612 564 612s562 -211 562 -612v-95c0 -230 -99 -420 -221 -493v-12h239v-181
h-482z" />
    <glyph glyph-name="Alphatonosgreek" unicode="&#x386;" horiz-adv-x="1260" 
d="M275 0h-212l476 1365h224l476 -1365h-218l-128 391h-490zM652 1141h-7l-193 -590h392zM67 1058l73 307h196l-122 -307h-147z" />
    <glyph glyph-name="Epsilontonosgreek" unicode="&#x388;" horiz-adv-x="1409" 
d="M45 1058l73 307h196l-122 -307h-147zM1297 175v-177h-838v1365h838v-177h-633v-408h597v-170h-597v-433h633z" />
    <glyph glyph-name="Etatonosgreek" unicode="&#x389;" horiz-adv-x="1678" 
d="M45 1058l73 307h196l-122 -307h-147zM1521 0h-206v615h-650v-615h-206v1365h206v-572h650v572h206v-1365z" />
    <glyph glyph-name="Iotatonosgreek" unicode="&#x38a;" horiz-adv-x="822" 
d="M665 0h-206v1365h206v-1365zM45 1058l73 307h196l-122 -307h-147z" />
    <glyph glyph-name="Iotadieresisgreek" unicode="&#x3aa;" horiz-adv-x="521" 
d="M364 0h-206v1365h206v-1365zM99 1489c-52 0 -92 41 -92 95c0 56 40 97 92 97c54 0 95 -41 95 -97c0 -54 -41 -95 -95 -95zM419 1489c-52 0 -93 41 -93 95c0 56 41 97 93 97c54 0 94 -41 94 -97c0 -54 -40 -95 -94 -95z" />
    <glyph glyph-name="Omicrontonosgreek" unicode="&#x38c;" horiz-adv-x="1522" 
d="M507 774v-194c0 -292 152 -429 352 -429c201 0 352 137 352 429v194c0 291 -151 440 -352 440c-200 0 -352 -149 -352 -440zM299 580v192c0 388 220 621 562 621s558 -233 558 -621v-192c0 -386 -219 -608 -562 -608c-342 0 -558 222 -558 608zM45 1058l73 307h196
l-122 -307h-147z" />
    <glyph glyph-name="Upsilontonosgreek" unicode="&#x38e;" horiz-adv-x="1515" 
d="M45 1058l73 307h196l-122 -307h-147zM1063 0h-204v565l-457 800h232l325 -597h7l326 597h228l-457 -797v-568z" />
    <glyph glyph-name="Upsilondieresisgreek" unicode="&#x3ab;" horiz-adv-x="1109" 
d="M656 0h-204v565l-457 800h232l325 -597h7l326 597h228l-457 -797v-568zM392 1489c-52 0 -92 41 -92 95c0 56 40 97 92 97c54 0 95 -41 95 -97c0 -54 -41 -95 -95 -95zM712 1489c-52 0 -93 41 -93 95c0 56 41 97 93 97c54 0 94 -41 94 -97c0 -54 -40 -95 -94 -95z" />
    <glyph glyph-name="Omegatonosgreek" unicode="&#x38f;" horiz-adv-x="1535" 
d="M948 0v204c139 44 257 246 257 481v94c0 299 -156 435 -355 435c-204 0 -356 -141 -356 -435v-94c0 -229 114 -434 257 -481v-204h-483v181h240v12c-124 76 -222 264 -222 493v95c0 401 230 612 564 612s562 -211 562 -612v-95c0 -230 -99 -420 -221 -493v-12h239v-181
h-482zM45 1058l73 307h196l-122 -307h-147z" />
    <glyph glyph-name="Acyrillic" unicode="&#x410;" horiz-adv-x="1240" 
d="M244 0h-212l476 1365h224l476 -1365h-218l-128 391h-490zM621 1141h-7l-193 -590h392z" />
    <glyph glyph-name="Becyrillic" unicode="&#x411;" horiz-adv-x="1200" 
d="M373 1187v-356h298c272 0 445 -169 445 -412c0 -246 -172 -419 -443 -419h-505v1365h837v-178h-632zM373 175h278c160 0 254 89 254 242c0 154 -94 243 -254 243h-278v-485z" />
    <glyph glyph-name="Vecyrillic" unicode="&#x412;" horiz-adv-x="1254" 
d="M168 0v1365h531c235 0 387 -129 387 -336c0 -158 -86 -261 -224 -301v-9c177 -22 299 -140 299 -336c0 -240 -188 -383 -476 -383h-517zM373 1196v-412h199c213 0 308 69 308 210c0 127 -81 202 -221 202h-286zM373 621v-452h225c251 0 353 68 353 219
c0 147 -99 233 -273 233h-305z" />
    <glyph glyph-name="Gecyrillic" unicode="&#x413;" horiz-adv-x="1068" 
d="M374 0h-206v1365h825v-178h-619v-1187z" />
    <glyph glyph-name="Decyrillic" unicode="&#x414;" horiz-adv-x="1414" 
d="M985 178v1009h-493l-11 -306c-12 -352 -21 -581 -109 -696v-7h613zM211 -286h-185v464h113c124 86 135 264 147 726l12 461h891v-1187h177v-464h-186v286h-969v-286z" />
    <glyph glyph-name="Iecyrillic" unicode="&#x415;" horiz-adv-x="1127" 
d="M1006 177v-177h-838v1365h838v-177h-633v-408h597v-170h-597v-433h633z" />
    <glyph glyph-name="Iocyrillic" unicode="&#x401;" horiz-adv-x="1127" 
d="M420 1489c-52 0 -92 41 -92 95c0 56 40 97 92 97c54 0 95 -41 95 -97c0 -54 -41 -95 -95 -95zM740 1489c-52 0 -93 41 -93 95c0 56 41 97 93 97c54 0 94 -41 94 -97c0 -54 -40 -95 -94 -95zM1006 177v-177h-838v1365h838v-177h-633v-408h597v-170h-597v-433h633z" />
    <glyph glyph-name="Zhecyrillic" unicode="&#x416;" horiz-adv-x="1824" 
d="M1199 715l603 -715h-253l-528 618h-8v-618h-202v618h-8l-527 -618h-251l601 709l-595 656h250l522 -576h8v576h202v-576h8l523 576h244z" />
    <glyph glyph-name="Zecyrillic" unicode="&#x417;" horiz-adv-x="1187" 
d="M413 619v169h173c154 0 258 83 258 221c0 129 -106 215 -252 215c-164 0 -266 -95 -274 -209h-195c6 197 165 378 470 378c290 0 456 -162 456 -365c0 -169 -110 -281 -265 -307v-11c179 -19 310 -150 310 -327c0 -249 -200 -412 -503 -412c-300 0 -486 165 -496 384h192
c11 -120 128 -213 306 -213c182 0 294 91 294 242c0 155 -114 235 -303 235h-171z" />
    <glyph glyph-name="Iicyrillic" unicode="&#x418;" horiz-adv-x="1397" 
d="M1027 0v1035h-7l-662 -1035h-190v1365h202v-1034h8l661 1034h191v-1365h-203z" />
    <glyph glyph-name="Iishortcyrillic" unicode="&#x419;" horiz-adv-x="1397" 
d="M393 1781h134c0 -97 62 -166 192 -166s192 69 192 166h134c0 -153 -108 -278 -326 -278c-217 0 -326 125 -326 278zM1027 0v1035h-7l-662 -1035h-190v1365h202v-1034h8l661 1034h191v-1365h-203z" />
    <glyph glyph-name="Kacyrillic" unicode="&#x41a;" horiz-adv-x="1225" 
d="M946 0l-565 618h-7v-618h-206v1365h206v-576h7l560 576h248l-633 -651l648 -714h-258z" />
    <glyph glyph-name="Elcyrillic" unicode="&#x41b;" horiz-adv-x="1324" 
d="M286 904l9 461h861v-1365h-206v1187h-461l-9 -307c-19 -630 -61 -892 -363 -892c-39 0 -69 10 -74 12v184c3 -1 24 -8 51 -8c156 0 180 218 192 728z" />
    <glyph glyph-name="Emcyrillic" unicode="&#x41c;" horiz-adv-x="1611" 
d="M353 0h-185v1365h204l432 -998h5l431 998h204v-1365h-186v963h-8l-366 -830h-157l-367 830h-7v-963z" />
    <glyph glyph-name="Encyrillic" unicode="&#x41d;" horiz-adv-x="1397" 
d="M1230 0h-206v615h-650v-615h-206v1365h206v-572h650v572h206v-1365z" />
    <glyph glyph-name="Ocyrillic" unicode="&#x41e;" horiz-adv-x="1346" 
d="M321 774v-194c0 -292 152 -429 352 -429c201 0 352 137 352 429v194c0 291 -151 440 -352 440c-200 0 -352 -149 -352 -440zM113 580v192c0 388 220 621 562 621s558 -233 558 -621v-192c0 -386 -219 -608 -562 -608c-342 0 -558 222 -558 608z" />
    <glyph glyph-name="Pecyrillic" unicode="&#x41f;" horiz-adv-x="1377" 
d="M1210 0h-206v1187h-630v-1187h-206v1365h1042v-1365z" />
    <glyph glyph-name="Ercyrillic" unicode="&#x420;" horiz-adv-x="1193" 
d="M168 1365h513c271 0 443 -180 443 -435c0 -257 -173 -433 -444 -433h-307v-497h-205v1365zM373 1190v-520h192c219 0 348 49 348 260c0 166 -95 260 -258 260h-282z" />
    <glyph glyph-name="Escyrillic" unicode="&#x421;" horiz-adv-x="1278" 
d="M320 765v-172c0 -283 123 -441 342 -441c184 0 307 113 311 277h201v-11c0 -259 -217 -446 -513 -446c-346 0 -548 233 -548 621v172c0 392 202 628 548 628c297 0 513 -194 513 -467v-10h-201c-4 175 -127 297 -311 297c-219 0 -342 -161 -342 -448z" />
    <glyph glyph-name="Tecyrillic" unicode="&#x422;" horiz-adv-x="1074" 
d="M639 0h-204v1186h-407v179h1018v-179h-407v-1186z" />
    <glyph glyph-name="Ucyrillic" unicode="&#x423;" horiz-adv-x="1125" 
d="M906 1365h214l-441 -1012c-112 -258 -224 -365 -418 -365c-47 0 -89 8 -102 12v183c16 -4 53 -10 90 -10c93 0 159 46 225 173l-469 1019h223l345 -789h7z" />
    <glyph glyph-name="Efcyrillic" unicode="&#x424;" horiz-adv-x="1610" 
d="M902 -10h-202v159c-381 10 -596 199 -596 527v21c0 331 217 525 596 538v140h202v-141c385 -7 603 -197 603 -528v-20c0 -334 -219 -528 -603 -539v-157zM307 676c0 -225 139 -346 394 -353v737c-252 -9 -394 -136 -394 -363v-21zM1302 706c0 227 -143 349 -402 354v-739
c258 8 402 136 402 365v20z" />
    <glyph glyph-name="Xacyrillic" unicode="&#x425;" horiz-adv-x="1164" 
d="M1153 1365l-447 -688l438 -677h-243l-324 521h-10l-327 -521h-229l439 688l-433 677h245l324 -525h11l321 525h235z" />
    <glyph glyph-name="Tsecyrillic" unicode="&#x426;" horiz-adv-x="1442" 
d="M1218 178h176v-464h-185v286h-197h-844v1365h206v-1187h638v1187h206v-1187z" />
    <glyph glyph-name="Checyrillic" unicode="&#x427;" horiz-adv-x="1316" 
d="M1149 0h-206v624h-7c-11 -6 -131 -96 -329 -96c-297 0 -468 160 -468 450v387h206v-381c0 -186 99 -282 285 -282s306 102 313 107v556h206v-1365z" />
    <glyph glyph-name="Shacyrillic" unicode="&#x428;" horiz-adv-x="1898" 
d="M168 0v1365h206v-1187h472v1187h206v-1187h473v1187h206v-1365h-1563z" />
    <glyph glyph-name="Shchacyrillic" unicode="&#x429;" horiz-adv-x="1955" 
d="M1907 -286h-185v286h-1554v1365h206v-1187h472v1187h206v-1187h473v1187h206v-1187h176v-464z" />
    <glyph glyph-name="Hardsigncyrillic" unicode="&#x42a;" horiz-adv-x="1376" 
d="M862 0h-513v1186h-316v179h522v-485h306c271 0 444 -179 444 -437c0 -259 -172 -443 -443 -443zM837 175c162 0 257 97 257 265c0 170 -95 267 -257 267h-284v-532h284z" />
    <glyph glyph-name="Yericyrillic" unicode="&#x42b;" horiz-adv-x="1644" 
d="M1123 443c0 -259 -172 -443 -443 -443h-512v1365h205v-485h306c271 0 444 -179 444 -437zM654 707h-282v-532h282c163 0 258 97 258 265c0 170 -95 267 -258 267zM1476 0h-206v1365h206v-1365z" />
    <glyph glyph-name="Softsigncyrillic" unicode="&#x42c;" horiz-adv-x="1195" 
d="M681 0h-513v1365h205v-485h307c271 0 444 -179 444 -437c0 -259 -172 -443 -443 -443zM655 175c163 0 258 97 258 265c0 170 -95 267 -258 267h-283v-532h283z" />
    <glyph glyph-name="Ereversedcyrillic" unicode="&#x42d;" horiz-adv-x="1287" 
d="M624 -28c-353 0 -520 238 -520 446v4h202c2 -142 106 -270 311 -270c208 0 345 132 348 419v41h-542v167h542v8c-3 283 -142 426 -344 426c-205 0 -313 -149 -315 -288h-202v1c0 234 181 467 518 467s551 -228 551 -619v-190c0 -397 -211 -612 -549 -612z" />
    <glyph glyph-name="IUcyrillic" unicode="&#x42e;" horiz-adv-x="1798" 
d="M1477 580v194c0 291 -146 440 -341 440s-341 -149 -341 -440v-194c0 -292 146 -429 341 -429s341 137 341 429zM374 793h215c8 375 220 600 548 600c337 0 548 -233 548 -621v-192c0 -386 -214 -608 -551 -608c-335 0 -545 222 -545 608v35h-215v-615h-206v1365h206v-572
z" />
    <glyph glyph-name="IAcyrillic" unicode="&#x42f;" horiz-adv-x="1248" 
d="M595 697h281v494h-281c-171 0 -266 -86 -266 -246c0 -162 95 -248 266 -248zM875 525h-252l-315 -525h-230l335 554c-182 43 -294 190 -294 388c0 253 173 423 457 423h505v-1365h-206v525z" />
    <glyph glyph-name="Djecyrillic" unicode="&#x402;" horiz-adv-x="1505" 
d="M646 732c69 56 202 96 312 96c284 0 446 -156 446 -427c0 -248 -170 -413 -424 -413c-47 0 -96 5 -117 12v170c19 -5 60 -8 98 -8c140 0 237 97 237 236c0 168 -92 258 -262 258c-108 0 -233 -44 -296 -107v-549h-206v1186h-406v179h1017v-179h-405v-454h6z" />
    <glyph glyph-name="Gjecyrillic" unicode="&#x403;" horiz-adv-x="1068" 
d="M657 1510h-149l191 279h193zM374 0h-206v1365h825v-178h-619v-1187z" />
    <glyph glyph-name="Ecyrillic" unicode="&#x404;" horiz-adv-x="1287" 
d="M1182 925h-201c-3 139 -110 288 -316 288c-203 0 -343 -147 -345 -434h544v-167h-544v-27c0 -296 138 -433 349 -433c205 0 310 128 312 270h201v-4c0 -208 -167 -446 -519 -446c-339 0 -550 215 -550 612v190c0 391 215 619 551 619c338 0 518 -233 518 -467v-1z" />
    <glyph glyph-name="Dzecyrillic" unicode="&#x405;" horiz-adv-x="1192" 
d="M70 375h203c12 -124 119 -229 319 -229c182 0 294 87 294 224c0 108 -70 167 -219 204l-230 58c-170 42 -328 146 -328 364c0 259 228 400 485 400c252 0 478 -135 483 -394h-199c-11 122 -105 221 -287 221c-162 0 -275 -77 -275 -212c0 -92 62 -159 191 -190l228 -58
c207 -52 359 -149 359 -376c0 -268 -221 -415 -520 -415c-372 0 -499 221 -504 403z" />
    <glyph glyph-name="Icyrillic" unicode="&#x406;" horiz-adv-x="541" 
d="M374 0h-206v1365h206v-1365z" />
    <glyph glyph-name="Yicyrillic" unicode="&#x407;" horiz-adv-x="525" 
d="M366 0h-206v1365h206v-1365zM101 1489c-52 0 -92 41 -92 95c0 56 40 97 92 97c54 0 95 -41 95 -97c0 -54 -41 -95 -95 -95zM421 1489c-52 0 -93 41 -93 95c0 56 41 97 93 97c54 0 94 -41 94 -97c0 -54 -40 -95 -94 -95z" />
    <glyph glyph-name="Jecyrillic" unicode="&#x408;" horiz-adv-x="1017" 
d="M35 338h200c4 -106 73 -181 202 -181c145 0 212 87 212 262v946h207v-948c0 -288 -153 -445 -418 -445c-252 0 -403 158 -403 366z" />
    <glyph glyph-name="Ljecyrillic" unicode="&#x409;" horiz-adv-x="1958" 
d="M480 880c-21 -630 -63 -892 -363 -892c-41 0 -72 10 -74 12v184c5 -2 25 -8 51 -8c154 0 184 217 192 728l7 461h844v-485h306c272 0 445 -179 445 -437c0 -259 -172 -443 -444 -443h-513v1187h-442zM1419 707h-283v-532h283c163 0 258 97 258 265
c0 170 -95 267 -258 267z" />
    <glyph glyph-name="Njecyrillic" unicode="&#x40a;" horiz-adv-x="2051" 
d="M1024 834v531h205v-531h306c272 0 445 -160 445 -414c0 -255 -172 -420 -444 -420h-512v656h-650v-656h-206v1365h206v-531h650zM1513 660h-285v-485h285c162 0 256 79 256 243c0 165 -94 242 -256 242z" />
    <glyph glyph-name="Tshecyrillic" unicode="&#x40b;" horiz-adv-x="1555" 
d="M646 732c67 55 200 96 310 96c281 0 440 -161 440 -447v-381h-206v376c0 184 -88 279 -257 279c-106 0 -230 -44 -293 -106v-549h-206v1186h-406v179h1017v-179h-405v-454h6z" />
    <glyph glyph-name="Kjecyrillic" unicode="&#x40c;" horiz-adv-x="1225" 
d="M719 1510h-149l191 279h193zM946 0l-565 618h-7v-618h-206v1365h206v-576h7l560 576h248l-633 -651l648 -714h-258z" />
    <glyph glyph-name="Ushortcyrillic" unicode="&#x40e;" horiz-adv-x="1125" 
d="M764 1766h134c0 -153 -108 -278 -326 -278c-217 0 -326 125 -326 278h134c0 -97 62 -166 192 -166s192 69 192 166zM906 1365h214l-441 -1012c-112 -258 -224 -365 -418 -365c-47 0 -89 8 -102 12v183c16 -4 53 -10 90 -10c93 0 159 46 225 173l-469 1019h223l345 -789h7
z" />
    <glyph glyph-name="Dzhecyrillic" unicode="&#x40f;" horiz-adv-x="1387" 
d="M1014 1365h206v-1365h-433v-286h-186v286h-433v1365h206v-1187h640v1187z" />
    <glyph glyph-name="Geupturncyrillic" unicode="&#x490;" horiz-adv-x="1068" 
d="M808 1651h185v-286v-178h-619v-1187h-206v1365h640v286z" />
    <glyph glyph-name="A.sc" horiz-adv-x="1093" 
d="M243 0h-206l394 1080h233l392 -1080h-219l-98 291h-398zM546 885h-9l-151 -448h309z" />
    <glyph glyph-name="Agrave.sc" horiz-adv-x="1093" 
d="M633 1214h-149l-235 278h194zM243 0h-206l394 1080h233l392 -1080h-219l-98 291h-398zM546 885h-9l-151 -448h309z" />
    <glyph glyph-name="Aacute.sc" horiz-adv-x="1093" 
d="M608 1214h-149l191 278h193zM243 0h-206l394 1080h233l392 -1080h-219l-98 291h-398zM546 885h-9l-151 -448h309z" />
    <glyph glyph-name="Adieresis.sc" horiz-adv-x="1093" 
d="M243 0h-206l394 1080h233l392 -1080h-219l-98 291h-398zM546 885h-9l-151 -448h309zM377 1224c-55 0 -98 44 -98 100c0 60 43 103 98 103c57 0 99 -43 99 -103c0 -56 -42 -100 -99 -100zM733 1224c-55 0 -97 44 -97 100c0 60 42 103 97 103c58 0 101 -43 101 -103
c0 -56 -43 -100 -101 -100z" />
    <glyph glyph-name="Adieresismacron.sc" horiz-adv-x="1093" 
d="M243 0h-206l394 1080h233l392 -1080h-219l-98 291h-398zM546 885h-9l-151 -448h309zM377 1224c-55 0 -98 44 -98 100c0 60 43 103 98 103c57 0 99 -43 99 -103c0 -56 -42 -100 -99 -100zM733 1224c-55 0 -97 44 -97 100c0 60 42 103 97 103c58 0 101 -43 101 -103
c0 -56 -43 -100 -101 -100zM825 1571h-558v128h558v-128z" />
    <glyph glyph-name="Aring.sc" horiz-adv-x="1093" 
d="M243 0h-206l394 1080h233l392 -1080h-219l-98 291h-398zM546 885h-9l-151 -448h309zM546 1208c-110 0 -198 82 -198 193c0 110 88 192 198 192c111 0 198 -82 198 -192c0 -111 -87 -193 -198 -193zM447 1401c0 -57 43 -101 99 -101s99 44 99 101c0 56 -43 100 -99 100
s-99 -44 -99 -100z" />
    <glyph glyph-name="Aringacute.sc" horiz-adv-x="1093" 
d="M626 1645h-150l136 190h194zM545 1208c-110 0 -198 82 -198 193c0 110 88 192 198 192c111 0 198 -82 198 -192c0 -111 -87 -193 -198 -193zM446 1401c0 -57 43 -101 99 -101s99 44 99 101c0 56 -43 100 -99 100s-99 -44 -99 -100zM243 0h-206l394 1080h233l392 -1080
h-219l-98 291h-398zM546 885h-9l-151 -448h309z" />
    <glyph glyph-name="Atilde.sc" horiz-adv-x="1093" 
d="M243 0h-206l394 1080h233l392 -1080h-219l-98 291h-398zM546 885h-9l-151 -448h309zM655 1209c-133 0 -170 128 -242 128c-56 0 -65 -73 -66 -108h-128c0 118 64 228 189 228c133 0 172 -127 244 -127c50 0 69 63 73 110h128c0 -108 -68 -231 -198 -231z" />
    <glyph glyph-name="Abrevegrave.sc" horiz-adv-x="1093" 
d="M243 0h-206l394 1080h233l392 -1080h-219l-98 291h-398zM546 885h-9l-151 -448h309zM637 1497h-149l-234 278h193zM251 1492h130c0 -84 50 -163 165 -163s165 79 165 163h129c0 -131 -89 -281 -294 -281s-296 149 -295 281z" />
    <glyph glyph-name="Adotmacron.sc" horiz-adv-x="1093" 
d="M243 0h-206l394 1080h233l392 -1080h-219l-98 291h-398zM546 885h-9l-151 -448h309zM432 1325c0 64 50 114 111 114c65 0 115 -50 115 -114s-50 -112 -115 -112c-61 0 -111 48 -111 112zM825 1571h-558v128h558v-128z" />
    <glyph glyph-name="Aringbelow.sc" horiz-adv-x="1093" 
d="M243 0h-206l394 1080h233l392 -1080h-219l-98 291h-398zM546 885h-9l-151 -448h309zM546 -504c-110 0 -198 82 -198 193c0 110 88 192 198 192c111 0 198 -82 198 -192c0 -111 -87 -193 -198 -193zM447 -311c0 -57 43 -101 99 -101s99 44 99 101c0 56 -43 100 -99 100
s-99 -44 -99 -100z" />
    <glyph glyph-name="Acircumflex.sc" horiz-adv-x="1093" 
d="M267 1214l217 303h126l217 -303h-161l-117 180h-4l-117 -180h-161zM243 0h-206l394 1080h233l392 -1080h-219l-98 291h-398zM546 885h-9l-151 -448h309z" />
    <glyph glyph-name="Acircumflexdotbelow.sc" horiz-adv-x="1093" 
d="M267 1214l217 303h126l217 -303h-161l-117 180h-4l-117 -180h-161zM243 0h-206l394 1080h233l392 -1080h-219l-98 291h-398zM546 885h-9l-151 -448h309zM447 -268c0 59 45 103 100 103c56 0 100 -44 100 -103c0 -57 -44 -101 -100 -101c-55 0 -100 44 -100 101z" />
    <glyph glyph-name="Acircumflexacute.sc" horiz-adv-x="1093" 
d="M904 1437h-149l191 279h193zM266 1214l217 303h126l217 -303h-161l-117 180h-4l-117 -180h-161zM243 0h-206l394 1080h233l392 -1080h-219l-98 291h-398zM546 885h-9l-151 -448h309z" />
    <glyph glyph-name="Acircumflextilde.sc" horiz-adv-x="1093" 
d="M243 0h-206l394 1080h233l392 -1080h-219l-98 291h-398zM546 885h-9l-151 -448h309zM386 1624h-118c0 109 55 211 171 211c124 0 138 -119 201 -119c42 0 61 56 64 101h119c0 -98 -60 -212 -180 -212c-124 0 -135 119 -200 119c-47 0 -56 -64 -57 -100zM266 1214l217 303
h126l217 -303h-161l-117 180h-4l-117 -180h-161z" />
    <glyph glyph-name="Acircumflexgrave.sc" horiz-adv-x="1093" 
d="M1012 1437h-149l-235 279h193zM266 1214l217 303h126l217 -303h-161l-117 180h-4l-117 -180h-161zM243 0h-206l394 1080h233l392 -1080h-219l-98 291h-398zM546 885h-9l-151 -448h309z" />
    <glyph glyph-name="Acircumflexhookabove.sc" horiz-adv-x="1093" 
d="M683 1654v103c18 10 57 18 102 18c124 0 205 -73 205 -180c0 -92 -62 -152 -150 -188l-61 83c65 28 91 56 91 99c0 47 -43 84 -103 84c-36 0 -69 -11 -84 -19zM266 1214l217 303h126l217 -303h-161l-117 180h-4l-117 -180h-161zM243 0h-206l394 1080h233l392 -1080h-219
l-98 291h-398zM546 885h-9l-151 -448h309z" />
    <glyph glyph-name="Abreve.sc" horiz-adv-x="1093" 
d="M243 0h-206l394 1080h233l392 -1080h-219l-98 291h-398zM546 885h-9l-151 -448h309zM251 1492h130c0 -84 50 -163 165 -163s165 79 165 163h129c0 -131 -89 -281 -294 -281s-296 149 -295 281z" />
    <glyph glyph-name="Abreveacute.sc" horiz-adv-x="1093" 
d="M243 0h-206l394 1080h233l392 -1080h-219l-98 291h-398zM546 885h-9l-151 -448h309zM599 1497h-149l191 278h193zM251 1492h130c0 -84 50 -163 165 -163s165 79 165 163h129c0 -131 -89 -281 -294 -281s-296 149 -295 281z" />
    <glyph glyph-name="Abrevetilde.sc" horiz-adv-x="1093" 
d="M243 0h-206l394 1080h233l392 -1080h-219l-98 291h-398zM546 885h-9l-151 -448h309zM386 1624h-118c0 109 55 211 171 211c124 0 138 -119 201 -119c42 0 61 56 64 101h119c0 -98 -60 -212 -180 -212c-124 0 -135 119 -200 119c-47 0 -56 -64 -57 -100zM251 1492h130
c0 -84 50 -163 165 -163s165 79 165 163h129c0 -131 -89 -281 -294 -281s-296 149 -295 281z" />
    <glyph glyph-name="Abrevehookabove.sc" horiz-adv-x="1093" 
d="M243 0h-206l394 1080h233l392 -1080h-219l-98 291h-398zM546 885h-9l-151 -448h309zM367 1716v103c18 10 57 18 102 18c125 0 205 -74 205 -180c0 -92 -62 -153 -149 -188l-62 83c66 28 92 55 92 98c0 48 -44 85 -104 85c-36 0 -69 -11 -84 -19zM251 1492h130
c0 -84 50 -163 165 -163s165 79 165 163h129c0 -131 -89 -281 -294 -281s-296 149 -295 281z" />
    <glyph glyph-name="Abrevedotbelow.sc" horiz-adv-x="1093" 
d="M448 -268c0 59 45 103 100 103c56 0 100 -44 100 -103c0 -57 -44 -101 -100 -101c-55 0 -100 44 -100 101zM243 0h-206l394 1080h233l392 -1080h-219l-98 291h-398zM546 885h-9l-151 -448h309zM251 1492h130c0 -84 50 -163 165 -163s165 79 165 163h129
c0 -131 -89 -281 -294 -281s-296 149 -295 281z" />
    <glyph glyph-name="Ainvertedbreve.sc" horiz-adv-x="1093" 
d="M243 0h-206l394 1080h233l392 -1080h-219l-98 291h-398zM546 885h-9l-151 -448h309zM248 1235c-1 133 91 284 298 284s296 -151 297 -284h-131c0 84 -50 164 -166 164s-166 -80 -166 -164h-132z" />
    <glyph glyph-name="Acaron.sc" horiz-adv-x="1093" 
d="M266 1517h161l117 -180h3l117 180h162l-217 -303h-127zM243 0h-206l394 1080h233l392 -1080h-219l-98 291h-398zM546 885h-9l-151 -448h309z" />
    <glyph glyph-name="Adotaccent.sc" horiz-adv-x="1093" 
d="M433 1330c0 64 50 114 111 114c65 0 115 -50 115 -114s-50 -112 -115 -112c-61 0 -111 48 -111 112zM243 0h-206l394 1080h233l392 -1080h-219l-98 291h-398zM546 885h-9l-151 -448h309z" />
    <glyph glyph-name="Adotbelow.sc" horiz-adv-x="1093" 
d="M446 -268c0 59 45 103 100 103c56 0 100 -44 100 -103c0 -57 -44 -101 -100 -101c-55 0 -100 44 -100 101zM243 0h-206l394 1080h233l392 -1080h-219l-98 291h-398zM546 885h-9l-151 -448h309z" />
    <glyph glyph-name="Ahookabove.sc" horiz-adv-x="1093" 
d="M243 0h-206l394 1080h233l392 -1080h-219l-98 291h-398zM546 885h-9l-151 -448h309zM404 1449v105c20 10 59 18 107 18c127 0 208 -75 208 -184c0 -95 -63 -155 -153 -193l-64 85c68 29 94 58 94 101c0 48 -44 87 -106 87c-36 0 -69 -11 -86 -19z" />
    <glyph glyph-name="Adblgrave.sc" horiz-adv-x="1093" 
d="M243 0h-206l394 1080h233l392 -1080h-219l-98 291h-398zM546 885h-9l-151 -448h309zM343 1214l-229 279h169l191 -279h-131zM636 1214l-230 279h168l191 -279h-129z" />
    <glyph glyph-name="Amacron.sc" horiz-adv-x="1093" 
d="M243 0h-206l394 1080h233l392 -1080h-219l-98 291h-398zM546 885h-9l-151 -448h309zM825 1263h-558v128h558v-128z" />
    <glyph glyph-name="Aogonek.sc" horiz-adv-x="1093" 
d="M1068 -376c-19 -9 -67 -20 -131 -20c-114 0 -233 60 -233 195c0 117 82 183 145 225v3h-22l-88 264h-398l-98 -291h-206l394 1080h233l388 -1066c-75 -25 -174 -79 -179 -166c-4 -71 46 -107 115 -107c23 0 58 3 80 8v-125zM546 885h-9l-151 -448h309z" />
    <glyph glyph-name="B.sc" horiz-adv-x="1098" 
d="M149 0v1080h467c199 0 336 -98 336 -266c0 -135 -86 -211 -195 -237v-8c148 -15 255 -110 255 -264c0 -199 -173 -305 -401 -305h-462zM352 929v-299h159c159 0 238 47 238 152c0 101 -75 147 -178 147h-219zM352 484v-332h179c161 0 273 34 273 162
c0 112 -85 170 -217 170h-235z" />
    <glyph glyph-name="Blinebelow.sc" horiz-adv-x="1098" 
d="M794 -340h-558v128h558v-128zM149 0v1080h467c199 0 336 -98 336 -266c0 -135 -86 -211 -195 -237v-8c148 -15 255 -110 255 -264c0 -199 -173 -305 -401 -305h-462zM352 929v-299h159c159 0 238 47 238 152c0 101 -75 147 -178 147h-219zM352 484v-332h179
c161 0 273 34 273 162c0 112 -85 170 -217 170h-235z" />
    <glyph glyph-name="Bdotbelow.sc" horiz-adv-x="1098" 
d="M417 -268c0 59 45 103 100 103c56 0 100 -44 100 -103c0 -57 -44 -101 -100 -101c-55 0 -100 44 -100 101zM149 0v1080h467c199 0 336 -98 336 -266c0 -135 -86 -211 -195 -237v-8c148 -15 255 -110 255 -264c0 -199 -173 -305 -401 -305h-462zM352 929v-299h159
c159 0 238 47 238 152c0 101 -75 147 -178 147h-219zM352 484v-332h179c161 0 273 34 273 162c0 112 -85 170 -217 170h-235z" />
    <glyph glyph-name="Bdotaccent.sc" horiz-adv-x="1098" 
d="M402 1330c0 64 50 114 111 114c65 0 115 -50 115 -114s-50 -112 -115 -112c-61 0 -111 48 -111 112zM149 0v1080h467c199 0 336 -98 336 -266c0 -135 -86 -211 -195 -237v-8c148 -15 255 -110 255 -264c0 -199 -173 -305 -401 -305h-462zM352 929v-299h159
c159 0 238 47 238 152c0 101 -75 147 -178 147h-219zM352 484v-332h179c161 0 273 34 273 162c0 112 -85 170 -217 170h-235z" />
    <glyph glyph-name="C.sc" horiz-adv-x="1118" 
d="M310 607v-139c0 -220 106 -325 270 -325c161 0 243 98 243 213h198v-15c0 -180 -152 -362 -446 -362s-472 175 -472 488v141c0 310 180 493 474 493c284 0 444 -179 444 -375v-16h-198c0 114 -85 227 -246 227c-160 0 -267 -112 -267 -330z" />
    <glyph glyph-name="Cacute.sc" horiz-adv-x="1118" 
d="M635 1214h-149l191 278h193zM310 607v-139c0 -220 106 -325 270 -325c161 0 243 98 243 213h198v-15c0 -180 -152 -362 -446 -362s-472 175 -472 488v141c0 310 180 493 474 493c284 0 444 -179 444 -375v-16h-198c0 114 -85 227 -246 227c-160 0 -267 -112 -267 -330z
" />
    <glyph glyph-name="Ccaron.sc" horiz-adv-x="1118" 
d="M293 1517h161l117 -180h3l117 180h162l-217 -303h-127zM310 607v-139c0 -220 106 -325 270 -325c161 0 243 98 243 213h198v-15c0 -180 -152 -362 -446 -362s-472 175 -472 488v141c0 310 180 493 474 493c284 0 444 -179 444 -375v-16h-198c0 114 -85 227 -246 227
c-160 0 -267 -112 -267 -330z" />
    <glyph glyph-name="Ccircumflex.sc" horiz-adv-x="1118" 
d="M293 1214l217 303h126l217 -303h-161l-117 180h-4l-117 -180h-161zM310 607v-139c0 -220 106 -325 270 -325c161 0 243 98 243 213h198v-15c0 -180 -152 -362 -446 -362s-472 175 -472 488v141c0 310 180 493 474 493c284 0 444 -179 444 -375v-16h-198
c0 114 -85 227 -246 227c-160 0 -267 -112 -267 -330z" />
    <glyph glyph-name="Cdotaccent.sc" horiz-adv-x="1118" 
d="M460 1330c0 64 50 114 111 114c65 0 115 -50 115 -114s-50 -112 -115 -112c-61 0 -111 48 -111 112zM310 607v-139c0 -220 106 -325 270 -325c161 0 243 98 243 213h198v-15c0 -180 -152 -362 -446 -362s-472 175 -472 488v141c0 310 180 493 474 493
c284 0 444 -179 444 -375v-16h-198c0 114 -85 227 -246 227c-160 0 -267 -112 -267 -330z" />
    <glyph glyph-name="Ccedilla.sc" horiz-adv-x="1118" 
d="M575 -468c-63 -2 -122 7 -150 15v111c27 -8 82 -14 115 -14c54 0 116 15 116 73c0 64 -59 66 -135 66h-53v85l43 113c-255 25 -408 197 -408 486v141c0 310 180 493 474 493c284 0 444 -179 444 -375v-16h-198c0 114 -85 227 -246 227c-160 0 -267 -112 -267 -330v-139
c0 -220 106 -325 270 -325c161 0 243 98 243 213h198v-15c0 -164 -127 -334 -379 -359l-36 -97c124 0 198 -55 198 -163c0 -129 -101 -185 -229 -190z" />
    <glyph glyph-name="Ccedillaacute.sc" horiz-adv-x="1118" 
d="M575 -468c-63 -2 -122 7 -150 15v111c27 -8 82 -14 115 -14c54 0 116 15 116 73c0 64 -59 66 -135 66h-53v85l43 113c-255 25 -408 197 -408 486v141c0 310 180 493 474 493c284 0 444 -179 444 -375v-16h-198c0 114 -85 227 -246 227c-160 0 -267 -112 -267 -330v-139
c0 -220 106 -325 270 -325c161 0 243 98 243 213h198v-15c0 -164 -127 -334 -379 -359l-36 -97c124 0 198 -55 198 -163c0 -129 -101 -185 -229 -190zM635 1214h-149l191 278h193z" />
    <glyph glyph-name="D.sc" horiz-adv-x="1158" 
d="M149 1080h406c372 0 514 -221 514 -538c0 -314 -138 -542 -514 -542h-406v1080zM354 920v-760h177c214 0 327 112 327 379c0 223 -82 381 -327 381h-177z" />
    <glyph glyph-name="Ddotaccent.sc" horiz-adv-x="1158" 
d="M149 1080h406c372 0 514 -221 514 -538c0 -314 -138 -542 -514 -542h-406v1080zM354 920v-760h177c214 0 327 112 327 379c0 223 -82 381 -327 381h-177zM408 1330c0 64 50 114 111 114c65 0 115 -50 115 -114s-50 -112 -115 -112c-61 0 -111 48 -111 112z" />
    <glyph glyph-name="Dcircumflexbelow.sc" horiz-adv-x="1158" 
d="M149 1080h406c372 0 514 -221 514 -538c0 -314 -138 -542 -514 -542h-406v1080zM354 920v-760h177c214 0 327 112 327 379c0 223 -82 381 -327 381h-177zM244 -400l212 287h130l212 -287h-159l-116 178h-4l-116 -178h-159z" />
    <glyph glyph-name="Dcommaaccent.sc" horiz-adv-x="1158" 
d="M149 1080h406c372 0 514 -221 514 -538c0 -314 -138 -542 -514 -542h-406v1080zM354 920v-760h177c214 0 327 112 327 379c0 223 -82 381 -327 381h-177zM507 -489h-149l85 335h178z" />
    <glyph glyph-name="Dlinebelow.sc" horiz-adv-x="1158" 
d="M149 1080h406c372 0 514 -221 514 -538c0 -314 -138 -542 -514 -542h-406v1080zM354 920v-760h177c214 0 327 112 327 379c0 223 -82 381 -327 381h-177zM800 -340h-558v128h558v-128z" />
    <glyph glyph-name="Dcaron.sc" horiz-adv-x="1158" 
d="M149 1080h406c372 0 514 -221 514 -538c0 -314 -138 -542 -514 -542h-406v1080zM354 920v-760h177c214 0 327 112 327 379c0 223 -82 381 -327 381h-177zM241 1517h161l117 -180h3l117 180h162l-217 -303h-127z" />
    <glyph glyph-name="Ddotbelow.sc" horiz-adv-x="1158" 
d="M149 1080h406c372 0 514 -221 514 -538c0 -314 -138 -542 -514 -542h-406v1080zM354 920v-760h177c214 0 327 112 327 379c0 223 -82 381 -327 381h-177zM423 -268c0 59 45 103 100 103c56 0 100 -44 100 -103c0 -57 -44 -101 -100 -101c-55 0 -100 44 -100 101z" />
    <glyph glyph-name="Dcroat.sc" horiz-adv-x="1229" 
d="M627 0h-406v471h-139v156h139v453h406c372 0 514 -221 514 -538c0 -314 -139 -542 -514 -542zM425 162h177c214 0 326 113 326 380c0 223 -80 381 -326 381h-177v-301h226v-146h-226v-314z" />
    <glyph glyph-name="E.sc" horiz-adv-x="989" 
d="M877 160v-160h-728v1080h728v-159h-525v-296h494v-154h-494v-311h525z" />
    <glyph glyph-name="Egrave.sc" horiz-adv-x="989" 
d="M597 1214h-149l-235 278h194zM877 160v-160h-728v1080h728v-159h-525v-296h494v-154h-494v-311h525z" />
    <glyph glyph-name="Edblgrave.sc" horiz-adv-x="989" 
d="M307 1214l-229 279h169l191 -279h-131zM600 1214l-230 279h168l191 -279h-129zM877 160v-160h-728v1080h728v-159h-525v-296h494v-154h-494v-311h525z" />
    <glyph glyph-name="Eacute.sc" horiz-adv-x="989" 
d="M572 1214h-149l191 278h193zM877 160v-160h-728v1080h728v-159h-525v-296h494v-154h-494v-311h525z" />
    <glyph glyph-name="Ecircumflex.sc" horiz-adv-x="989" 
d="M230 1214l217 303h126l217 -303h-161l-117 180h-4l-117 -180h-161zM877 160v-160h-728v1080h728v-159h-525v-296h494v-154h-494v-311h525z" />
    <glyph glyph-name="Ecircumflexhookabove.sc" horiz-adv-x="989" 
d="M647 1654v103c18 10 57 18 102 18c124 0 205 -73 205 -180c0 -92 -62 -152 -150 -188l-61 83c65 28 91 56 91 99c0 47 -43 84 -103 84c-36 0 -69 -11 -84 -19zM230 1214l217 303h126l217 -303h-161l-117 180h-4l-117 -180h-161zM877 160v-160h-728v1080h728v-159h-525
v-296h494v-154h-494v-311h525z" />
    <glyph glyph-name="Ecircumflexgrave.sc" horiz-adv-x="989" 
d="M976 1437h-149l-235 279h193zM230 1214l217 303h126l217 -303h-161l-117 180h-4l-117 -180h-161zM877 160v-160h-728v1080h728v-159h-525v-296h494v-154h-494v-311h525z" />
    <glyph glyph-name="Ecircumflextilde.sc" horiz-adv-x="989" 
d="M350 1624h-118c0 109 55 211 171 211c124 0 138 -119 201 -119c42 0 61 56 64 101h119c0 -98 -60 -212 -180 -212c-124 0 -135 119 -200 119c-47 0 -56 -64 -57 -100zM230 1214l217 303h126l217 -303h-161l-117 180h-4l-117 -180h-161zM877 160v-160h-728v1080h728v-159
h-525v-296h494v-154h-494v-311h525z" />
    <glyph glyph-name="Ecircumflexdotbelow.sc" horiz-adv-x="989" 
d="M230 1214l217 303h126l217 -303h-161l-117 180h-4l-117 -180h-161zM877 160v-160h-728v1080h728v-159h-525v-296h494v-154h-494v-311h525zM412 -268c0 59 45 103 100 103c56 0 100 -44 100 -103c0 -57 -44 -101 -100 -101c-55 0 -100 44 -100 101z" />
    <glyph glyph-name="Ecircumflexacute.sc" horiz-adv-x="989" 
d="M868 1437h-149l191 279h193zM230 1214l217 303h126l217 -303h-161l-117 180h-4l-117 -180h-161zM877 160v-160h-728v1080h728v-159h-525v-296h494v-154h-494v-311h525z" />
    <glyph glyph-name="Edieresis.sc" horiz-adv-x="989" 
d="M341 1224c-55 0 -98 44 -98 100c0 60 43 103 98 103c57 0 99 -43 99 -103c0 -56 -42 -100 -99 -100zM697 1224c-55 0 -97 44 -97 100c0 60 42 103 97 103c58 0 101 -43 101 -103c0 -56 -43 -100 -101 -100zM877 160v-160h-728v1080h728v-159h-525v-296h494v-154h-494
v-311h525z" />
    <glyph glyph-name="Edotbelow.sc" horiz-adv-x="989" 
d="M412 -268c0 59 45 103 100 103c56 0 100 -44 100 -103c0 -57 -44 -101 -100 -101c-55 0 -100 44 -100 101zM877 160v-160h-728v1080h728v-159h-525v-296h494v-154h-494v-311h525z" />
    <glyph glyph-name="Einvertedbreve.sc" horiz-adv-x="989" 
d="M877 160v-160h-728v1080h728v-159h-525v-296h494v-154h-494v-311h525zM212 1235c-1 133 91 284 298 284s296 -151 297 -284h-131c0 84 -50 164 -166 164s-166 -80 -166 -164h-132z" />
    <glyph glyph-name="Ehookabove.sc" horiz-adv-x="989" 
d="M368 1449v105c20 10 59 18 107 18c127 0 208 -75 208 -184c0 -95 -63 -155 -153 -193l-64 85c68 29 94 58 94 101c0 48 -44 87 -106 87c-36 0 -69 -11 -86 -19zM877 160v-160h-728v1080h728v-159h-525v-296h494v-154h-494v-311h525z" />
    <glyph glyph-name="Ecaron.sc" horiz-adv-x="989" 
d="M230 1517h161l117 -180h3l117 180h162l-217 -303h-127zM877 160v-160h-728v1080h728v-159h-525v-296h494v-154h-494v-311h525z" />
    <glyph glyph-name="Emacron.sc" horiz-adv-x="989" 
d="M789 1263h-558v128h558v-128zM877 160v-160h-728v1080h728v-159h-525v-296h494v-154h-494v-311h525z" />
    <glyph glyph-name="Emacrongrave.sc" horiz-adv-x="989" 
d="M877 160v-160h-728v1080h728v-159h-525v-296h494v-154h-494v-311h525zM597 1529h-149l-235 278h194zM789 1263h-558v128h558v-128z" />
    <glyph glyph-name="Emacronacute.sc" horiz-adv-x="989" 
d="M575 1531h-149l191 278h193zM789 1263h-558v128h558v-128zM877 160v-160h-728v1080h728v-159h-525v-296h494v-154h-494v-311h525z" />
    <glyph glyph-name="Etilde.sc" horiz-adv-x="989" 
d="M619 1209c-133 0 -170 128 -242 128c-56 0 -65 -73 -66 -108h-128c0 118 64 228 189 228c133 0 172 -127 244 -127c50 0 69 63 73 110h128c0 -108 -68 -231 -198 -231zM877 160v-160h-728v1080h728v-159h-525v-296h494v-154h-494v-311h525z" />
    <glyph glyph-name="Ecircumflexbelow.sc" horiz-adv-x="989" 
d="M877 160v-160h-728v1080h728v-159h-525v-296h494v-154h-494v-311h525zM233 -400l212 287h130l212 -287h-159l-116 178h-4l-116 -178h-159z" />
    <glyph glyph-name="Ebreve.sc" horiz-adv-x="989" 
d="M215 1492h130c0 -84 50 -163 165 -163s165 79 165 163h129c0 -131 -89 -281 -294 -281s-296 149 -295 281zM877 160v-160h-728v1080h728v-159h-525v-296h494v-154h-494v-311h525z" />
    <glyph glyph-name="Etildebelow.sc" horiz-adv-x="989" 
d="M621 -375c-127 0 -164 122 -230 122c-50 0 -59 -67 -60 -102h-123c0 112 59 217 178 217c127 0 166 -122 232 -122c44 0 64 57 67 104h123c0 -102 -63 -219 -187 -219zM877 160v-160h-728v1080h728v-159h-525v-296h494v-154h-494v-311h525z" />
    <glyph glyph-name="Edotaccent.sc" horiz-adv-x="989" 
d="M397 1330c0 64 50 114 111 114c65 0 115 -50 115 -114s-50 -112 -115 -112c-61 0 -111 48 -111 112zM877 160v-160h-728v1080h728v-159h-525v-296h494v-154h-494v-311h525z" />
    <glyph glyph-name="Ecedilla.sc" horiz-adv-x="989" 
d="M502 -485c-63 -3 -122 7 -149 15v110c27 -8 81 -13 115 -13c54 0 115 15 115 73c0 63 -67 65 -143 65h-53v86l56 149h-294v1080h728v-161h-525v-295h494v-152h-494v-311h525v-161h-303l-49 -132c124 0 207 -55 207 -163c0 -129 -101 -185 -230 -190z" />
    <glyph glyph-name="Ecedillabreve.sc" horiz-adv-x="989" 
d="M502 -485c-63 -3 -122 7 -149 15v110c27 -8 81 -13 115 -13c54 0 115 15 115 73c0 63 -67 65 -143 65h-53v86l56 149h-294v1080h728v-161h-525v-295h494v-152h-494v-311h525v-161h-303l-49 -132c124 0 207 -55 207 -163c0 -129 -101 -185 -230 -190zM215 1492h130
c0 -84 50 -163 165 -163s165 79 165 163h129c0 -131 -89 -281 -294 -281s-296 149 -295 281z" />
    <glyph glyph-name="Eogonek.sc" horiz-adv-x="989" 
d="M755 -387c-122 0 -230 59 -230 195c0 84 50 147 118 189v3h-494v1080h728v-161h-525v-295h494v-152h-494v-311h525v-134c-91 -22 -194 -81 -194 -178c0 -65 46 -99 118 -99c25 0 59 3 77 8v-126c-27 -9 -76 -19 -123 -19z" />
    <glyph glyph-name="F.sc" horiz-adv-x="937" 
d="M354 0h-205v1080h720v-162h-515v-320h471v-158h-471v-440z" />
    <glyph glyph-name="Fdotaccent.sc" horiz-adv-x="937" 
d="M354 0h-205v1080h720v-162h-515v-320h471v-158h-471v-440zM380 1330c0 64 50 114 111 114c65 0 115 -50 115 -114s-50 -112 -115 -112c-61 0 -111 48 -111 112z" />
    <glyph glyph-name="G.sc" horiz-adv-x="1139" 
d="M1033 739h-200c-17 130 -121 198 -249 198c-155 0 -275 -99 -275 -325v-138c0 -198 85 -331 274 -331c155 0 257 89 257 207v77h-256v150h451v-217c0 -162 -114 -381 -452 -381c-328 0 -480 204 -480 494v141c0 300 184 487 483 487c290 0 438 -175 447 -362z" />
    <glyph glyph-name="Gacute.sc" horiz-adv-x="1139" 
d="M1033 739h-200c-17 130 -121 198 -249 198c-155 0 -275 -99 -275 -325v-138c0 -198 85 -331 274 -331c155 0 257 89 257 207v77h-256v150h451v-217c0 -162 -114 -381 -452 -381c-328 0 -480 204 -480 494v141c0 300 184 487 483 487c290 0 438 -175 447 -362zM644 1214
h-149l191 278h193z" />
    <glyph glyph-name="Gcaron.sc" horiz-adv-x="1139" 
d="M1033 739h-200c-17 130 -121 198 -249 198c-155 0 -275 -99 -275 -325v-138c0 -198 85 -331 274 -331c155 0 257 89 257 207v77h-256v150h451v-217c0 -162 -114 -381 -452 -381c-328 0 -480 204 -480 494v141c0 300 184 487 483 487c290 0 438 -175 447 -362zM302 1517
h161l117 -180h3l117 180h162l-217 -303h-127z" />
    <glyph glyph-name="Gcircumflex.sc" horiz-adv-x="1139" 
d="M1033 739h-200c-17 130 -121 198 -249 198c-155 0 -275 -99 -275 -325v-138c0 -198 85 -331 274 -331c155 0 257 89 257 207v77h-256v150h451v-217c0 -162 -114 -381 -452 -381c-328 0 -480 204 -480 494v141c0 300 184 487 483 487c290 0 438 -175 447 -362zM302 1214
l217 303h126l217 -303h-161l-117 180h-4l-117 -180h-161z" />
    <glyph glyph-name="Gbreve.sc" horiz-adv-x="1139" 
d="M1033 739h-200c-17 130 -121 198 -249 198c-155 0 -275 -99 -275 -325v-138c0 -198 85 -331 274 -331c155 0 257 89 257 207v77h-256v150h451v-217c0 -162 -114 -381 -452 -381c-328 0 -480 204 -480 494v141c0 300 184 487 483 487c290 0 438 -175 447 -362zM287 1492
h130c0 -84 50 -163 165 -163s165 79 165 163h129c0 -131 -89 -281 -294 -281s-296 149 -295 281z" />
    <glyph glyph-name="Gmacron.sc" horiz-adv-x="1139" 
d="M1033 739h-200c-17 130 -121 198 -249 198c-155 0 -275 -99 -275 -325v-138c0 -198 85 -331 274 -331c155 0 257 89 257 207v77h-256v150h451v-217c0 -162 -114 -381 -452 -381c-328 0 -480 204 -480 494v141c0 300 184 487 483 487c290 0 438 -175 447 -362zM861 1263
h-558v128h558v-128z" />
    <glyph glyph-name="Gdotaccent.sc" horiz-adv-x="1139" 
d="M1033 739h-200c-17 130 -121 198 -249 198c-155 0 -275 -99 -275 -325v-138c0 -198 85 -331 274 -331c155 0 257 89 257 207v77h-256v150h451v-217c0 -162 -114 -381 -452 -381c-328 0 -480 204 -480 494v141c0 300 184 487 483 487c290 0 438 -175 447 -362zM469 1330
c0 64 50 114 111 114c65 0 115 -50 115 -114s-50 -112 -115 -112c-61 0 -111 48 -111 112z" />
    <glyph glyph-name="Gcommaaccent.sc" horiz-adv-x="1139" 
d="M1033 739h-200c-17 130 -121 198 -249 198c-155 0 -275 -99 -275 -325v-138c0 -198 85 -331 274 -331c155 0 257 89 257 207v77h-256v150h451v-217c0 -162 -114 -381 -452 -381c-328 0 -480 204 -480 494v141c0 300 184 487 483 487c290 0 438 -175 447 -362zM564 -489
h-149l85 335h178z" />
    <glyph glyph-name="H.sc" horiz-adv-x="1221" 
d="M1072 0h-205v472h-513v-472h-205v1080h205v-446h513v446h205v-1080z" />
    <glyph glyph-name="Hdieresis.sc" horiz-adv-x="1221" 
d="M1072 0h-205v472h-513v-472h-205v1080h205v-446h513v446h205v-1080zM440 1224c-55 0 -98 44 -98 100c0 60 43 103 98 103c57 0 99 -43 99 -103c0 -56 -42 -100 -99 -100zM796 1224c-55 0 -97 44 -97 100c0 60 42 103 97 103c58 0 101 -43 101 -103
c0 -56 -43 -100 -101 -100z" />
    <glyph glyph-name="Hcaron.sc" horiz-adv-x="1221" 
d="M330 1517h161l117 -180h3l117 180h162l-217 -303h-127zM1072 0h-205v472h-513v-472h-205v1080h205v-446h513v446h205v-1080z" />
    <glyph glyph-name="Hcircumflex.sc" horiz-adv-x="1221" 
d="M331 1214l217 303h126l217 -303h-161l-117 180h-4l-117 -180h-161zM1072 0h-205v472h-513v-472h-205v1080h205v-446h513v446h205v-1080z" />
    <glyph glyph-name="Hdotbelow.sc" horiz-adv-x="1221" 
d="M510 -268c0 59 45 103 100 103c56 0 100 -44 100 -103c0 -57 -44 -101 -100 -101c-55 0 -100 44 -100 101zM1072 0h-205v472h-513v-472h-205v1080h205v-446h513v446h205v-1080z" />
    <glyph glyph-name="Hdotaccent.sc" horiz-adv-x="1221" 
d="M497 1330c0 64 50 114 111 114c65 0 115 -50 115 -114s-50 -112 -115 -112c-61 0 -111 48 -111 112zM1072 0h-205v472h-513v-472h-205v1080h205v-446h513v446h205v-1080z" />
    <glyph glyph-name="Hbrevebelow.sc" horiz-adv-x="1221" 
d="M1072 0h-205v472h-513v-472h-205v1080h205v-446h513v446h205v-1080zM784 -137h131c0 -134 -87 -284 -305 -284s-313 146 -313 284h139c0 -84 55 -164 174 -164s174 80 174 164z" />
    <glyph glyph-name="Hcedilla.sc" horiz-adv-x="1221" 
d="M282 -485c-63 -3 -122 7 -149 15v110c27 -8 82 -13 115 -13c54 0 115 15 115 73c0 63 -67 65 -143 65h-53v86l56 149h-74v1080h205v-446h513v446h205v-1080h-205v472h-513v-472l-49 -132c124 0 207 -55 207 -163c0 -129 -101 -185 -230 -190z" />
    <glyph glyph-name="Hbar.sc" horiz-adv-x="1220" 
d="M354 617h513v172h-513v-172zM354 455v-455h-205v789h-83v126h83v165h205v-165h513v165h205v-165h82v-126h-82v-789h-205v455h-513z" />
    <glyph glyph-name="I.sc" horiz-adv-x="503" 
d="M354 0h-205v1080h205v-1080z" />
    <glyph glyph-name="Idotaccent.sc" horiz-adv-x="503" 
d="M138 1330c0 64 50 114 111 114c65 0 115 -50 115 -114s-50 -112 -115 -112c-61 0 -111 48 -111 112zM354 0h-205v1080h205v-1080z" />
    <glyph glyph-name="Igrave.sc" horiz-adv-x="503" 
d="M338 1214h-149l-235 278h194zM354 0h-205v1080h205v-1080z" />
    <glyph glyph-name="Idblgrave.sc" horiz-adv-x="503" 
d="M354 0h-205v1080h205v-1080zM48 1214l-229 279h169l191 -279h-131zM341 1214l-230 279h168l191 -279h-129z" />
    <glyph glyph-name="Iacute.sc" horiz-adv-x="503" 
d="M313 1214h-149l191 278h193zM354 0h-205v1080h205v-1080z" />
    <glyph glyph-name="Icircumflex.sc" horiz-adv-x="503" 
d="M-29 1214l217 303h126l217 -303h-161l-117 180h-4l-117 -180h-161zM354 0h-205v1080h205v-1080z" />
    <glyph glyph-name="Icaron.sc" horiz-adv-x="503" 
d="M-29 1517h161l117 -180h3l117 180h162l-217 -303h-127zM354 0h-205v1080h205v-1080z" />
    <glyph glyph-name="Idieresis.sc" horiz-adv-x="503" 
d="M353 0h-205v1080h205v-1080zM82 1224c-55 0 -98 44 -98 100c0 60 43 103 98 103c57 0 99 -43 99 -103c0 -56 -42 -100 -99 -100zM438 1224c-55 0 -97 44 -97 100c0 60 42 103 97 103c58 0 101 -43 101 -103c0 -56 -43 -100 -101 -100z" />
    <glyph glyph-name="Idieresisacute.sc" horiz-adv-x="503" 
d="M316 1531h-149l191 278h193zM82 1224c-55 0 -98 44 -98 100c0 60 43 103 98 103c57 0 99 -43 99 -103c0 -56 -42 -100 -99 -100zM438 1224c-55 0 -97 44 -97 100c0 60 42 103 97 103c58 0 101 -43 101 -103c0 -56 -43 -100 -101 -100zM354 0h-205v1080h205v-1080z" />
    <glyph glyph-name="Ibreve.sc" horiz-adv-x="503" 
d="M354 0h-205v1080h205v-1080zM-44 1492h130c0 -84 50 -163 165 -163s165 79 165 163h129c0 -131 -89 -281 -294 -281s-296 149 -295 281z" />
    <glyph glyph-name="Idotbelow.sc" horiz-adv-x="503" 
d="M153 -268c0 59 45 103 100 103c56 0 100 -44 100 -103c0 -57 -44 -101 -100 -101c-55 0 -100 44 -100 101zM356 0h-205v1080h205v-1080z" />
    <glyph glyph-name="Iinvertedbreve.sc" horiz-adv-x="503" 
d="M354 0h-205v1080h205v-1080zM-47 1235c-1 133 91 284 298 284s296 -151 297 -284h-131c0 84 -50 164 -166 164s-166 -80 -166 -164h-132z" />
    <glyph glyph-name="Imacron.sc" horiz-adv-x="503" 
d="M353 0h-205v1080h205v-1080zM530 1263h-558v128h558v-128z" />
    <glyph glyph-name="Itildebelow.sc" horiz-adv-x="503" 
d="M362 -375c-127 0 -164 122 -230 122c-50 0 -59 -67 -60 -102h-123c0 112 59 217 178 217c127 0 166 -122 232 -122c44 0 64 57 67 104h123c0 -102 -63 -219 -187 -219zM354 0h-205v1080h205v-1080z" />
    <glyph glyph-name="Ihookabove.sc" horiz-adv-x="503" 
d="M354 0h-205v1080h205v-1080zM109 1449v105c20 10 59 18 107 18c127 0 208 -75 208 -184c0 -95 -63 -155 -153 -193l-64 85c68 29 94 58 94 101c0 48 -44 87 -106 87c-36 0 -69 -11 -86 -19z" />
    <glyph glyph-name="Itilde.sc" horiz-adv-x="503" 
d="M354 0h-205v1080h205v-1080zM360 1209c-133 0 -170 128 -242 128c-56 0 -65 -73 -66 -108h-128c0 118 64 228 189 228c133 0 172 -127 244 -127c50 0 69 63 73 110h128c0 -108 -68 -231 -198 -231z" />
    <glyph glyph-name="Iogonek.sc" horiz-adv-x="503" 
d="M387 -366c-17 -9 -63 -21 -117 -21c-135 0 -231 74 -231 197c0 114 65 169 124 216v3h-14v1051h205v-1065c-91 -31 -152 -86 -152 -167c0 -62 51 -99 115 -99c20 0 49 3 70 9v-124z" />
    <glyph glyph-name="J.sc" horiz-adv-x="918" 
d="M43 292h198c3 -89 73 -141 159 -141c104 0 171 53 171 177v752h205v-744c0 -242 -150 -357 -374 -357c-233 0 -359 139 -359 313z" />
    <glyph glyph-name="Jcircumflex.sc" horiz-adv-x="918" 
d="M393 1214l217 303h126l217 -303h-161l-117 180h-4l-117 -180h-161zM43 292h198c3 -89 73 -141 159 -141c104 0 171 53 171 177v752h205v-744c0 -242 -150 -357 -374 -357c-233 0 -359 139 -359 313z" />
    <glyph glyph-name="K.sc" horiz-adv-x="1089" 
d="M1047 1080l-417 -463l437 -617h-250l-338 486l-125 -131v-355h-205v1080h205v-494h9l456 494h228z" />
    <glyph glyph-name="Kacute.sc" horiz-adv-x="1089" 
d="M604 1214h-149l191 278h193zM1047 1080l-417 -463l437 -617h-250l-338 486l-125 -131v-355h-205v1080h205v-494h9l456 494h228z" />
    <glyph glyph-name="Kcaron.sc" horiz-adv-x="1089" 
d="M262 1517h161l117 -180h3l117 180h162l-217 -303h-127zM1047 1080l-417 -463l437 -617h-250l-338 486l-125 -131v-355h-205v1080h205v-494h9l456 494h228z" />
    <glyph glyph-name="Kdotbelow.sc" horiz-adv-x="1089" 
d="M446 -268c0 59 45 103 100 103c56 0 100 -44 100 -103c0 -57 -44 -101 -100 -101c-55 0 -100 44 -100 101zM1047 1080l-417 -463l437 -617h-250l-338 486l-125 -131v-355h-205v1080h205v-494h9l456 494h228z" />
    <glyph glyph-name="Klinebelow.sc" horiz-adv-x="1089" 
d="M823 -340h-558v128h558v-128zM1047 1080l-417 -463l437 -617h-250l-338 486l-125 -131v-355h-205v1080h205v-494h9l456 494h228z" />
    <glyph glyph-name="Kcommaaccent.sc" horiz-adv-x="1089" 
d="M530 -489h-149l85 335h178zM1047 1080l-417 -463l437 -617h-250l-338 486l-125 -131v-355h-205v1080h205v-494h9l456 494h228z" />
    <glyph glyph-name="L.sc" horiz-adv-x="897" 
d="M856 164v-164h-707v1080h205v-916h502z" />
    <glyph glyph-name="Lacute.sc" horiz-adv-x="897" 
d="M856 164v-164h-707v1080h205v-916h502zM315 1214h-149l191 278h193z" />
    <glyph glyph-name="Lcircumflexbelow.sc" horiz-adv-x="897" 
d="M856 164v-164h-707v1080h205v-916h502zM176 -400l212 287h130l212 -287h-159l-116 178h-4l-116 -178h-159z" />
    <glyph glyph-name="Ldotbelow.sc" horiz-adv-x="897" 
d="M856 164v-164h-707v1080h205v-916h502zM355 -268c0 59 45 103 100 103c56 0 100 -44 100 -103c0 -57 -44 -101 -100 -101c-55 0 -100 44 -100 101z" />
    <glyph glyph-name="Ldotbelowmacron.sc" horiz-adv-x="897" 
d="M856 164v-164h-707v1080h205v-916h502zM355 -268c0 59 45 103 100 103c56 0 100 -44 100 -103c0 -57 -44 -101 -100 -101c-55 0 -100 44 -100 101zM532 1263h-558v128h558v-128z" />
    <glyph glyph-name="Llinebelow.sc" horiz-adv-x="897" 
d="M856 164v-164h-707v1080h205v-916h502zM732 -340h-558v128h558v-128z" />
    <glyph glyph-name="Lcommaaccent.sc" horiz-adv-x="897" 
d="M856 164v-164h-707v1080h205v-916h502zM439 -489h-149l85 335h178z" />
    <glyph glyph-name="Lcaron.sc" horiz-adv-x="897" 
d="M530 1166h183l-50 -488h-133v488zM856 164v-164h-707v1080h205v-916h502z" />
    <glyph glyph-name="Lslash.sc" horiz-adv-x="914" 
d="M873 0h-707v413l-104 -56v167l104 57v499h204v-390l286 154v-169l-286 -154v-357h503v-164z" />
    <glyph glyph-name="M.sc" horiz-adv-x="1411" 
d="M335 0h-183v1080h207l343 -739h8l343 739h206v-1080h-185v738h-10l-288 -615h-141l-290 615h-10v-738z" />
    <glyph glyph-name="Macute.sc" horiz-adv-x="1411" 
d="M767 1214h-149l191 278h193zM335 0h-183v1080h207l343 -739h8l343 739h206v-1080h-185v738h-10l-288 -615h-141l-290 615h-10v-738z" />
    <glyph glyph-name="Mdotaccent.sc" horiz-adv-x="1411" 
d="M592 1330c0 64 50 114 111 114c65 0 115 -50 115 -114s-50 -112 -115 -112c-61 0 -111 48 -111 112zM335 0h-183v1080h207l343 -739h8l343 739h206v-1080h-185v738h-10l-288 -615h-141l-290 615h-10v-738z" />
    <glyph glyph-name="Mdotbelow.sc" horiz-adv-x="1411" 
d="M606 -268c0 59 45 103 100 103c56 0 100 -44 100 -103c0 -57 -44 -101 -100 -101c-55 0 -100 44 -100 101zM335 0h-183v1080h207l343 -739h8l343 739h206v-1080h-185v738h-10l-288 -615h-141l-290 615h-10v-738z" />
    <glyph glyph-name="N.sc" horiz-adv-x="1206" 
d="M344 0h-195v1080h177l527 -752h8v752h196v-1080h-176l-529 755h-8v-755z" />
    <glyph glyph-name="Ngrave.sc" horiz-adv-x="1206" 
d="M344 0h-195v1080h177l527 -752h8v752h196v-1080h-176l-529 755h-8v-755zM689 1214h-149l-235 278h194z" />
    <glyph glyph-name="Nacute.sc" horiz-adv-x="1206" 
d="M344 0h-195v1080h177l527 -752h8v752h196v-1080h-176l-529 755h-8v-755zM664 1214h-149l191 278h193z" />
    <glyph glyph-name="Ntilde.sc" horiz-adv-x="1206" 
d="M344 0h-195v1080h177l527 -752h8v752h196v-1080h-176l-529 755h-8v-755zM711 1209c-133 0 -170 128 -242 128c-56 0 -65 -73 -66 -108h-128c0 118 64 228 189 228c133 0 172 -127 244 -127c50 0 69 63 73 110h128c0 -108 -68 -231 -198 -231z" />
    <glyph glyph-name="Ndotbelow.sc" horiz-adv-x="1206" 
d="M503 -268c0 59 45 103 100 103c56 0 100 -44 100 -103c0 -57 -44 -101 -100 -101c-55 0 -100 44 -100 101zM344 0h-195v1080h177l527 -752h8v752h196v-1080h-176l-529 755h-8v-755z" />
    <glyph glyph-name="Ndotaccent.sc" horiz-adv-x="1206" 
d="M344 0h-195v1080h177l527 -752h8v752h196v-1080h-176l-529 755h-8v-755zM489 1330c0 64 50 114 111 114c65 0 115 -50 115 -114s-50 -112 -115 -112c-61 0 -111 48 -111 112z" />
    <glyph glyph-name="Ncaron.sc" horiz-adv-x="1206" 
d="M325 1517h161l117 -180h3l117 180h162l-217 -303h-127zM344 0h-195v1080h177l527 -752h8v752h196v-1080h-176l-529 755h-8v-755z" />
    <glyph glyph-name="Ncircumflexbelow.sc" horiz-adv-x="1206" 
d="M344 0h-195v1080h177l527 -752h8v752h196v-1080h-176l-529 755h-8v-755zM325 -400l212 287h130l212 -287h-159l-116 178h-4l-116 -178h-159z" />
    <glyph glyph-name="Nlinebelow.sc" horiz-adv-x="1206" 
d="M344 0h-195v1080h177l527 -752h8v752h196v-1080h-176l-529 755h-8v-755zM884 -340h-558v128h558v-128z" />
    <glyph glyph-name="Ncommaaccent.sc" horiz-adv-x="1206" 
d="M344 0h-195v1080h177l527 -752h8v752h196v-1080h-176l-529 755h-8v-755zM588 -489h-149l85 335h178z" />
    <glyph glyph-name="O.sc" horiz-adv-x="1175" 
d="M310 609v-146c0 -218 117 -321 277 -321s277 103 277 321v146c0 217 -117 329 -277 329s-277 -112 -277 -329zM103 463v144c0 308 186 494 485 494c301 0 484 -188 484 -494v-144c0 -304 -186 -484 -486 -484s-483 180 -483 484z" />
    <glyph glyph-name="Odieresis.sc" horiz-adv-x="1175" 
d="M310 609v-146c0 -218 117 -321 277 -321s277 103 277 321v146c0 217 -117 329 -277 329s-277 -112 -277 -329zM103 463v144c0 308 186 494 485 494c301 0 484 -188 484 -494v-144c0 -304 -186 -484 -486 -484s-483 180 -483 484zM419 1224c-55 0 -98 44 -98 100
c0 60 43 103 98 103c57 0 99 -43 99 -103c0 -56 -42 -100 -99 -100zM775 1224c-55 0 -97 44 -97 100c0 60 42 103 97 103c58 0 101 -43 101 -103c0 -56 -43 -100 -101 -100z" />
    <glyph glyph-name="Oslash.sc" horiz-adv-x="1175" 
d="M586 -21c-131 0 -240 34 -320 101l-84 -98l-96 74l96 112c-51 78 -79 177 -79 295v144c0 308 186 494 485 494c128 0 235 -35 315 -99l77 90l101 -69l-94 -108c55 -81 85 -184 85 -308v-144c0 -304 -186 -484 -486 -484zM303 457c0 -52 7 -92 20 -126l461 536
c-50 51 -119 78 -198 78c-164 0 -283 -113 -283 -334v-154zM586 134c166 0 285 105 285 327v153c0 57 -9 101 -24 138l-464 -539c50 -53 122 -79 203 -79z" />
    <glyph glyph-name="Otilde.sc" horiz-adv-x="1175" 
d="M310 609v-146c0 -218 117 -321 277 -321s277 103 277 321v146c0 217 -117 329 -277 329s-277 -112 -277 -329zM103 463v144c0 308 186 494 485 494c301 0 484 -188 484 -494v-144c0 -304 -186 -484 -486 -484s-483 180 -483 484zM696 1209c-133 0 -170 128 -242 128
c-56 0 -65 -73 -66 -108h-128c0 118 64 228 189 228c133 0 172 -127 244 -127c50 0 69 63 73 110h128c0 -108 -68 -231 -198 -231z" />
    <glyph glyph-name="Oacute.sc" horiz-adv-x="1175" 
d="M310 609v-146c0 -218 117 -321 277 -321s277 103 277 321v146c0 217 -117 329 -277 329s-277 -112 -277 -329zM103 463v144c0 308 186 494 485 494c301 0 484 -188 484 -494v-144c0 -304 -186 -484 -486 -484s-483 180 -483 484zM649 1214h-149l191 278h193z" />
    <glyph glyph-name="Ocircumflex.sc" horiz-adv-x="1175" 
d="M310 609v-146c0 -218 117 -321 277 -321s277 103 277 321v146c0 217 -117 329 -277 329s-277 -112 -277 -329zM103 463v144c0 308 186 494 485 494c301 0 484 -188 484 -494v-144c0 -304 -186 -484 -486 -484s-483 180 -483 484zM307 1214l217 303h126l217 -303h-161
l-117 180h-4l-117 -180h-161z" />
    <glyph glyph-name="Ograve.sc" horiz-adv-x="1175" 
d="M310 609v-146c0 -218 117 -321 277 -321s277 103 277 321v146c0 217 -117 329 -277 329s-277 -112 -277 -329zM103 463v144c0 308 186 494 485 494c301 0 484 -188 484 -494v-144c0 -304 -186 -484 -486 -484s-483 180 -483 484zM674 1214h-149l-235 278h194z" />
    <glyph glyph-name="Ocircumflexhookabove.sc" horiz-adv-x="1175" 
d="M310 609v-146c0 -218 117 -321 277 -321s277 103 277 321v146c0 217 -117 329 -277 329s-277 -112 -277 -329zM103 463v144c0 308 186 494 485 494c301 0 484 -188 484 -494v-144c0 -304 -186 -484 -486 -484s-483 180 -483 484zM724 1654v103c18 10 57 18 102 18
c124 0 205 -73 205 -180c0 -92 -62 -152 -150 -188l-61 83c65 28 91 56 91 99c0 47 -43 84 -103 84c-36 0 -69 -11 -84 -19zM307 1214l217 303h126l217 -303h-161l-117 180h-4l-117 -180h-161z" />
    <glyph glyph-name="Ocircumflexgrave.sc" horiz-adv-x="1175" 
d="M310 609v-146c0 -218 117 -321 277 -321s277 103 277 321v146c0 217 -117 329 -277 329s-277 -112 -277 -329zM103 463v144c0 308 186 494 485 494c301 0 484 -188 484 -494v-144c0 -304 -186 -484 -486 -484s-483 180 -483 484zM1053 1437h-149l-235 279h193zM307 1214
l217 303h126l217 -303h-161l-117 180h-4l-117 -180h-161z" />
    <glyph glyph-name="Odotbelow.sc" horiz-adv-x="1175" 
d="M310 609v-146c0 -218 117 -321 277 -321s277 103 277 321v146c0 217 -117 329 -277 329s-277 -112 -277 -329zM103 463v144c0 308 186 494 485 494c301 0 484 -188 484 -494v-144c0 -304 -186 -484 -486 -484s-483 180 -483 484zM487 -268c0 59 45 103 100 103
c56 0 100 -44 100 -103c0 -57 -44 -101 -100 -101c-55 0 -100 44 -100 101z" />
    <glyph glyph-name="Odblgrave.sc" horiz-adv-x="1175" 
d="M310 609v-146c0 -218 117 -321 277 -321s277 103 277 321v146c0 217 -117 329 -277 329s-277 -112 -277 -329zM103 463v144c0 308 186 494 485 494c301 0 484 -188 484 -494v-144c0 -304 -186 -484 -486 -484s-483 180 -483 484zM384 1214l-229 279h169l191 -279h-131z
M677 1214l-230 279h168l191 -279h-129z" />
    <glyph glyph-name="Otildeacute.sc" horiz-adv-x="1175" 
d="M310 609v-146c0 -218 117 -321 277 -321s277 103 277 321v146c0 217 -117 329 -277 329s-277 -112 -277 -329zM103 463v144c0 308 186 494 485 494c301 0 484 -188 484 -494v-144c0 -304 -186 -484 -486 -484s-483 180 -483 484zM647 1531h-149l191 278h193zM694 1209
c-133 0 -170 128 -242 128c-56 0 -65 -73 -66 -108h-128c0 118 64 228 189 228c133 0 172 -127 244 -127c50 0 69 63 73 110h128c0 -108 -68 -231 -198 -231z" />
    <glyph glyph-name="Omacronacute.sc" horiz-adv-x="1175" 
d="M310 609v-146c0 -218 117 -321 277 -321s277 103 277 321v146c0 217 -117 329 -277 329s-277 -112 -277 -329zM103 463v144c0 308 186 494 485 494c301 0 484 -188 484 -494v-144c0 -304 -186 -484 -486 -484s-483 180 -483 484zM652 1531h-149l191 278h193zM866 1263
h-558v128h558v-128z" />
    <glyph glyph-name="Ocircumflextilde.sc" horiz-adv-x="1175" 
d="M310 609v-146c0 -218 117 -321 277 -321s277 103 277 321v146c0 217 -117 329 -277 329s-277 -112 -277 -329zM103 463v144c0 308 186 494 485 494c301 0 484 -188 484 -494v-144c0 -304 -186 -484 -486 -484s-483 180 -483 484zM427 1624h-118c0 109 55 211 171 211
c124 0 138 -119 201 -119c42 0 61 56 64 101h119c0 -98 -60 -212 -180 -212c-124 0 -135 119 -200 119c-47 0 -56 -64 -57 -100zM307 1214l217 303h126l217 -303h-161l-117 180h-4l-117 -180h-161z" />
    <glyph glyph-name="Odotaccentmacron.sc" horiz-adv-x="1175" 
d="M310 609v-146c0 -218 117 -321 277 -321s277 103 277 321v146c0 217 -117 329 -277 329s-277 -112 -277 -329zM103 463v144c0 308 186 494 485 494c301 0 484 -188 484 -494v-144c0 -304 -186 -484 -486 -484s-483 180 -483 484zM473 1325c0 64 50 114 111 114
c65 0 115 -50 115 -114s-50 -112 -115 -112c-61 0 -111 48 -111 112zM866 1571h-558v128h558v-128z" />
    <glyph glyph-name="Omacrongrave.sc" horiz-adv-x="1175" 
d="M310 609v-146c0 -218 117 -321 277 -321s277 103 277 321v146c0 217 -117 329 -277 329s-277 -112 -277 -329zM103 463v144c0 308 186 494 485 494c301 0 484 -188 484 -494v-144c0 -304 -186 -484 -486 -484s-483 180 -483 484zM674 1529h-149l-235 278h194zM866 1263
h-558v128h558v-128z" />
    <glyph glyph-name="Ocaron.sc" horiz-adv-x="1175" 
d="M310 609v-146c0 -218 117 -321 277 -321s277 103 277 321v146c0 217 -117 329 -277 329s-277 -112 -277 -329zM103 463v144c0 308 186 494 485 494c301 0 484 -188 484 -494v-144c0 -304 -186 -484 -486 -484s-483 180 -483 484zM307 1517h161l117 -180h3l117 180h162
l-217 -303h-127z" />
    <glyph glyph-name="Oslashacute.sc" horiz-adv-x="1175" 
d="M649 1214h-149l191 278h193zM586 -21c-131 0 -240 34 -320 101l-84 -98l-96 74l96 112c-51 78 -79 177 -79 295v144c0 308 186 494 485 494c128 0 235 -35 315 -99l77 90l101 -69l-94 -108c55 -81 85 -184 85 -308v-144c0 -304 -186 -484 -486 -484zM303 457
c0 -52 7 -92 20 -126l461 536c-50 51 -119 78 -198 78c-164 0 -283 -113 -283 -334v-154zM586 134c166 0 285 105 285 327v153c0 57 -9 101 -24 138l-464 -539c50 -53 122 -79 203 -79z" />
    <glyph glyph-name="Ohungarumlaut.sc" horiz-adv-x="1175" 
d="M310 609v-146c0 -218 117 -321 277 -321s277 103 277 321v146c0 217 -117 329 -277 329s-277 -112 -277 -329zM103 463v144c0 308 186 494 485 494c301 0 484 -188 484 -494v-144c0 -304 -186 -484 -486 -484s-483 180 -483 484zM477 1214h-129l192 278h168zM770 1214
h-131l193 278h168z" />
    <glyph glyph-name="Obreve.sc" horiz-adv-x="1175" 
d="M310 609v-146c0 -218 117 -321 277 -321s277 103 277 321v146c0 217 -117 329 -277 329s-277 -112 -277 -329zM103 463v144c0 308 186 494 485 494c301 0 484 -188 484 -494v-144c0 -304 -186 -484 -486 -484s-483 180 -483 484zM292 1492h130c0 -84 50 -163 165 -163
s165 79 165 163h129c0 -131 -89 -281 -294 -281s-296 149 -295 281z" />
    <glyph glyph-name="Oinvertedbreve.sc" horiz-adv-x="1175" 
d="M310 609v-146c0 -218 117 -321 277 -321s277 103 277 321v146c0 217 -117 329 -277 329s-277 -112 -277 -329zM103 463v144c0 308 186 494 485 494c301 0 484 -188 484 -494v-144c0 -304 -186 -484 -486 -484s-483 180 -483 484zM289 1235c-1 133 91 284 298 284
s296 -151 297 -284h-131c0 84 -50 164 -166 164s-166 -80 -166 -164h-132z" />
    <glyph glyph-name="Ohookabove.sc" horiz-adv-x="1175" 
d="M310 609v-146c0 -218 117 -321 277 -321s277 103 277 321v146c0 217 -117 329 -277 329s-277 -112 -277 -329zM103 463v144c0 308 186 494 485 494c301 0 484 -188 484 -494v-144c0 -304 -186 -484 -486 -484s-483 180 -483 484zM445 1449v105c20 10 59 18 107 18
c127 0 208 -75 208 -184c0 -95 -63 -155 -153 -193l-64 85c68 29 94 58 94 101c0 48 -44 87 -106 87c-36 0 -69 -11 -86 -19z" />
    <glyph glyph-name="Odieresismacron.sc" horiz-adv-x="1175" 
d="M310 609v-146c0 -218 117 -321 277 -321s277 103 277 321v146c0 217 -117 329 -277 329s-277 -112 -277 -329zM103 463v144c0 308 186 494 485 494c301 0 484 -188 484 -494v-144c0 -304 -186 -484 -486 -484s-483 180 -483 484zM418 1224c-55 0 -98 44 -98 100
c0 60 43 103 98 103c57 0 99 -43 99 -103c0 -56 -42 -100 -99 -100zM774 1224c-55 0 -97 44 -97 100c0 60 42 103 97 103c58 0 101 -43 101 -103c0 -56 -43 -100 -101 -100zM866 1571h-558v128h558v-128z" />
    <glyph glyph-name="Otildemacron.sc" horiz-adv-x="1175" 
d="M310 609v-146c0 -218 117 -321 277 -321s277 103 277 321v146c0 217 -117 329 -277 329s-277 -112 -277 -329zM103 463v144c0 308 186 494 485 494c301 0 484 -188 484 -494v-144c0 -304 -186 -484 -486 -484s-483 180 -483 484zM696 1209c-133 0 -170 128 -242 128
c-56 0 -65 -73 -66 -108h-128c0 118 64 228 189 228c133 0 172 -127 244 -127c50 0 69 63 73 110h128c0 -108 -68 -231 -198 -231zM866 1571h-558v128h558v-128z" />
    <glyph glyph-name="Odotaccent.sc" horiz-adv-x="1175" 
d="M310 609v-146c0 -218 117 -321 277 -321s277 103 277 321v146c0 217 -117 329 -277 329s-277 -112 -277 -329zM103 463v144c0 308 186 494 485 494c301 0 484 -188 484 -494v-144c0 -304 -186 -484 -486 -484s-483 180 -483 484zM474 1330c0 64 50 114 111 114
c65 0 115 -50 115 -114s-50 -112 -115 -112c-61 0 -111 48 -111 112z" />
    <glyph glyph-name="Ocircumflexdotbelow.sc" horiz-adv-x="1175" 
d="M308 1214l217 303h126l217 -303h-161l-117 180h-4l-117 -180h-161zM310 609v-146c0 -218 117 -321 277 -321s277 103 277 321v146c0 217 -117 329 -277 329s-277 -112 -277 -329zM103 463v144c0 308 186 494 485 494c301 0 484 -188 484 -494v-144
c0 -304 -186 -484 -486 -484s-483 180 -483 484zM488 -268c0 59 45 103 100 103c56 0 100 -44 100 -103c0 -57 -44 -101 -100 -101c-55 0 -100 44 -100 101z" />
    <glyph glyph-name="Ocircumflexacute.sc" horiz-adv-x="1175" 
d="M310 609v-146c0 -218 117 -321 277 -321s277 103 277 321v146c0 217 -117 329 -277 329s-277 -112 -277 -329zM103 463v144c0 308 186 494 485 494c301 0 484 -188 484 -494v-144c0 -304 -186 -484 -486 -484s-483 180 -483 484zM945 1437h-149l191 279h193zM307 1214
l217 303h126l217 -303h-161l-117 180h-4l-117 -180h-161z" />
    <glyph glyph-name="Otildedieresis.sc" horiz-adv-x="1175" 
d="M696 1209c-133 0 -170 128 -242 128c-56 0 -65 -73 -66 -108h-128c0 118 64 228 189 228c133 0 172 -127 244 -127c50 0 69 63 73 110h128c0 -108 -68 -231 -198 -231zM418 1533c-55 0 -98 44 -98 100c0 60 43 103 98 103c57 0 99 -43 99 -103c0 -56 -42 -100 -99 -100z
M774 1533c-55 0 -97 44 -97 100c0 60 42 103 97 103c58 0 101 -43 101 -103c0 -56 -43 -100 -101 -100zM310 609v-146c0 -218 117 -321 277 -321s277 103 277 321v146c0 217 -117 329 -277 329s-277 -112 -277 -329zM103 463v144c0 308 186 494 485 494
c301 0 484 -188 484 -494v-144c0 -304 -186 -484 -486 -484s-483 180 -483 484z" />
    <glyph glyph-name="Omacron.sc" horiz-adv-x="1175" 
d="M310 609v-146c0 -218 117 -321 277 -321s277 103 277 321v146c0 217 -117 329 -277 329s-277 -112 -277 -329zM103 463v144c0 308 186 494 485 494c301 0 484 -188 484 -494v-144c0 -304 -186 -484 -486 -484s-483 180 -483 484zM866 1263h-558v128h558v-128z" />
    <glyph glyph-name="Oogonek.sc" horiz-adv-x="1175" 
d="M711 -6c-38 -12 -84 -15 -119 -15c-308 0 -489 180 -489 484v144c0 308 186 494 485 494c301 0 484 -188 484 -494v-144c0 -170 -68 -282 -136 -363c-43 -49 -149 -128 -149 -243c0 -77 50 -102 109 -102c21 0 57 3 83 9v-129c-16 -8 -67 -22 -128 -22
c-135 0 -221 70 -221 186c0 75 35 146 82 192zM310 609v-146c0 -218 117 -321 277 -321s277 103 277 321v146c0 217 -117 329 -277 329s-277 -112 -277 -329z" />
    <glyph glyph-name="Oogonekmacron.sc" horiz-adv-x="1175" 
d="M711 -6c-38 -12 -84 -15 -119 -15c-308 0 -489 180 -489 484v144c0 308 186 494 485 494c301 0 484 -188 484 -494v-144c0 -170 -68 -282 -136 -363c-43 -49 -149 -128 -149 -243c0 -77 50 -102 109 -102c21 0 57 3 83 9v-129c-16 -8 -67 -22 -128 -22
c-135 0 -221 70 -221 186c0 75 35 146 82 192zM310 609v-146c0 -218 117 -321 277 -321s277 103 277 321v146c0 217 -117 329 -277 329s-277 -112 -277 -329zM866 1263h-558v128h558v-128z" />
    <glyph glyph-name="Ohorn.sc" horiz-adv-x="1191" 
d="M1072 463c0 -304 -186 -484 -486 -484s-483 180 -483 484v144c0 308 186 494 485 494c161 0 240 -63 345 -63c95 0 114 50 114 115v87h165v-103c0 -140 -81 -225 -223 -225l-2 -4c44 -63 85 -179 85 -301v-144zM310 609v-146c0 -218 117 -321 277 -321s279 103 279 321
v146c0 217 -119 329 -279 329s-277 -112 -277 -329z" />
    <glyph glyph-name="Ohorndotbelow.sc" horiz-adv-x="1191" 
d="M1072 463c0 -304 -186 -484 -486 -484s-483 180 -483 484v144c0 308 186 494 485 494c161 0 240 -63 345 -63c95 0 114 50 114 115v87h165v-103c0 -140 -81 -225 -223 -225l-2 -4c44 -63 85 -179 85 -301v-144zM310 609v-146c0 -218 117 -321 277 -321s279 103 279 321
v146c0 217 -119 329 -279 329s-277 -112 -277 -329zM489 -268c0 59 45 103 100 103c56 0 100 -44 100 -103c0 -57 -44 -101 -100 -101c-55 0 -100 44 -100 101z" />
    <glyph glyph-name="Ohornhookabove.sc" horiz-adv-x="1191" 
d="M1072 463c0 -304 -186 -484 -486 -484s-483 180 -483 484v144c0 308 186 494 485 494c161 0 240 -63 345 -63c95 0 114 50 114 115v87h165v-103c0 -140 -81 -225 -223 -225l-2 -4c44 -63 85 -179 85 -301v-144zM310 609v-146c0 -218 117 -321 277 -321s279 103 279 321
v146c0 217 -119 329 -279 329s-277 -112 -277 -329zM445 1449v105c20 10 59 18 107 18c127 0 208 -75 208 -184c0 -95 -63 -155 -153 -193l-64 85c68 29 94 58 94 101c0 48 -44 87 -106 87c-36 0 -69 -11 -86 -19z" />
    <glyph glyph-name="Ohorntilde.sc" horiz-adv-x="1191" 
d="M1072 463c0 -304 -186 -484 -486 -484s-483 180 -483 484v144c0 308 186 494 485 494c161 0 240 -63 345 -63c95 0 114 50 114 115v87h165v-103c0 -140 -81 -225 -223 -225l-2 -4c44 -63 85 -179 85 -301v-144zM310 609v-146c0 -218 117 -321 277 -321s279 103 279 321
v146c0 217 -119 329 -279 329s-277 -112 -277 -329zM696 1209c-133 0 -170 128 -242 128c-56 0 -65 -73 -66 -108h-128c0 118 64 228 189 228c133 0 172 -127 244 -127c50 0 69 63 73 110h128c0 -108 -68 -231 -198 -231z" />
    <glyph glyph-name="Ohorngrave.sc" horiz-adv-x="1191" 
d="M1072 463c0 -304 -186 -484 -486 -484s-483 180 -483 484v144c0 308 186 494 485 494c161 0 240 -63 345 -63c95 0 114 50 114 115v87h165v-103c0 -140 -81 -225 -223 -225l-2 -4c44 -63 85 -179 85 -301v-144zM310 609v-146c0 -218 117 -321 277 -321s279 103 279 321
v146c0 217 -119 329 -279 329s-277 -112 -277 -329zM674 1214h-149l-235 278h194z" />
    <glyph glyph-name="Ohornacute.sc" horiz-adv-x="1191" 
d="M1072 463c0 -304 -186 -484 -486 -484s-483 180 -483 484v144c0 308 186 494 485 494c161 0 240 -63 345 -63c95 0 114 50 114 115v87h165v-103c0 -140 -81 -225 -223 -225l-2 -4c44 -63 85 -179 85 -301v-144zM310 609v-146c0 -218 117 -321 277 -321s279 103 279 321
v146c0 217 -119 329 -279 329s-277 -112 -277 -329zM649 1214h-149l191 278h193z" />
    <glyph glyph-name="P.sc" horiz-adv-x="1044" 
d="M149 1080h450c239 0 383 -151 383 -353c0 -205 -145 -353 -385 -353h-243v-374h-205v1080zM353 923v-393h148c170 0 272 42 272 197c0 125 -78 196 -209 196h-211z" />
    <glyph glyph-name="Pdotaccent.sc" horiz-adv-x="1044" 
d="M408 1330c0 64 50 114 111 114c65 0 115 -50 115 -114s-50 -112 -115 -112c-61 0 -111 48 -111 112zM149 1080h450c239 0 383 -151 383 -353c0 -205 -145 -353 -385 -353h-243v-374h-205v1080zM353 923v-393h148c170 0 272 42 272 197c0 125 -78 196 -209 196h-211z" />
    <glyph glyph-name="Pacute.sc" horiz-adv-x="1044" 
d="M583 1214h-149l191 278h193zM149 1080h450c239 0 383 -151 383 -353c0 -205 -145 -353 -385 -353h-243v-374h-205v1080zM353 923v-393h148c170 0 272 42 272 197c0 125 -78 196 -209 196h-211z" />
    <glyph glyph-name="Q.sc" horiz-adv-x="1178" 
d="M105 469v141c0 305 189 491 484 491s485 -186 485 -491v-141c0 -165 -56 -294 -154 -379l150 -201h-209l-91 120c-53 -19 -115 -30 -181 -30c-295 0 -484 185 -484 490zM306 611v-144c0 -219 116 -324 270 -330c34 0 65 3 93 14l-127 168h195l67 -76c42 48 68 130 68 224
v144c0 218 -122 328 -283 328c-162 0 -283 -110 -283 -328z" />
    <glyph glyph-name="R.sc" horiz-adv-x="1097" 
d="M597 1080c269 0 395 -152 395 -337c0 -177 -120 -269 -212 -302l233 -441h-230l-205 409h-227v-409h-202v1080h448zM351 561h213c138 0 216 62 216 178c0 123 -87 186 -212 186h-217v-364z" />
    <glyph glyph-name="Rcaron.sc" horiz-adv-x="1097" 
d="M235 1517h161l117 -180h3l117 180h162l-217 -303h-127zM597 1080c269 0 395 -152 395 -337c0 -177 -120 -269 -212 -302l233 -441h-230l-205 409h-227v-409h-202v1080h448zM351 561h213c138 0 216 62 216 178c0 123 -87 186 -212 186h-217v-364z" />
    <glyph glyph-name="Rlinebelow.sc" horiz-adv-x="1097" 
d="M794 -340h-558v128h558v-128zM597 1080c269 0 395 -152 395 -337c0 -177 -120 -269 -212 -302l233 -441h-230l-205 409h-227v-409h-202v1080h448zM351 561h213c138 0 216 62 216 178c0 123 -87 186 -212 186h-217v-364z" />
    <glyph glyph-name="Rdotbelowmacron.sc" horiz-adv-x="1097" 
d="M417 -268c0 59 45 103 100 103c56 0 100 -44 100 -103c0 -57 -44 -101 -100 -101c-55 0 -100 44 -100 101zM794 1263h-558v128h558v-128zM597 1080c269 0 395 -152 395 -337c0 -177 -120 -269 -212 -302l233 -441h-230l-205 409h-227v-409h-202v1080h448zM351 561h213
c138 0 216 62 216 178c0 123 -87 186 -212 186h-217v-364z" />
    <glyph glyph-name="Rdblgrave.sc" horiz-adv-x="1097" 
d="M597 1080c269 0 395 -152 395 -337c0 -177 -120 -269 -212 -302l233 -441h-230l-205 409h-227v-409h-202v1080h448zM351 561h213c138 0 216 62 216 178c0 123 -87 186 -212 186h-217v-364zM312 1214l-229 279h169l191 -279h-131zM605 1214l-230 279h168l191 -279h-129z
" />
    <glyph glyph-name="Rinvertedbreve.sc" horiz-adv-x="1097" 
d="M597 1080c269 0 395 -152 395 -337c0 -177 -120 -269 -212 -302l233 -441h-230l-205 409h-227v-409h-202v1080h448zM351 561h213c138 0 216 62 216 178c0 123 -87 186 -212 186h-217v-364zM217 1235c-1 133 91 284 298 284s296 -151 297 -284h-131c0 84 -50 164 -166 164
s-166 -80 -166 -164h-132z" />
    <glyph glyph-name="Racute.sc" horiz-adv-x="1097" 
d="M577 1214h-149l191 278h193zM597 1080c269 0 395 -152 395 -337c0 -177 -120 -269 -212 -302l233 -441h-230l-205 409h-227v-409h-202v1080h448zM351 561h213c138 0 216 62 216 178c0 123 -87 186 -212 186h-217v-364z" />
    <glyph glyph-name="Rdotbelow.sc" horiz-adv-x="1097" 
d="M417 -268c0 59 45 103 100 103c56 0 100 -44 100 -103c0 -57 -44 -101 -100 -101c-55 0 -100 44 -100 101zM597 1080c269 0 395 -152 395 -337c0 -177 -120 -269 -212 -302l233 -441h-230l-205 409h-227v-409h-202v1080h448zM351 561h213c138 0 216 62 216 178
c0 123 -87 186 -212 186h-217v-364z" />
    <glyph glyph-name="Rdotaccent.sc" horiz-adv-x="1097" 
d="M402 1330c0 64 50 114 111 114c65 0 115 -50 115 -114s-50 -112 -115 -112c-61 0 -111 48 -111 112zM597 1080c269 0 395 -152 395 -337c0 -177 -120 -269 -212 -302l233 -441h-230l-205 409h-227v-409h-202v1080h448zM351 561h213c138 0 216 62 216 178
c0 123 -87 186 -212 186h-217v-364z" />
    <glyph glyph-name="Rcommaaccent.sc" horiz-adv-x="1097" 
d="M501 -489h-149l85 335h178zM597 1080c269 0 395 -152 395 -337c0 -177 -120 -269 -212 -302l233 -441h-230l-205 409h-227v-409h-202v1080h448zM351 561h213c138 0 216 62 216 178c0 123 -87 186 -212 186h-217v-364z" />
    <glyph glyph-name="S.sc" horiz-adv-x="1051" 
d="M72 303h200c8 -90 93 -165 252 -165c146 0 231 61 231 158c0 80 -59 122 -181 149l-186 42c-151 32 -286 116 -286 294c0 208 194 323 422 323c233 0 416 -120 419 -318h-194c-8 87 -81 160 -227 160c-129 0 -214 -55 -214 -151c0 -68 53 -116 159 -138l185 -42
c173 -38 308 -114 308 -302c0 -211 -183 -334 -450 -334c-326 0 -434 176 -438 324z" />
    <glyph glyph-name="Scaron.sc" horiz-adv-x="1051" 
d="M243 1517h161l117 -180h3l117 180h162l-217 -303h-127zM72 303h200c8 -90 93 -165 252 -165c146 0 231 61 231 158c0 80 -59 122 -181 149l-186 42c-151 32 -286 116 -286 294c0 208 194 323 422 323c233 0 416 -120 419 -318h-194c-8 87 -81 160 -227 160
c-129 0 -214 -55 -214 -151c0 -68 53 -116 159 -138l185 -42c173 -38 308 -114 308 -302c0 -211 -183 -334 -450 -334c-326 0 -434 176 -438 324z" />
    <glyph glyph-name="Scedilla.sc" horiz-adv-x="1051" 
d="M542 -468c-63 -2 -122 7 -150 15v111c27 -8 82 -14 115 -14c54 0 116 15 116 73c0 64 -67 66 -143 66h-53v85l37 112c-291 15 -388 183 -392 323h200c8 -90 93 -165 252 -165c146 0 231 61 231 158c0 80 -59 122 -181 149l-186 42c-151 32 -286 116 -286 294
c0 208 194 323 422 323c233 0 416 -120 419 -318h-194c-8 87 -81 160 -227 160c-129 0 -214 -55 -214 -151c0 -68 53 -116 159 -138l185 -42c173 -38 308 -114 308 -302s-144 -306 -363 -329l-33 -99c124 0 207 -55 207 -163c0 -129 -101 -185 -229 -190z" />
    <glyph glyph-name="Sdotaccent.sc" horiz-adv-x="1051" 
d="M410 1330c0 64 50 114 111 114c65 0 115 -50 115 -114s-50 -112 -115 -112c-61 0 -111 48 -111 112zM72 303h200c8 -90 93 -165 252 -165c146 0 231 61 231 158c0 80 -59 122 -181 149l-186 42c-151 32 -286 116 -286 294c0 208 194 323 422 323c233 0 416 -120 419 -318
h-194c-8 87 -81 160 -227 160c-129 0 -214 -55 -214 -151c0 -68 53 -116 159 -138l185 -42c173 -38 308 -114 308 -302c0 -211 -183 -334 -450 -334c-326 0 -434 176 -438 324z" />
    <glyph glyph-name="Sdotbelow.sc" horiz-adv-x="1051" 
d="M411 -268c0 59 45 103 100 103c56 0 100 -44 100 -103c0 -57 -44 -101 -100 -101c-55 0 -100 44 -100 101zM72 303h200c8 -90 93 -165 252 -165c146 0 231 61 231 158c0 80 -59 122 -181 149l-186 42c-151 32 -286 116 -286 294c0 208 194 323 422 323
c233 0 416 -120 419 -318h-194c-8 87 -81 160 -227 160c-129 0 -214 -55 -214 -151c0 -68 53 -116 159 -138l185 -42c173 -38 308 -114 308 -302c0 -211 -183 -334 -450 -334c-326 0 -434 176 -438 324z" />
    <glyph glyph-name="Scommaaccent.sc" horiz-adv-x="1051" 
d="M495 -489h-149l85 335h178zM72 303h200c8 -90 93 -165 252 -165c146 0 231 61 231 158c0 80 -59 122 -181 149l-186 42c-151 32 -286 116 -286 294c0 208 194 323 422 323c233 0 416 -120 419 -318h-194c-8 87 -81 160 -227 160c-129 0 -214 -55 -214 -151
c0 -68 53 -116 159 -138l185 -42c173 -38 308 -114 308 -302c0 -211 -183 -334 -450 -334c-326 0 -434 176 -438 324z" />
    <glyph glyph-name="Sdotbelowdotaccent.sc" horiz-adv-x="1051" 
d="M411 -268c0 59 45 103 100 103c56 0 100 -44 100 -103c0 -57 -44 -101 -100 -101c-55 0 -100 44 -100 101zM410 1330c0 64 50 114 111 114c65 0 115 -50 115 -114s-50 -112 -115 -112c-61 0 -111 48 -111 112zM72 303h200c8 -90 93 -165 252 -165c146 0 231 61 231 158
c0 80 -59 122 -181 149l-186 42c-151 32 -286 116 -286 294c0 208 194 323 422 323c233 0 416 -120 419 -318h-194c-8 87 -81 160 -227 160c-129 0 -214 -55 -214 -151c0 -68 53 -116 159 -138l185 -42c173 -38 308 -114 308 -302c0 -211 -183 -334 -450 -334
c-326 0 -434 176 -438 324z" />
    <glyph glyph-name="Scarondotaccent.sc" horiz-adv-x="1051" 
d="M243 1517h161l117 -180h3l117 180h162l-217 -303h-127zM410 1694c0 64 50 114 111 114c65 0 115 -50 115 -114s-50 -112 -115 -112c-61 0 -111 48 -111 112zM72 303h200c8 -90 93 -165 252 -165c146 0 231 61 231 158c0 80 -59 122 -181 149l-186 42
c-151 32 -286 116 -286 294c0 208 194 323 422 323c233 0 416 -120 419 -318h-194c-8 87 -81 160 -227 160c-129 0 -214 -55 -214 -151c0 -68 53 -116 159 -138l185 -42c173 -38 308 -114 308 -302c0 -211 -183 -334 -450 -334c-326 0 -434 176 -438 324z" />
    <glyph glyph-name="Scircumflex.sc" horiz-adv-x="1051" 
d="M243 1214l217 303h126l217 -303h-161l-117 180h-4l-117 -180h-161zM72 303h200c8 -90 93 -165 252 -165c146 0 231 61 231 158c0 80 -59 122 -181 149l-186 42c-151 32 -286 116 -286 294c0 208 194 323 422 323c233 0 416 -120 419 -318h-194c-8 87 -81 160 -227 160
c-129 0 -214 -55 -214 -151c0 -68 53 -116 159 -138l185 -42c173 -38 308 -114 308 -302c0 -211 -183 -334 -450 -334c-326 0 -434 176 -438 324z" />
    <glyph glyph-name="Sacutedotaccent.sc" horiz-adv-x="1051" 
d="M671 1214h-149l191 278h193zM231 1380c0 64 50 114 111 114c65 0 115 -50 115 -114s-50 -112 -115 -112c-61 0 -111 48 -111 112zM72 303h200c8 -90 93 -165 252 -165c146 0 231 61 231 158c0 80 -59 122 -181 149l-186 42c-151 32 -286 116 -286 294
c0 208 194 323 422 323c233 0 416 -120 419 -318h-194c-8 87 -81 160 -227 160c-129 0 -214 -55 -214 -151c0 -68 53 -116 159 -138l185 -42c173 -38 308 -114 308 -302c0 -211 -183 -334 -450 -334c-326 0 -434 176 -438 324z" />
    <glyph glyph-name="Sacute.sc" horiz-adv-x="1051" 
d="M585 1214h-149l191 278h193zM72 303h200c8 -90 93 -165 252 -165c146 0 231 61 231 158c0 80 -59 122 -181 149l-186 42c-151 32 -286 116 -286 294c0 208 194 323 422 323c233 0 416 -120 419 -318h-194c-8 87 -81 160 -227 160c-129 0 -214 -55 -214 -151
c0 -68 53 -116 159 -138l185 -42c173 -38 308 -114 308 -302c0 -211 -183 -334 -450 -334c-326 0 -434 176 -438 324z" />
    <glyph glyph-name="T.sc" horiz-adv-x="946" 
d="M575 0h-205v918h-334v162h874v-162h-335v-918z" />
    <glyph glyph-name="Tcircumflexbelow.sc" horiz-adv-x="946" 
d="M575 0h-205v918h-334v162h874v-162h-335v-918zM196 -400l212 287h130l212 -287h-159l-116 178h-4l-116 -178h-159z" />
    <glyph glyph-name="Tdotbelow.sc" horiz-adv-x="946" 
d="M575 0h-205v918h-334v162h874v-162h-335v-918zM372 -268c0 59 45 103 100 103c56 0 100 -44 100 -103c0 -57 -44 -101 -100 -101c-55 0 -100 44 -100 101z" />
    <glyph glyph-name="Tcommaaccent.sc" horiz-adv-x="946" 
d="M575 0h-205v918h-334v162h874v-162h-335v-918zM458 -489h-149l85 335h178z" />
    <glyph glyph-name="Tdotaccent.sc" horiz-adv-x="946" 
d="M575 0h-205v918h-334v162h874v-162h-335v-918zM359 1330c0 64 50 114 111 114c65 0 115 -50 115 -114s-50 -112 -115 -112c-61 0 -111 48 -111 112z" />
    <glyph glyph-name="Tcedilla.sc" horiz-adv-x="946" 
d="M485 -485c-62 -3 -121 7 -149 15v110c27 -8 82 -13 115 -13c54 0 116 15 116 73c0 63 -68 65 -143 65h-53v86l55 149h-56v918h-334v162h874v-162h-335v-918h-18l-49 -132c124 0 207 -55 207 -163c0 -129 -101 -185 -230 -190z" />
    <glyph glyph-name="Tlinebelow.sc" horiz-adv-x="946" 
d="M575 0h-205v918h-334v162h874v-162h-335v-918zM752 -340h-558v128h558v-128z" />
    <glyph glyph-name="Tcaron.sc" horiz-adv-x="946" 
d="M575 0h-205v918h-334v162h874v-162h-335v-918zM193 1517h161l117 -180h3l117 180h162l-217 -303h-127z" />
    <glyph glyph-name="Tbar.sc" horiz-adv-x="946" 
d="M795 481h-220v-481h-205v481h-218v124h219v313h-335v162h875v-162h-336v-313h220v-124z" />
    <glyph glyph-name="U.sc" horiz-adv-x="1186" 
d="M339 1080v-690c0 -155 101 -245 255 -245c152 0 253 91 253 245v690h204v-705c0 -239 -182 -396 -457 -396c-277 0 -459 159 -459 398v703h204z" />
    <glyph glyph-name="Ugrave.sc" horiz-adv-x="1186" 
d="M680 1214h-149l-235 278h194zM339 1080v-690c0 -155 101 -245 255 -245c152 0 253 91 253 245v690h204v-705c0 -239 -182 -396 -457 -396c-277 0 -459 159 -459 398v703h204z" />
    <glyph glyph-name="Udblgrave.sc" horiz-adv-x="1186" 
d="M390 1214l-229 279h169l191 -279h-131zM683 1214l-230 279h168l191 -279h-129zM339 1080v-690c0 -155 101 -245 255 -245c152 0 253 91 253 245v690h204v-705c0 -239 -182 -396 -457 -396c-277 0 -459 159 -459 398v703h204z" />
    <glyph glyph-name="Uacute.sc" horiz-adv-x="1186" 
d="M655 1214h-149l191 278h193zM339 1080v-690c0 -155 101 -245 255 -245c152 0 253 91 253 245v690h204v-705c0 -239 -182 -396 -457 -396c-277 0 -459 159 -459 398v703h204z" />
    <glyph glyph-name="Uhungarumlaut.sc" horiz-adv-x="1186" 
d="M483 1214h-129l192 278h168zM776 1214h-131l193 278h168zM339 1080v-690c0 -155 101 -245 255 -245c152 0 253 91 253 245v690h204v-705c0 -239 -182 -396 -457 -396c-277 0 -459 159 -459 398v703h204z" />
    <glyph glyph-name="Ucircumflex.sc" horiz-adv-x="1186" 
d="M313 1214l217 303h126l217 -303h-161l-117 180h-4l-117 -180h-161zM339 1080v-690c0 -155 101 -245 255 -245c152 0 253 91 253 245v690h204v-705c0 -239 -182 -396 -457 -396c-277 0 -459 159 -459 398v703h204z" />
    <glyph glyph-name="Ucaron.sc" horiz-adv-x="1186" 
d="M314 1517h161l117 -180h3l117 180h162l-217 -303h-127zM339 1080v-690c0 -155 101 -245 255 -245c152 0 253 91 253 245v690h204v-705c0 -239 -182 -396 -457 -396c-277 0 -459 159 -459 398v703h204z" />
    <glyph glyph-name="Ucircumflexbelow.sc" horiz-adv-x="1186" 
d="M339 1080v-690c0 -155 101 -245 255 -245c152 0 253 91 253 245v690h204v-705c0 -239 -182 -396 -457 -396c-277 0 -459 159 -459 398v703h204zM315 -400l212 287h130l212 -287h-159l-116 178h-4l-116 -178h-159z" />
    <glyph glyph-name="Udieresis.sc" horiz-adv-x="1186" 
d="M425 1224c-55 0 -98 44 -98 100c0 60 43 103 98 103c57 0 99 -43 99 -103c0 -56 -42 -100 -99 -100zM781 1224c-55 0 -97 44 -97 100c0 60 42 103 97 103c58 0 101 -43 101 -103c0 -56 -43 -100 -101 -100zM339 1080v-690c0 -155 101 -245 255 -245c152 0 253 91 253 245
v690h204v-705c0 -239 -182 -396 -457 -396c-277 0 -459 159 -459 398v703h204z" />
    <glyph glyph-name="Udieresisgrave.sc" horiz-adv-x="1186" 
d="M680 1531h-149l-235 278h194zM424 1224c-55 0 -98 44 -98 100c0 60 43 103 98 103c57 0 99 -43 99 -103c0 -56 -42 -100 -99 -100zM780 1224c-55 0 -97 44 -97 100c0 60 42 103 97 103c58 0 101 -43 101 -103c0 -56 -43 -100 -101 -100zM339 1080v-690
c0 -155 101 -245 255 -245c152 0 253 91 253 245v690h204v-705c0 -239 -182 -396 -457 -396c-277 0 -459 159 -459 398v703h204z" />
    <glyph glyph-name="Udieresisacute.sc" horiz-adv-x="1186" 
d="M658 1531h-149l191 278h193zM424 1224c-55 0 -98 44 -98 100c0 60 43 103 98 103c57 0 99 -43 99 -103c0 -56 -42 -100 -99 -100zM780 1224c-55 0 -97 44 -97 100c0 60 42 103 97 103c58 0 101 -43 101 -103c0 -56 -43 -100 -101 -100zM339 1080v-690
c0 -155 101 -245 255 -245c152 0 253 91 253 245v690h204v-705c0 -239 -182 -396 -457 -396c-277 0 -459 159 -459 398v703h204z" />
    <glyph glyph-name="Udieresismacron.sc" horiz-adv-x="1186" 
d="M424 1224c-55 0 -98 44 -98 100c0 60 43 103 98 103c57 0 99 -43 99 -103c0 -56 -42 -100 -99 -100zM780 1224c-55 0 -97 44 -97 100c0 60 42 103 97 103c58 0 101 -43 101 -103c0 -56 -43 -100 -101 -100zM872 1571h-558v128h558v-128zM339 1080v-690
c0 -155 101 -245 255 -245c152 0 253 91 253 245v690h204v-705c0 -239 -182 -396 -457 -396c-277 0 -459 159 -459 398v703h204z" />
    <glyph glyph-name="Udieresiscaron.sc" horiz-adv-x="1186" 
d="M313 1816h161l117 -180h3l117 180h162l-217 -303h-127zM424 1224c-55 0 -98 44 -98 100c0 60 43 103 98 103c57 0 99 -43 99 -103c0 -56 -42 -100 -99 -100zM780 1224c-55 0 -97 44 -97 100c0 60 42 103 97 103c58 0 101 -43 101 -103c0 -56 -43 -100 -101 -100z
M339 1080v-690c0 -155 101 -245 255 -245c152 0 253 91 253 245v690h204v-705c0 -239 -182 -396 -457 -396c-277 0 -459 159 -459 398v703h204z" />
    <glyph glyph-name="Udieresisbelow.sc" horiz-adv-x="1186" 
d="M339 1080v-690c0 -155 101 -245 255 -245c152 0 253 91 253 245v690h204v-705c0 -239 -182 -396 -457 -396c-277 0 -459 159 -459 398v703h204zM415 -379c-55 0 -98 44 -98 100c0 60 43 103 98 103c57 0 99 -43 99 -103c0 -56 -42 -100 -99 -100zM771 -379
c-55 0 -97 44 -97 100c0 60 42 103 97 103c58 0 101 -43 101 -103c0 -56 -43 -100 -101 -100z" />
    <glyph glyph-name="Utildebelow.sc" horiz-adv-x="1186" 
d="M704 -375c-127 0 -164 122 -230 122c-50 0 -59 -67 -60 -102h-123c0 112 59 217 178 217c127 0 166 -122 232 -122c44 0 64 57 67 104h123c0 -102 -63 -219 -187 -219zM339 1080v-690c0 -155 101 -245 255 -245c152 0 253 91 253 245v690h204v-705
c0 -239 -182 -396 -457 -396c-277 0 -459 159 -459 398v703h204z" />
    <glyph glyph-name="Uhookabove.sc" horiz-adv-x="1186" 
d="M451 1449v105c20 10 59 18 107 18c127 0 208 -75 208 -184c0 -95 -63 -155 -153 -193l-64 85c68 29 94 58 94 101c0 48 -44 87 -106 87c-36 0 -69 -11 -86 -19zM339 1080v-690c0 -155 101 -245 255 -245c152 0 253 91 253 245v690h204v-705c0 -239 -182 -396 -457 -396
c-277 0 -459 159 -459 398v703h204z" />
    <glyph glyph-name="Ubreve.sc" horiz-adv-x="1186" 
d="M298 1492h130c0 -84 50 -163 165 -163s165 79 165 163h129c0 -131 -89 -281 -294 -281s-296 149 -295 281zM339 1080v-690c0 -155 101 -245 255 -245c152 0 253 91 253 245v690h204v-705c0 -239 -182 -396 -457 -396c-277 0 -459 159 -459 398v703h204z" />
    <glyph glyph-name="Uinvertedbreve.sc" horiz-adv-x="1186" 
d="M339 1080v-690c0 -155 101 -245 255 -245c152 0 253 91 253 245v690h204v-705c0 -239 -182 -396 -457 -396c-277 0 -459 159 -459 398v703h204zM295 1235c-1 133 91 284 298 284s296 -151 297 -284h-131c0 84 -50 164 -166 164s-166 -80 -166 -164h-132z" />
    <glyph glyph-name="Utildeacute.sc" horiz-adv-x="1186" 
d="M653 1531h-149l191 278h193zM700 1209c-133 0 -170 128 -242 128c-56 0 -65 -73 -66 -108h-128c0 118 64 228 189 228c133 0 172 -127 244 -127c50 0 69 63 73 110h128c0 -108 -68 -231 -198 -231zM339 1080v-690c0 -155 101 -245 255 -245c152 0 253 91 253 245v690h204
v-705c0 -239 -182 -396 -457 -396c-277 0 -459 159 -459 398v703h204z" />
    <glyph glyph-name="Udotbelow.sc" horiz-adv-x="1186" 
d="M493 -268c0 59 45 103 100 103c56 0 100 -44 100 -103c0 -57 -44 -101 -100 -101c-55 0 -100 44 -100 101zM339 1080v-690c0 -155 101 -245 255 -245c152 0 253 91 253 245v690h204v-705c0 -239 -182 -396 -457 -396c-277 0 -459 159 -459 398v703h204z" />
    <glyph glyph-name="Utilde.sc" horiz-adv-x="1186" 
d="M702 1209c-133 0 -170 128 -242 128c-56 0 -65 -73 -66 -108h-128c0 118 64 228 189 228c133 0 172 -127 244 -127c50 0 69 63 73 110h128c0 -108 -68 -231 -198 -231zM339 1080v-690c0 -155 101 -245 255 -245c152 0 253 91 253 245v690h204v-705
c0 -239 -182 -396 -457 -396c-277 0 -459 159 -459 398v703h204z" />
    <glyph glyph-name="Umacron.sc" horiz-adv-x="1186" 
d="M872 1263h-558v128h558v-128zM339 1080v-690c0 -155 101 -245 255 -245c152 0 253 91 253 245v690h204v-705c0 -239 -182 -396 -457 -396c-277 0 -459 159 -459 398v703h204z" />
    <glyph glyph-name="Umacrondieresis.sc" horiz-adv-x="1186" 
d="M872 1263h-558v128h558v-128zM424 1533c-55 0 -98 44 -98 100c0 60 43 103 98 103c57 0 99 -43 99 -103c0 -56 -42 -100 -99 -100zM780 1533c-55 0 -97 44 -97 100c0 60 42 103 97 103c58 0 101 -43 101 -103c0 -56 -43 -100 -101 -100zM339 1080v-690
c0 -155 101 -245 255 -245c152 0 253 91 253 245v690h204v-705c0 -239 -182 -396 -457 -396c-277 0 -459 159 -459 398v703h204z" />
    <glyph glyph-name="Uring.sc" horiz-adv-x="1186" 
d="M339 1080v-690c0 -155 101 -245 255 -245c152 0 253 91 253 245v690h204v-705c0 -239 -182 -396 -457 -396c-277 0 -459 159 -459 398v703h204zM593 1208c-110 0 -198 82 -198 193c0 110 88 192 198 192c111 0 198 -82 198 -192c0 -111 -87 -193 -198 -193zM494 1401
c0 -57 43 -101 99 -101s99 44 99 101c0 56 -43 100 -99 100s-99 -44 -99 -100z" />
    <glyph glyph-name="Uogonek.sc" horiz-adv-x="1186" 
d="M854 -387c-133 0 -222 68 -222 186c0 78 38 137 82 193c-37 -8 -77 -13 -122 -13c-274 0 -457 159 -457 398v703h205v-690c0 -155 100 -245 253 -245s254 91 254 245v690h204v-705c0 -133 -52 -214 -113 -280c-60 -64 -148 -135 -148 -240c0 -74 49 -100 108 -100
c21 0 57 3 84 9v-129c-17 -8 -68 -22 -128 -22z" />
    <glyph glyph-name="Uhorn.sc" horiz-adv-x="1258" 
d="M594 -21c-277 0 -459 160 -459 399v702h204v-690c0 -154 101 -244 255 -244c152 0 253 91 253 244v690h205c79 0 101 42 101 107v93h163v-108c0 -127 -70 -226 -218 -226h-47v-571c0 -239 -182 -396 -457 -396z" />
    <glyph glyph-name="Uhorngrave.sc" horiz-adv-x="1258" 
d="M594 -21c-277 0 -459 160 -459 399v702h204v-690c0 -154 101 -244 255 -244c152 0 253 91 253 244v690h205c79 0 101 42 101 107v93h163v-108c0 -127 -70 -226 -218 -226h-47v-571c0 -239 -182 -396 -457 -396zM680 1214h-149l-235 278h194z" />
    <glyph glyph-name="Uhornacute.sc" horiz-adv-x="1258" 
d="M594 -21c-277 0 -459 160 -459 399v702h204v-690c0 -154 101 -244 255 -244c152 0 253 91 253 244v690h205c79 0 101 42 101 107v93h163v-108c0 -127 -70 -226 -218 -226h-47v-571c0 -239 -182 -396 -457 -396zM655 1214h-149l191 278h193z" />
    <glyph glyph-name="Uhorndotbelow.sc" horiz-adv-x="1258" 
d="M494 -268c0 59 45 103 100 103c56 0 100 -44 100 -103c0 -57 -44 -101 -100 -101c-55 0 -100 44 -100 101zM594 -21c-277 0 -459 160 -459 399v702h204v-690c0 -154 101 -244 255 -244c152 0 253 91 253 244v690h205c79 0 101 42 101 107v93h163v-108
c0 -127 -70 -226 -218 -226h-47v-571c0 -239 -182 -396 -457 -396z" />
    <glyph glyph-name="Uhornhookabove.sc" horiz-adv-x="1258" 
d="M594 -21c-277 0 -459 160 -459 399v702h204v-690c0 -154 101 -244 255 -244c152 0 253 91 253 244v690h205c79 0 101 42 101 107v93h163v-108c0 -127 -70 -226 -218 -226h-47v-571c0 -239 -182 -396 -457 -396zM451 1449v105c20 10 59 18 107 18c127 0 208 -75 208 -184
c0 -95 -63 -155 -153 -193l-64 85c68 29 94 58 94 101c0 48 -44 87 -106 87c-36 0 -69 -11 -86 -19z" />
    <glyph glyph-name="Uhorntilde.sc" horiz-adv-x="1258" 
d="M594 -21c-277 0 -459 160 -459 399v702h204v-690c0 -154 101 -244 255 -244c152 0 253 91 253 244v690h205c79 0 101 42 101 107v93h163v-108c0 -127 -70 -226 -218 -226h-47v-571c0 -239 -182 -396 -457 -396zM702 1209c-133 0 -170 128 -242 128
c-56 0 -65 -73 -66 -108h-128c0 118 64 228 189 228c133 0 172 -127 244 -127c50 0 69 63 73 110h128c0 -108 -68 -231 -198 -231z" />
    <glyph glyph-name="V.sc" horiz-adv-x="1087" 
d="M663 0h-238l-394 1080h236l276 -866h10l274 866h230z" />
    <glyph glyph-name="Vtilde.sc" horiz-adv-x="1087" 
d="M663 0h-238l-394 1080h236l276 -866h10l274 866h230zM652 1209c-133 0 -170 128 -242 128c-56 0 -65 -73 -66 -108h-128c0 118 64 228 189 228c133 0 172 -127 244 -127c50 0 69 63 73 110h128c0 -108 -68 -231 -198 -231z" />
    <glyph glyph-name="Vdotbelow.sc" horiz-adv-x="1087" 
d="M443 -268c0 59 45 103 100 103c56 0 100 -44 100 -103c0 -57 -44 -101 -100 -101c-55 0 -100 44 -100 101zM663 0h-238l-394 1080h236l276 -866h10l274 866h230z" />
    <glyph glyph-name="W.sc" horiz-adv-x="1503" 
d="M525 0h-188l-309 1079h225l186 -805h10l210 805h185l210 -805h11l184 805h224l-308 -1079h-188l-222 781h-9z" />
    <glyph glyph-name="Wgrave.sc" horiz-adv-x="1503" 
d="M525 0h-188l-309 1079h225l186 -805h10l210 805h185l210 -805h11l184 805h224l-308 -1079h-188l-222 781h-9zM838 1214h-149l-235 278h194z" />
    <glyph glyph-name="Wacute.sc" horiz-adv-x="1503" 
d="M525 0h-188l-309 1079h225l186 -805h10l210 805h185l210 -805h11l184 805h224l-308 -1079h-188l-222 781h-9zM813 1214h-149l191 278h193z" />
    <glyph glyph-name="Wdotaccent.sc" horiz-adv-x="1503" 
d="M525 0h-188l-309 1079h225l186 -805h10l210 805h185l210 -805h11l184 805h224l-308 -1079h-188l-222 781h-9zM638 1330c0 64 50 114 111 114c65 0 115 -50 115 -114s-50 -112 -115 -112c-61 0 -111 48 -111 112z" />
    <glyph glyph-name="Wdotbelow.sc" horiz-adv-x="1503" 
d="M525 0h-188l-309 1079h225l186 -805h10l210 805h185l210 -805h11l184 805h224l-308 -1079h-188l-222 781h-9zM650 -268c0 59 45 103 100 103c56 0 100 -44 100 -103c0 -57 -44 -101 -100 -101c-55 0 -100 44 -100 101z" />
    <glyph glyph-name="Wdieresis.sc" horiz-adv-x="1503" 
d="M525 0h-188l-309 1079h225l186 -805h10l210 805h185l210 -805h11l184 805h224l-308 -1079h-188l-222 781h-9zM582 1224c-55 0 -98 44 -98 100c0 60 43 103 98 103c57 0 99 -43 99 -103c0 -56 -42 -100 -99 -100zM938 1224c-55 0 -97 44 -97 100c0 60 42 103 97 103
c58 0 101 -43 101 -103c0 -56 -43 -100 -101 -100z" />
    <glyph glyph-name="Wcircumflex.sc" horiz-adv-x="1503" 
d="M525 0h-188l-309 1079h225l186 -805h10l210 805h185l210 -805h11l184 805h224l-308 -1079h-188l-222 781h-9zM471 1214l217 303h126l217 -303h-161l-117 180h-4l-117 -180h-161z" />
    <glyph glyph-name="X.sc" horiz-adv-x="1042" 
d="M1020 1080l-373 -543l366 -537h-237l-258 395h-10l-259 -395h-224l363 544l-360 536h243l255 -399h9l253 399h232z" />
    <glyph glyph-name="Xdotaccent.sc" horiz-adv-x="1042" 
d="M406 1330c0 64 50 114 111 114c65 0 115 -50 115 -114s-50 -112 -115 -112c-61 0 -111 48 -111 112zM1020 1080l-373 -543l366 -537h-237l-258 395h-10l-259 -395h-224l363 544l-360 536h243l255 -399h9l253 399h232z" />
    <glyph glyph-name="Xdieresis.sc" horiz-adv-x="1042" 
d="M1020 1080l-373 -543l366 -537h-237l-258 395h-10l-259 -395h-224l363 544l-360 536h243l255 -399h9l253 399h232zM353 1224c-55 0 -98 44 -98 100c0 60 43 103 98 103c57 0 99 -43 99 -103c0 -56 -42 -100 -99 -100zM709 1224c-55 0 -97 44 -97 100c0 60 42 103 97 103
c58 0 101 -43 101 -103c0 -56 -43 -100 -101 -100z" />
    <glyph glyph-name="Y.sc" horiz-adv-x="1001" 
d="M602 0h-204v425l-386 655h228l258 -464h9l258 464h224l-387 -651v-429z" />
    <glyph glyph-name="Ygrave.sc" horiz-adv-x="1001" 
d="M587 1214h-149l-235 278h194zM602 0h-204v425l-386 655h228l258 -464h9l258 464h224l-387 -651v-429z" />
    <glyph glyph-name="Yacute.sc" horiz-adv-x="1001" 
d="M562 1214h-149l191 278h193zM602 0h-204v425l-386 655h228l258 -464h9l258 464h224l-387 -651v-429z" />
    <glyph glyph-name="Ydotaccent.sc" horiz-adv-x="1001" 
d="M387 1330c0 64 50 114 111 114c65 0 115 -50 115 -114s-50 -112 -115 -112c-61 0 -111 48 -111 112zM602 0h-204v425l-386 655h228l258 -464h9l258 464h224l-387 -651v-429z" />
    <glyph glyph-name="Ydotbelow.sc" horiz-adv-x="1001" 
d="M402 -268c0 59 45 103 100 103c56 0 100 -44 100 -103c0 -57 -44 -101 -100 -101c-55 0 -100 44 -100 101zM602 0h-204v425l-386 655h228l258 -464h9l258 464h224l-387 -651v-429z" />
    <glyph glyph-name="Ydieresis.sc" horiz-adv-x="1001" 
d="M602 0h-204v425l-386 655h228l258 -464h9l258 464h224l-387 -651v-429zM331 1224c-55 0 -98 44 -98 100c0 60 43 103 98 103c57 0 99 -43 99 -103c0 -56 -42 -100 -99 -100zM687 1224c-55 0 -97 44 -97 100c0 60 42 103 97 103c58 0 101 -43 101 -103
c0 -56 -43 -100 -101 -100z" />
    <glyph glyph-name="Ytilde.sc" horiz-adv-x="1001" 
d="M602 0h-204v425l-386 655h228l258 -464h9l258 464h224l-387 -651v-429zM609 1209c-133 0 -170 128 -242 128c-56 0 -65 -73 -66 -108h-128c0 118 64 228 189 228c133 0 172 -127 244 -127c50 0 69 63 73 110h128c0 -108 -68 -231 -198 -231z" />
    <glyph glyph-name="Ycircumflex.sc" horiz-adv-x="1001" 
d="M220 1214l217 303h126l217 -303h-161l-117 180h-4l-117 -180h-161zM602 0h-204v425l-386 655h228l258 -464h9l258 464h224l-387 -651v-429z" />
    <glyph glyph-name="Ymacron.sc" horiz-adv-x="1001" 
d="M602 0h-204v425l-386 655h228l258 -464h9l258 464h224l-387 -651v-429zM779 1263h-558v128h558v-128z" />
    <glyph glyph-name="Yhookabove.sc" horiz-adv-x="1001" 
d="M602 0h-204v425l-386 655h228l258 -464h9l258 464h224l-387 -651v-429zM358 1449v105c20 10 59 18 107 18c127 0 208 -75 208 -184c0 -95 -63 -155 -153 -193l-64 85c68 29 94 58 94 101c0 48 -44 87 -106 87c-36 0 -69 -11 -86 -19z" />
    <glyph glyph-name="Z.sc" horiz-adv-x="1030" 
d="M92 0v128l576 780v11h-558v161h808v-127l-574 -782v-10h589v-161h-841z" />
    <glyph glyph-name="Zacute.sc" horiz-adv-x="1030" 
d="M576 1214h-149l191 278h193zM92 0v128l576 780v11h-558v161h808v-127l-574 -782v-10h589v-161h-841z" />
    <glyph glyph-name="Zcaron.sc" horiz-adv-x="1030" 
d="M234 1517h161l117 -180h3l117 180h162l-217 -303h-127zM92 0v128l576 780v11h-558v161h808v-127l-574 -782v-10h589v-161h-841z" />
    <glyph glyph-name="Zcircumflex.sc" horiz-adv-x="1030" 
d="M234 1214l217 303h126l217 -303h-161l-117 180h-4l-117 -180h-161zM92 0v128l576 780v11h-558v161h808v-127l-574 -782v-10h589v-161h-841z" />
    <glyph glyph-name="Zlinebelow.sc" horiz-adv-x="1030" 
d="M793 -340h-558v128h558v-128zM92 0v128l576 780v11h-558v161h808v-127l-574 -782v-10h589v-161h-841z" />
    <glyph glyph-name="Zdotbelow.sc" horiz-adv-x="1030" 
d="M416 -268c0 59 45 103 100 103c56 0 100 -44 100 -103c0 -57 -44 -101 -100 -101c-55 0 -100 44 -100 101zM92 0v128l576 780v11h-558v161h808v-127l-574 -782v-10h589v-161h-841z" />
    <glyph glyph-name="Zdotaccent.sc" horiz-adv-x="1030" 
d="M401 1330c0 64 50 114 111 114c65 0 115 -50 115 -114s-50 -112 -115 -112c-61 0 -111 48 -111 112zM92 0v128l576 780v11h-558v161h808v-127l-574 -782v-10h589v-161h-841z" />
    <glyph glyph-name="AE.sc" horiz-adv-x="1632" 
d="M738 921l-248 -474h309v474h-61zM799 298h-381l-161 -298h-227l585 1080h906v-159h-523v-296h492v-154h-492v-311h523v-160h-722v298z" />
    <glyph glyph-name="AEmacron.sc" horiz-adv-x="1632" 
d="M738 921l-248 -474h309v474h-61zM799 298h-381l-161 -298h-227l585 1080h906v-159h-523v-296h492v-154h-492v-311h523v-160h-722v298zM1435 1263h-558v128h558v-128z" />
    <glyph glyph-name="AEacute.sc" horiz-adv-x="1632" 
d="M1218 1214h-149l191 278h193zM738 921l-248 -474h309v474h-61zM799 298h-381l-161 -298h-227l585 1080h906v-159h-523v-296h492v-154h-492v-311h523v-160h-722v298z" />
    <glyph glyph-name="OE.sc" horiz-adv-x="1702" 
d="M315 609v-146c0 -218 118 -321 278 -321s280 95 280 313v166c0 217 -120 317 -280 317s-278 -112 -278 -329zM563 -21c-283 0 -460 183 -460 486v142c0 317 189 494 462 494c133 0 250 -43 311 -132h12v111h702v-159h-519v-296h488v-154h-488v-311h519v-160h-702v114h-12
c-60 -85 -175 -135 -313 -135z" />
    <glyph glyph-name="Eth.sc" horiz-adv-x="1229" 
d="M627 0h-406v466h-139v167h139v447h406c372 0 514 -221 514 -538c0 -314 -139 -542 -514 -542zM425 162h177c214 0 326 113 326 380c0 223 -80 381 -326 381h-177v-290h224v-167h-224v-304z" />
    <glyph glyph-name="Thorn.sc" horiz-adv-x="1042" 
d="M149 1080h204v-189h234c240 0 384 -130 384 -332c0 -205 -146 -331 -386 -331h-231v-228h-205v1080zM353 733v-349h174c133 0 235 27 235 175c0 120 -78 174 -210 174h-199z" />
    <glyph glyph-name="Alphagreek.sc" horiz-adv-x="1095" 
d="M247 0h-209l393 1080h235l391 -1080h-218l-98 290h-396zM548 885h-8l-150 -448h308z" />
    <glyph glyph-name="Betagreek.sc" horiz-adv-x="1098" 
d="M149 0v1080h468c203 0 334 -100 334 -265c0 -129 -79 -210 -193 -237v-9c142 -15 254 -105 254 -264c0 -193 -163 -305 -401 -305h-462zM354 930v-303h157c164 0 237 54 237 155c0 92 -65 148 -177 148h-217zM354 485v-334h177c193 0 272 54 272 163
c0 107 -77 171 -217 171h-232z" />
    <glyph glyph-name="Gammagreek.sc" horiz-adv-x="921" 
d="M355 0h-206v1080h703v-163h-497v-917z" />
    <glyph glyph-name="Deltagreek.sc" horiz-adv-x="1103" 
d="M63 0v107l373 973h234l371 -973v-107h-978zM545 877l-267 -730h539l-264 730h-8z" />
    <glyph glyph-name="Epsilongreek.sc" horiz-adv-x="989" 
d="M877 161v-162h-728v1081h728v-162h-523v-295h492v-153h-492v-309h523z" />
    <glyph glyph-name="Zetagreek.sc" horiz-adv-x="1030" 
d="M93 0v130l573 781v8h-556v161h807v-128l-571 -782v-8h587v-162h-840z" />
    <glyph glyph-name="Etagreek.sc" horiz-adv-x="1221" 
d="M1072 0h-206v472h-511v-472h-206v1080h206v-444h511v444h206v-1080z" />
    <glyph glyph-name="Thetagreek.sc" horiz-adv-x="1215" 
d="M806 462h-399v159h399v-159zM309 612v-151c0 -208 122 -315 298 -315s299 104 299 315v151c0 214 -122 323 -299 323c-179 0 -298 -115 -298 -323zM103 464v143c0 308 194 494 505 494s504 -184 504 -494v-143c0 -307 -195 -485 -507 -485c-311 0 -502 180 -502 485z" />
    <glyph glyph-name="Iotagreek.sc" horiz-adv-x="504" 
d="M355 0h-206v1080h206v-1080z" />
    <glyph glyph-name="Kappagreek.sc" horiz-adv-x="1089" 
d="M1048 1080l-416 -463l435 -617h-251l-336 485l-125 -130v-355h-206v1080h206v-493h9l454 493h230z" />
    <glyph glyph-name="Lambdagreek.sc" horiz-adv-x="1069" 
d="M527 864l-277 -864h-211l379 1080h235l377 -1080h-219l-276 864h-8z" />
    <glyph glyph-name="Mugreek.sc" horiz-adv-x="1410" 
d="M337 0h-185v1080h208l343 -732h6l343 732h207v-1080h-186v732h-8l-289 -608h-142l-290 608h-7v-732z" />
    <glyph glyph-name="Nugreek.sc" horiz-adv-x="1206" 
d="M342 0h-193v1080h177l531 -749h7v749h192v-1080h-175l-533 754h-6v-754z" />
    <glyph glyph-name="Xigreek.sc" horiz-adv-x="1027" 
d="M113 914v166h801v-166h-801zM185 468v157h656v-157h-656zM113 0v166h801v-166h-801z" />
    <glyph glyph-name="Omicrongreek.sc" horiz-adv-x="1176" 
d="M311 609v-146c0 -216 118 -320 277 -320s276 104 276 320v146c0 217 -117 328 -276 328s-277 -111 -277 -328zM103 464v143c0 308 186 494 486 494c301 0 484 -187 484 -494v-143c0 -305 -186 -485 -486 -485s-484 180 -484 485z" />
    <glyph glyph-name="Pigreek.sc" horiz-adv-x="1204" 
d="M1055 0h-206v917h-494v-917h-206v1080h906v-1080z" />
    <glyph glyph-name="Rhogreek.sc" horiz-adv-x="1044" 
d="M149 1080h450c239 0 383 -152 383 -354c0 -204 -145 -351 -385 -351h-242v-375h-206v1080zM354 922v-392h147c170 0 270 42 270 196c0 125 -77 196 -207 196h-210z" />
    <glyph glyph-name="Sigmagreek.sc" horiz-adv-x="1008" 
d="M93 118l319 425l-313 409v128h805v-161h-541v-8l269 -351v-23l-279 -367v-8h557v-162h-817v118z" />
    <glyph glyph-name="Taugreek.sc" horiz-adv-x="946" 
d="M575 0h-205v916h-334v164h873v-164h-334v-916z" />
    <glyph glyph-name="Upsilongreek.sc" horiz-adv-x="1002" 
d="M604 0h-206v425l-386 655h230l258 -463h6l259 463h225l-386 -652v-428z" />
    <glyph glyph-name="Phigreek.sc" horiz-adv-x="1390" 
d="M790 -49h-190v86c-320 7 -497 197 -497 475v50c0 276 175 466 497 474v89h190v-89c322 -8 498 -198 498 -476v-48c0 -277 -178 -468 -498 -475v-86zM603 190v693c-187 -7 -297 -124 -297 -322v-51c0 -204 116 -313 297 -320zM787 190c182 7 298 116 298 320v51
c0 198 -110 315 -298 322v-693z" />
    <glyph glyph-name="Chigreek.sc" horiz-adv-x="1030" 
d="M1013 1080l-372 -543l365 -537h-239l-256 394h-9l-258 -394h-225l361 544l-358 536h244l253 -398h9l252 398h233z" />
    <glyph glyph-name="Psigreek.sc" horiz-adv-x="1316" 
d="M559 0v236c-268 9 -429 123 -429 386v458h197v-458c0 -162 75 -221 232 -226v684h197v-684c157 5 232 64 232 226v458h198v-458c0 -264 -162 -377 -430 -386v-236h-197z" />
    <glyph glyph-name="Omegagreek.sc" horiz-adv-x="1223" 
d="M691 0v195c109 32 199 180 199 355v67c0 217 -120 320 -279 320c-161 0 -279 -106 -279 -320v-67c0 -172 88 -321 199 -355v-195h-426v167h202v11c-103 58 -183 201 -183 373v70c0 311 193 480 487 480c295 0 488 -169 488 -480v-70c0 -173 -81 -317 -183 -373v-11h203
v-167h-428z" />
    <glyph glyph-name="Alphatonosgreek.sc" horiz-adv-x="1153" 
d="M305 0h-209l392 1080h235l392 -1080h-218l-98 290h-396zM606 885h-8l-151 -448h308zM69 825l64 255h186l-110 -255h-140z" />
    <glyph glyph-name="Epsilontonosgreek.sc" horiz-adv-x="1261" 
d="M1149 161v-162h-728v1081h728v-162h-523v-295h492v-153h-492v-309h523zM53 825l64 255h187l-110 -255h-141z" />
    <glyph glyph-name="Etatonosgreek.sc" horiz-adv-x="1493" 
d="M1344 0h-206v472h-511v-472h-206v1080h206v-444h511v444h206v-1080zM53 825l64 255h187l-110 -255h-141z" />
    <glyph glyph-name="Iotatonosgreek.sc" horiz-adv-x="776" 
d="M627 0h-206v1080h206v-1080zM53 825l64 255h187l-110 -255h-141z" />
    <glyph glyph-name="Iotadieresisgreek.sc" horiz-adv-x="504" 
d="M355 0h-206v1080h206v-1080zM109 1173c-47 0 -83 35 -83 80c0 47 36 83 83 83c49 0 86 -36 86 -83c0 -45 -37 -80 -86 -80zM391 1173c-46 0 -83 35 -83 80c0 47 37 83 83 83c49 0 87 -36 87 -83c0 -45 -38 -80 -87 -80z" />
    <glyph glyph-name="Omicrontonosgreek.sc" horiz-adv-x="1358" 
d="M494 609v-146c0 -216 118 -320 276 -320c160 0 277 104 277 320v146c0 217 -117 328 -277 328c-158 0 -276 -111 -276 -328zM286 464v143c0 308 186 494 486 494s484 -187 484 -494v-143c0 -305 -186 -485 -486 -485c-301 0 -484 180 -484 485zM53 825l64 255h187
l-110 -255h-141z" />
    <glyph glyph-name="Upsilontonosgreek.sc" horiz-adv-x="1367" 
d="M969 0h-205v425l-386 655h229l257 -463h8l258 463h224l-385 -652v-428zM53 825l64 255h187l-110 -255h-141z" />
    <glyph glyph-name="Upsilondieresisgreek.sc" horiz-adv-x="1002" 
d="M604 0h-206v425l-386 655h230l258 -463h6l259 463h225l-386 -652v-428zM358 1173c-48 0 -84 35 -84 80c0 47 36 83 84 83c49 0 86 -36 86 -83c0 -45 -37 -80 -86 -80zM641 1173c-48 0 -85 35 -85 80c0 47 37 83 85 83c49 0 85 -36 85 -83c0 -45 -36 -80 -85 -80z" />
    <glyph glyph-name="Omegatonosgreek.sc" horiz-adv-x="1378" 
d="M846 0v195c108 32 199 180 199 355v67c0 217 -121 320 -278 320c-163 0 -280 -106 -280 -320v-67c0 -172 87 -321 198 -355v-195h-426v167h202v11c-103 58 -183 201 -183 373v70c0 311 194 480 489 480c294 0 487 -169 487 -480v-70c0 -173 -82 -317 -183 -373v-11h202
v-167h-427zM53 825l64 255h187l-110 -255h-141z" />
    <glyph glyph-name="Acyrillic.sc" horiz-adv-x="1112" 
d="M255 0h-208l392 1080h235l392 -1080h-219l-97 290h-397zM557 885h-8l-151 -448h308z" />
    <glyph glyph-name="Becyrillic.sc" horiz-adv-x="1073" 
d="M363 917v-251h237c240 0 385 -138 385 -329c0 -194 -144 -337 -383 -337h-445v1080h728v-163h-522zM362 158h210c127 0 202 65 202 177c0 113 -75 177 -202 177h-210v-354z" />
    <glyph glyph-name="Vecyrillic.sc" horiz-adv-x="1115" 
d="M157 0v1080h468c203 0 335 -100 335 -265c0 -129 -79 -210 -194 -237v-9c143 -15 255 -105 255 -264c0 -193 -164 -305 -402 -305h-462zM362 930v-303h158c163 0 236 54 236 155c0 92 -64 148 -176 148h-218zM362 485v-334h178c193 0 271 54 271 163
c0 107 -77 171 -216 171h-233z" />
    <glyph glyph-name="Gecyrillic.sc" horiz-adv-x="956" 
d="M363 0h-206v1080h717v-163h-511v-917z" />
    <glyph glyph-name="Decyrillic.sc" horiz-adv-x="1258" 
d="M847 164v752h-387l-9 -242c-10 -255 -18 -416 -89 -503v-7h485zM229 -227h-184v391h94c100 64 112 195 121 534l12 382h778v-916h147v-391h-185v227h-783v-227z" />
    <glyph glyph-name="Iecyrillic.sc" horiz-adv-x="1006" 
d="M885 162v-162h-728v1080h728v-162h-523v-293h493v-153h-493v-310h523z" />
    <glyph glyph-name="Iocyrillic.sc" horiz-adv-x="1006" 
d="M885 162v-162h-728v1080h728v-162h-523v-293h493v-153h-493v-310h523zM373 1173c-47 0 -83 35 -83 80c0 47 36 83 83 83c49 0 86 -36 86 -83c0 -45 -37 -80 -86 -80zM655 1173c-46 0 -83 35 -83 80c0 47 37 83 83 83c49 0 87 -36 87 -83c0 -45 -38 -80 -87 -80z" />
    <glyph glyph-name="Zhecyrillic.sc" horiz-adv-x="1621" 
d="M1098 566l485 -566h-248l-416 478h-7v-478h-201v478h-8l-415 -478h-244l481 561l-483 519h244l417 -449h8v449h201v-449h7l418 449h239z" />
    <glyph glyph-name="Zecyrillic.sc" horiz-adv-x="1054" 
d="M377 479v154h144c119 0 200 60 200 159c0 94 -83 156 -198 156c-129 0 -210 -72 -215 -161h-192c6 172 146 314 410 314c249 0 398 -127 398 -289c0 -131 -94 -220 -225 -240v-11c151 -14 261 -116 261 -255c0 -199 -172 -328 -437 -328c-259 0 -422 136 -429 320h190
c7 -93 100 -164 242 -164c140 0 228 66 228 175c0 111 -89 170 -234 170h-143z" />
    <glyph glyph-name="Iicyrillic.sc" horiz-adv-x="1238" 
d="M879 0v775h-7l-525 -775h-190v1080h201v-774h8l524 774h190v-1080h-201z" />
    <glyph glyph-name="Iishortcyrillic.sc" horiz-adv-x="1238" 
d="M879 0v775h-7l-525 -775h-190v1080h201v-774h8l524 774h190v-1080h-201zM352 1410h125c0 -76 50 -128 155 -128c106 0 156 52 156 128h124c0 -130 -96 -228 -280 -228c-183 0 -280 98 -280 228z" />
    <glyph glyph-name="Kacyrillic.sc" horiz-adv-x="1107" 
d="M816 0l-444 478h-9v-478h-206v1080h206v-449h9l446 449h243l-511 -513l519 -567h-253z" />
    <glyph glyph-name="Elcyrillic.sc" horiz-adv-x="1175" 
d="M255 698l7 382h755v-1080h-206v916h-358l-8 -244c-15 -488 -61 -683 -314 -683c-38 0 -66 8 -73 11v170c3 -1 21 -6 42 -6c125 0 147 156 155 534z" />
    <glyph glyph-name="Emcyrillic.sc" horiz-adv-x="1422" 
d="M342 0h-185v1080h208l344 -732h6l342 732h207v-1080h-185v732h-8l-290 -608h-142l-289 608h-8v-732z" />
    <glyph glyph-name="Encyrillic.sc" horiz-adv-x="1238" 
d="M1080 0h-206v472h-511v-472h-206v1080h206v-444h511v444h206v-1080z" />
    <glyph glyph-name="Ocyrillic.sc" horiz-adv-x="1193" 
d="M320 609v-146c0 -216 117 -320 276 -320c160 0 277 104 277 320v146c0 217 -117 328 -277 328c-159 0 -276 -111 -276 -328zM112 464v143c0 308 186 494 486 494s484 -187 484 -494v-143c0 -305 -186 -485 -486 -485c-301 0 -484 180 -484 485z" />
    <glyph glyph-name="Pecyrillic.sc" horiz-adv-x="1221" 
d="M1063 0h-206v916h-494v-916h-206v1080h906v-1080z" />
    <glyph glyph-name="Ercyrillic.sc" horiz-adv-x="1067" 
d="M157 1080h450c240 0 383 -152 383 -354c0 -204 -145 -351 -385 -351h-242v-375h-206v1080zM362 922v-392h147c171 0 271 42 271 196c0 125 -78 196 -207 196h-211z" />
    <glyph glyph-name="Escyrillic.sc" horiz-adv-x="1134" 
d="M320 603v-130c0 -210 96 -328 266 -328c147 0 242 88 244 212h200v-16c0 -212 -188 -362 -445 -362c-301 0 -473 187 -473 495v128c0 311 172 499 473 499c259 0 445 -153 445 -375v-16h-200c-2 132 -97 225 -244 225c-170 0 -266 -119 -266 -332z" />
    <glyph glyph-name="Tecyrillic.sc" horiz-adv-x="963" 
d="M583 0h-204v916h-334v164h873v-164h-335v-916z" />
    <glyph glyph-name="Ucyrillic.sc" horiz-adv-x="1016" 
d="M782 1080h213l-369 -790c-99 -209 -195 -301 -368 -301c-51 0 -91 9 -100 11v165c11 -3 44 -9 80 -9c73 0 128 32 180 120l-397 804h224l272 -591h8z" />
    <glyph glyph-name="Efcyrillic.sc" horiz-adv-x="1426" 
d="M810 -8h-200v124c-323 10 -505 160 -505 421v13c0 263 184 418 505 428v110h200v-110c326 -7 512 -158 512 -421v-14c0 -263 -187 -418 -512 -428v-123zM306 537c0 -169 109 -258 306 -263v547c-195 -8 -306 -100 -306 -271v-13zM1119 557c0 170 -111 259 -312 263v-548
c200 7 312 99 312 271v14z" />
    <glyph glyph-name="Xacyrillic.sc" horiz-adv-x="1047" 
d="M1021 1080l-371 -543l365 -537h-239l-257 394h-9l-258 -394h-225l362 544l-359 536h244l254 -398h9l251 398h233z" />
    <glyph glyph-name="Tsecyrillic.sc" horiz-adv-x="1277" 
d="M1069 164h146v-391h-184v227h-168h-706v1080h206v-916h500v916h206v-916z" />
    <glyph glyph-name="Checyrillic.sc" horiz-adv-x="1175" 
d="M1018 0h-206v478h-8c-17 -9 -119 -72 -270 -72c-254 0 -400 132 -400 367v307h206v-299c0 -141 78 -212 228 -212c138 0 233 68 244 76v435h206v-1080z" />
    <glyph glyph-name="Shacyrillic.sc" horiz-adv-x="1672" 
d="M157 0v1080h206v-916h370v916h206v-916h369v916h206v-1080h-1357z" />
    <glyph glyph-name="Shchacyrillic.sc" horiz-adv-x="1722" 
d="M1660 -227h-184v227h-1319v1080h206v-916h370v916h206v-916h369v916h206v-916h146v-391z" />
    <glyph glyph-name="Hardsigncyrillic.sc" horiz-adv-x="1222" 
d="M760 0h-450v916h-259v164h465v-369h242c241 0 385 -149 385 -353c0 -205 -143 -358 -383 -358zM726 158c130 0 207 72 207 198c0 127 -77 198 -207 198h-211v-396h211z" />
    <glyph glyph-name="Yericyrillic.sc" horiz-adv-x="1464" 
d="M989 358c0 -205 -144 -358 -383 -358h-449v1080h206v-369h241c240 0 385 -149 385 -353zM571 554h-209v-396h209c130 0 208 72 208 198c0 127 -78 198 -208 198zM1307 0h-206v1080h206v-1080z" />
    <glyph glyph-name="Softsigncyrillic.sc" horiz-adv-x="1069" 
d="M607 0h-450v1080h206v-369h242c240 0 385 -149 385 -353c0 -205 -143 -358 -383 -358zM573 158c129 0 207 72 207 198c0 127 -78 198 -207 198h-211v-396h211z" />
    <glyph glyph-name="Ereversedcyrillic.sc" horiz-adv-x="1140" 
d="M553 -21c-296 0 -448 182 -448 362v6h199c3 -106 84 -202 244 -202c161 0 267 96 272 301v27h-434v152h434v5c-6 202 -113 305 -269 305c-161 0 -242 -109 -247 -211h-199v2c0 196 161 375 447 375c295 0 476 -183 476 -493v-140c0 -313 -179 -489 -475 -489z" />
    <glyph glyph-name="IUcyrillic.sc" horiz-adv-x="1592" 
d="M1272 463v146c0 217 -113 328 -268 328c-154 0 -267 -111 -267 -328v-146c0 -216 113 -320 267 -320c155 0 268 104 268 320zM363 636h169c11 291 189 465 473 465c295 0 475 -187 475 -494v-143c0 -305 -182 -485 -477 -485c-294 0 -472 180 -472 485v8h-168v-472h-206
v1080h206v-444z" />
    <glyph glyph-name="IAcyrillic.sc" horiz-adv-x="1116" 
d="M541 556h214v367h-214c-137 0 -214 -63 -214 -183s77 -184 214 -184zM752 401h-190l-251 -401h-228l274 432c-150 40 -240 155 -240 306c0 200 144 342 396 342h445v-1080h-206v401z" />
    <glyph glyph-name="Djecyrillic.sc" horiz-adv-x="1329" 
d="M591 590c56 41 168 70 258 70c241 0 380 -124 380 -339c0 -200 -144 -332 -360 -332c-46 0 -92 5 -110 11v155c16 -4 51 -7 83 -7c107 0 181 70 181 170c0 119 -72 184 -208 184c-84 0 -181 -32 -231 -76v-426h-206v916h-333v164h872v-164h-333v-326h7z" />
    <glyph glyph-name="Gjecyrillic.sc" horiz-adv-x="956" 
d="M363 0h-206v1080h717v-163h-511v-917zM586 1193h-144l167 226h182z" />
    <glyph glyph-name="Ecyrillic.sc" horiz-adv-x="1140" 
d="M1035 724h-199c-5 102 -86 211 -247 211c-157 0 -264 -104 -270 -310h435v-152h-435v-5c0 -220 107 -323 273 -323c160 0 241 96 244 202h199v-6c0 -180 -153 -362 -449 -362c-295 0 -474 176 -474 489v140c0 310 181 493 476 493c285 0 447 -179 447 -375v-2z" />
    <glyph glyph-name="Dzecyrillic.sc" horiz-adv-x="1068" 
d="M82 303h200c7 -89 92 -167 250 -167c146 0 230 63 230 160c0 80 -59 121 -180 149l-185 42c-152 32 -286 115 -286 294c0 208 193 323 422 323c233 0 416 -120 419 -318h-195c-8 87 -82 161 -226 161c-128 0 -213 -57 -213 -151c0 -69 53 -116 159 -138l184 -42
c172 -37 307 -115 307 -302c0 -212 -182 -335 -450 -335c-325 0 -433 176 -436 324z" />
    <glyph glyph-name="Icyrillic.sc" horiz-adv-x="521" 
d="M363 0h-206v1080h206v-1080z" />
    <glyph glyph-name="Yicyrillic.sc" horiz-adv-x="510" 
d="M358 0h-206v1080h206v-1080zM111 1173c-46 0 -83 35 -83 80c0 47 37 83 83 83c49 0 87 -36 87 -83c0 -45 -38 -80 -87 -80zM394 1173c-47 0 -83 35 -83 80c0 47 36 83 83 83c49 0 86 -36 86 -83c0 -45 -37 -80 -86 -80z" />
    <glyph glyph-name="Jecyrillic.sc" horiz-adv-x="937" 
d="M52 293h199c3 -83 58 -141 162 -141c114 0 166 64 166 192v736h206v-738c0 -237 -137 -363 -371 -363s-362 141 -362 314z" />
    <glyph glyph-name="Ljecyrillic.sc" horiz-adv-x="1709" 
d="M445 672c-16 -488 -63 -683 -314 -683c-40 0 -68 8 -73 11v170c6 -2 22 -6 42 -6c123 0 149 155 155 534l6 382h741v-369h243c240 0 384 -149 384 -353c0 -205 -143 -358 -383 -358h-449v916h-344zM1211 554h-211v-396h211c131 0 208 72 208 198c0 127 -77 198 -208 198z
" />
    <glyph glyph-name="Njecyrillic.sc" horiz-adv-x="1786" 
d="M874 669v411h206v-411h241c241 0 386 -133 386 -332s-144 -337 -385 -337h-448v505h-511v-505h-206v1080h206v-411h511zM1291 513h-214v-355h214c129 0 205 59 205 178s-76 177 -205 177z" />
    <glyph glyph-name="Tshecyrillic.sc" horiz-adv-x="1373" 
d="M591 590c54 39 165 70 256 70c240 0 376 -130 376 -360v-300h-206v292c0 138 -70 209 -206 209c-82 0 -177 -32 -227 -76v-425h-206v916h-333v164h872v-164h-333v-326h7z" />
    <glyph glyph-name="Kjecyrillic.sc" horiz-adv-x="1107" 
d="M816 0l-444 478h-9v-478h-206v1080h206v-449h9l446 449h243l-511 -513l519 -567h-253zM652 1193h-143l166 226h183z" />
    <glyph glyph-name="Ushortcyrillic.sc" horiz-adv-x="1016" 
d="M672 1400h125c0 -129 -95 -227 -279 -227s-281 97 -281 227h126c0 -75 50 -127 155 -127s154 52 154 127zM782 1080h213l-369 -790c-99 -209 -195 -301 -368 -301c-51 0 -91 9 -100 11v165c11 -3 44 -9 80 -9c73 0 128 32 180 120l-397 804h224l272 -591h8z" />
    <glyph glyph-name="Dzhecyrillic.sc" horiz-adv-x="1229" 
d="M866 1080h206v-1080h-365v-227h-184v227h-366v1080h206v-916h503v916z" />
    <glyph glyph-name="Geupturncyrillic.sc" horiz-adv-x="956" 
d="M690 1307h184v-227v-163h-511v-917h-206v1080h533v227z" />
    <glyph glyph-name="zero.sc" horiz-adv-x="1076" 
d="M312 562v-44c0 -243 89 -379 226 -379c136 0 226 136 226 379v44c0 242 -90 379 -226 379c-137 0 -226 -135 -226 -379zM108 517v46c0 321 157 538 431 538c276 0 429 -216 429 -538v-46c0 -311 -150 -538 -431 -538c-275 0 -429 217 -429 538z" />
    <glyph glyph-name="one.sc" horiz-adv-x="828" 
d="M597 0h-202v890h-8c-63 -37 -181 -120 -266 -184v192c70 55 197 138 274 182h202v-1080z" />
    <glyph glyph-name="two.sc" horiz-adv-x="997" 
d="M309 764h-196v9c0 165 128 328 386 328c232 0 383 -129 383 -300c0 -145 -97 -237 -200 -343l-277 -289v-10h498v-159h-781v121l426 437c63 63 130 133 130 226c0 95 -78 160 -183 160c-118 0 -187 -80 -187 -170c0 -3 1 -8 1 -10z" />
    <glyph glyph-name="three.sc" horiz-adv-x="1017" 
d="M369 480v153h122c109 0 189 68 188 160c0 93 -79 156 -189 156c-111 0 -184 -67 -190 -140h-190c5 159 140 291 385 292c234 1 383 -119 386 -279c3 -154 -128 -238 -214 -252v-10c102 -9 247 -86 250 -258c2 -201 -189 -324 -428 -324c-251 0 -397 135 -403 295h188
c8 -79 96 -140 217 -140c135 -1 223 73 222 176c-1 100 -86 171 -216 171h-128z" />
    <glyph glyph-name="four.sc" horiz-adv-x="1049" 
d="M538 1080h296v-715h145v-159h-145v-206h-192v206h-559v162c137 238 297 479 455 712zM272 365h370v564h-11c-124 -175 -249 -369 -359 -557v-7z" />
    </font>
</defs>
</svg>
